<svg width="24" height="24" viewBox="0 0 24 24" fill="none" xmlns="http://www.w3.org/2000/svg">
<g clip-path="url(#clip0_1433_238)">
<circle cx="12" cy="12" r="6" fill="#1E1E1E"/>
<path d="M19.0711 4.92895C15.1749 1.03279 8.82509 1.03279 4.92893 4.92895C1.03277 8.82511 1.03277 15.1749 4.92893 19.0711C8.82509 22.9672 15.1749 22.9672 19.0711 19.0711C22.9672 15.1749 22.9672 8.82511 19.0711 4.92895ZM14.2981 15.3588L12 13.0607L9.7019 15.3588C9.41199 15.6487 8.93116 15.6487 8.64124 15.3588C8.35133 15.0689 8.35133 14.588 8.64124 14.2981L10.9393 12L8.64124 9.70192C8.35133 9.412 8.35133 8.93117 8.64124 8.64126C8.93116 8.35134 9.41199 8.35134 9.7019 8.64126L12 10.9394L14.2981 8.64126C14.588 8.35134 15.0688 8.35134 15.3588 8.64126C15.6487 8.93117 15.6487 9.412 15.3588 9.70192L13.0607 12L15.3588 14.2981C15.6487 14.588 15.6487 15.0689 15.3588 15.3588C15.0688 15.6487 14.588 15.6487 14.2981 15.3588Z" fill="white"/>
</g>
<defs>
<clipPath id="clip0_1433_238">
<rect width="24" height="24" fill="white"/>
</clipPath>
</defs>
</svg>
