<svg width="24" height="24" viewBox="0 0 24 24" fill="none" xmlns="http://www.w3.org/2000/svg">
<path d="M21 22.0001H3C2.59 22.0001 2.25 21.6601 2.25 21.2501C2.25 20.8401 2.59 20.5001 3 20.5001H21C21.41 20.5001 21.75 20.8401 21.75 21.2501C21.75 21.6601 21.41 22.0001 21 22.0001ZM19.02 3.48211C17.08 1.54211 15.18 1.49211 13.19 3.48211L11.98 4.69211C11.88 4.79211 11.84 4.95211 11.88 5.09211C12.2625 6.40449 12.9697 7.59923 13.9363 8.56583C14.9029 9.53242 16.0976 10.2397 17.41 10.6221C17.4809 10.6453 17.5568 10.6483 17.6293 10.6306C17.7017 10.6129 17.7678 10.5753 17.82 10.5221L19.02 9.31211C20.01 8.33211 20.49 7.38211 20.49 6.42211C20.5 5.43211 20.02 4.47211 19.02 3.48211ZM15.61 11.5301C15.32 11.3901 15.04 11.2501 14.77 11.0901C14.5507 10.9595 14.3371 10.8193 14.13 10.6701C13.96 10.5601 13.76 10.4001 13.57 10.2401C13.5088 10.1955 13.4519 10.1453 13.4 10.0901C13.07 9.81011 12.7 9.45011 12.37 9.05011C12.34 9.03011 12.29 8.96011 12.22 8.87011C12.12 8.75011 11.95 8.55011 11.8 8.32011C11.6575 8.13203 11.5272 7.93495 11.41 7.73011C11.25 7.46011 11.11 7.19011 10.97 6.91011C10.9492 6.86533 10.9288 6.82033 10.909 6.77511C10.761 6.44211 10.326 6.34511 10.069 6.60211L4.34 12.3311C4.21 12.4611 4.09 12.7111 4.06 12.8811L3.52 16.7111C3.42 17.3911 3.61 18.0311 4.03 18.4611C4.39 18.8111 4.89 19.0011 5.43 19.0011C5.55 19.0011 5.67 18.9911 5.79 18.9711L9.63 18.4311C9.81 18.4011 10.06 18.2811 10.18 18.1511L15.902 12.4301C16.162 12.1701 16.063 11.7251 15.726 11.5801C15.6873 11.5635 15.6486 11.5469 15.61 11.5301Z" fill="black"/>
</svg>
