<svg width="24" height="24" viewBox="0 0 24 24" fill="none" xmlns="http://www.w3.org/2000/svg">
<g clip-path="url(#clip0_880_248)">
<path d="M3 3H21V21H3V3Z" fill="#ECEFF1"/>
<path d="M12 13.893L21 21V6.96899L12 13.893Z" fill="#CFD8DC"/>
<path d="M21.75 3H21L12 10.107L3 3H2.25C1.65326 3 1.08097 3.23705 0.65901 3.65901C0.237053 4.08097 0 4.65326 0 5.25L0 18.75C0 19.3467 0.237053 19.919 0.65901 20.341C1.08097 20.7629 1.65326 21 2.25 21H3V6.969L12 13.8915L21 6.9675V21H21.75C22.3467 21 22.919 20.7629 23.341 20.341C23.7629 19.919 24 19.3467 24 18.75V5.25C24 4.65326 23.7629 4.08097 23.341 3.65901C22.919 3.23705 22.3467 3 21.75 3Z" fill="#F44336"/>
</g>
<defs>
<clipPath id="clip0_880_248">
<rect width="24" height="24" fill="white"/>
</clipPath>
</defs>
</svg>
