<svg width="36" height="36" viewBox="0 0 36 36" fill="none" xmlns="http://www.w3.org/2000/svg">
<g clip-path="url(#clip0_880_252)">
<path d="M35.9811 18.3368C35.9811 16.8619 35.8586 15.7856 35.5936 14.6694H18.3586V21.3264H28.4751C28.2713 22.9808 27.1699 25.4722 24.7223 27.1463L24.6879 27.3692L30.1373 31.4945L30.5148 31.5313C33.9822 28.4021 35.9811 23.7979 35.9811 18.3368Z" fill="white"/>
<path d="M18.3587 35.8762C23.3149 35.8762 27.4757 34.2816 30.5149 31.5312L24.7223 27.1462C23.1722 28.2026 21.0917 28.94 18.3587 28.94C13.5044 28.94 9.38434 25.8109 7.91566 21.4858L7.70038 21.5037L2.03406 25.7889L1.95996 25.9902C4.97859 31.85 11.1791 35.8762 18.3587 35.8762Z" fill="white"/>
<path d="M7.91565 21.4859C7.52813 20.3698 7.30386 19.1738 7.30386 17.9382C7.30386 16.7023 7.52813 15.5065 7.89526 14.3904L7.885 14.1527L2.14767 9.79858L1.95995 9.88584C0.715833 12.3175 0.00195312 15.0481 0.00195312 17.9382C0.00195312 20.8282 0.715833 23.5587 1.95995 25.9903L7.91565 21.4859Z" fill="white"/>
<path d="M18.3587 6.93605C21.8056 6.93605 24.1307 8.39102 25.4565 9.60692L30.6372 4.66392C27.4555 1.77389 23.3149 0 18.3587 0C11.1791 0 4.97859 4.02609 1.95996 9.88585L7.89527 14.3904C9.38434 10.0653 13.5044 6.93605 18.3587 6.93605Z" fill="white"/>
</g>
<defs>
<clipPath id="clip0_880_252">
<rect width="36" height="36" fill="white"/>
</clipPath>
</defs>
</svg>
