<svg width="20" height="20" viewBox="0 0 20 20" fill="none" xmlns="http://www.w3.org/2000/svg">
<path d="M14.0333 3C12.525 3 11.175 3.73333 10.3333 4.85833C9.90344 4.28234 9.34521 3.81449 8.70294 3.49191C8.06068 3.16933 7.35206 3.0009 6.63333 3C4.075 3 2 5.08333 2 7.65833C2 8.65 2.15833 9.56667 2.43333 10.4167C3.75 14.5833 7.80833 17.075 9.81667 17.7583C10.1 17.8583 10.5667 17.8583 10.85 17.7583C12.8583 17.075 16.9167 14.5833 18.2333 10.4167C18.5083 9.56667 18.6667 8.65 18.6667 7.65833C18.6667 5.08333 16.5917 3 14.0333 3Z" fill="#4E4E4E"/>
</svg>
