
<svg width="24" height="24" viewBox="0 0 24 24" fill="none" xmlns="http://www.w3.org/2000/svg">
<path d="M19.3399 14.4899L18.3399 12.8299C18.1299 12.4599 17.9399 11.7599 17.9399 11.3499V8.81991C17.9387 7.70395 17.6216 6.61113 17.0252 5.66789C16.4288 4.72465 15.5776 3.96953 14.5699 3.48992C14.3128 3.03326 13.9376 2.65406 13.4838 2.39195C13.0299 2.12984 12.514 1.99445 11.9899 1.99992C10.8999 1.99992 9.91994 2.58992 9.39994 3.51992C7.44994 4.48992 6.09994 6.49991 6.09994 8.81991V11.3499C6.09994 11.7599 5.90994 12.4599 5.69994 12.8199L4.68994 14.4899C4.28994 15.1599 4.19994 15.8999 4.44994 16.5799C4.68994 17.2499 5.25994 17.7699 5.99994 18.0199C7.93994 18.6799 9.97994 18.9999 12.0199 18.9999C14.0599 18.9999 16.0999 18.6799 18.0399 18.0299C18.7399 17.7999 19.2799 17.2699 19.5399 16.5799C19.7999 15.8899 19.7299 15.1299 19.3399 14.4899ZM14.8299 20.0099C14.6196 20.5921 14.2352 21.0954 13.7289 21.4514C13.2226 21.8074 12.6189 21.9989 11.9999 21.9999C11.2099 21.9999 10.4299 21.6799 9.87994 21.1099C9.55994 20.8099 9.31994 20.4099 9.17994 19.9999C9.30994 20.0199 9.43994 20.0299 9.57994 20.0499C9.80994 20.0799 10.0499 20.1099 10.2899 20.1299C10.8599 20.1799 11.4399 20.2099 12.0199 20.2099C12.5899 20.2099 13.1599 20.1799 13.7199 20.1299C13.9299 20.1099 14.1399 20.0999 14.3399 20.0699L14.8299 20.0099Z" fill="#1E1E1E"/>
</svg>
