<svg width="28" height="28" viewBox="0 0 28 28" fill="none" xmlns="http://www.w3.org/2000/svg">
<circle cx="14" cy="14" r="14" fill="black" fill-opacity="0.5"/>
<path d="M14 16.5C14.663 16.5 15.2989 16.2366 15.7678 15.7678C16.2366 15.2989 16.5 14.663 16.5 14C16.5 13.337 16.2366 12.7011 15.7678 12.2322C15.2989 11.7634 14.663 11.5 14 11.5C13.337 11.5 12.7011 11.7634 12.2322 12.2322C11.7634 12.7011 11.5 13.337 11.5 14C11.5 14.663 11.7634 15.2989 12.2322 15.7678C12.7011 16.2366 13.337 16.5 14 16.5Z" stroke="white" stroke-miterlimit="10" stroke-linecap="round" stroke-linejoin="round"/>
<path d="M5.66675 14.7334V13.2667C5.66675 12.4 6.37508 11.6834 7.25008 11.6834C8.75841 11.6834 9.37508 10.6167 8.61675 9.30836C8.18341 8.55836 8.44175 7.58336 9.20008 7.15003L10.6417 6.32503C11.3001 5.93336 12.1501 6.1667 12.5417 6.82503L12.6334 6.98336C13.3834 8.2917 14.6167 8.2917 15.3751 6.98336L15.4667 6.82503C15.8584 6.1667 16.7084 5.93336 17.3667 6.32503L18.8084 7.15003C19.5667 7.58336 19.8251 8.55836 19.3917 9.30836C18.6334 10.6167 19.2501 11.6834 20.7584 11.6834C21.6251 11.6834 22.3417 12.3917 22.3417 13.2667V14.7334C22.3417 15.6 21.6334 16.3167 20.7584 16.3167C19.2501 16.3167 18.6334 17.3834 19.3917 18.6917C19.8251 19.45 19.5667 20.4167 18.8084 20.85L17.3667 21.675C16.7084 22.0667 15.8584 21.8334 15.4667 21.175L15.3751 21.0167C14.6251 19.7084 13.3917 19.7084 12.6334 21.0167L12.5417 21.175C12.1501 21.8334 11.3001 22.0667 10.6417 21.675L9.20008 20.85C8.83683 20.6409 8.5714 20.2961 8.46204 19.8915C8.35267 19.4869 8.40831 19.0554 8.61675 18.6917C9.37508 17.3834 8.75841 16.3167 7.25008 16.3167C6.37508 16.3167 5.66675 15.6 5.66675 14.7334Z" stroke="white" stroke-miterlimit="10" stroke-linecap="round" stroke-linejoin="round"/>
</svg>
