<svg width="24" height="24" viewBox="0 0 24 24" fill="none" xmlns="http://www.w3.org/2000/svg">
<g clip-path="url(#clip0_953_253)">
<path d="M12 0C5.388 0 0 5.388 0 12C0 18.612 5.388 24 12 24C18.612 24 24 18.612 24 12C24 5.388 18.612 0 12 0ZM17.736 9.24L10.932 16.044C10.7632 16.2125 10.5345 16.3072 10.296 16.3072C10.0575 16.3072 9.82875 16.2125 9.66 16.044L6.264 12.648C6.09662 12.4786 6.00276 12.2501 6.00276 12.012C6.00276 11.7739 6.09662 11.5454 6.264 11.376C6.612 11.028 7.188 11.028 7.536 11.376L10.296 14.136L16.464 7.968C16.812 7.62 17.388 7.62 17.736 7.968C18.084 8.316 18.084 8.88 17.736 9.24Z" fill="#00B386"/>
</g>
<defs>
<clipPath id="clip0_953_253">
<rect width="24" height="24" fill="white"/>
</clipPath>
</defs>
</svg>
