<svg width="36" height="36" viewBox="0 0 36 36" fill="none" xmlns="http://www.w3.org/2000/svg">
<path d="M32.97 17.1149C32.46 8.41494 24.555 1.70994 15.45 3.20994C9.18002 4.24494 4.15502 9.32994 3.18002 15.5999C2.61002 19.2299 3.36002 22.6649 4.99502 25.4999L3.66002 30.4649C3.36002 31.5899 4.39502 32.6099 5.50502 32.2949L10.395 30.9449C12.615 32.2499 15.21 32.9999 17.985 32.9999C26.445 32.9999 33.465 25.5449 32.97 17.1149ZM25.32 23.5799C24.9583 24.322 24.3402 24.9081 23.58 25.2299C23.13 25.4249 22.635 25.5149 22.11 25.5149C21.345 25.5149 20.52 25.3349 19.665 24.9599C18.7538 24.5598 17.8887 24.0619 17.085 23.4749C16.215 22.8449 15.405 22.1399 14.625 21.3749C13.845 20.5949 13.155 19.7699 12.525 18.9149C11.91 18.0599 11.415 17.2049 11.055 16.3499C10.695 15.4949 10.515 14.6699 10.515 13.8899C10.515 13.3799 10.605 12.8849 10.785 12.4349C10.965 11.9699 11.25 11.5499 11.655 11.1749C12.135 10.6949 12.66 10.4699 13.215 10.4699C13.425 10.4699 13.635 10.5149 13.83 10.6049C14.025 10.6949 14.205 10.8299 14.34 11.0249L16.08 13.4849C16.215 13.6799 16.32 13.8449 16.38 14.0099C16.455 14.1749 16.485 14.3249 16.485 14.4749C16.485 14.6549 16.425 14.8349 16.32 15.0149C16.215 15.1949 16.08 15.3749 15.9 15.5549L15.33 16.1549C15.24 16.2449 15.21 16.3349 15.21 16.4549C15.21 16.5149 15.225 16.5749 15.24 16.6349C15.27 16.6949 15.285 16.7399 15.3 16.7849C15.435 17.0399 15.675 17.3549 16.005 17.7449C16.7073 18.5702 17.4748 19.3377 18.3 20.0399C18.69 20.3699 19.02 20.5949 19.275 20.7299C19.32 20.7449 19.365 20.7749 19.41 20.7899C19.47 20.8199 19.53 20.8199 19.605 20.8199C19.74 20.8199 19.83 20.7749 19.92 20.6849L20.49 20.1149C20.685 19.9199 20.865 19.7849 21.03 19.6949C21.21 19.5899 21.375 19.5299 21.57 19.5299C21.72 19.5299 21.87 19.5599 22.035 19.6349C22.2 19.7099 22.38 19.7999 22.56 19.9349L25.05 21.7049C25.245 21.8399 25.38 22.0049 25.47 22.1849C25.545 22.3799 25.59 22.5599 25.59 22.7699C25.5 23.0249 25.44 23.3099 25.32 23.5799V23.5799Z" fill="white"/>
</svg>
