<?xml version="1.0" encoding="utf-8"?>
<!-- Generator: Adobe Illustrator 27.1.1, SVG Export Plug-In . SVG Version: 6.00 Build 0)  -->
<svg version="1.1" id="Layer_1" xmlns="http://www.w3.org/2000/svg" xmlns:xlink="http://www.w3.org/1999/xlink" x="0px" y="0px"
	 viewBox="0 0 500 500" style="enable-background:new 0 0 500 500;" xml:space="preserve">
<style type="text/css">
	.st0{fill:url(#SVGID_1_);}
	.st1{opacity:0.5;fill:#BC7219;}
	.st2{opacity:0.47;fill:#FFFFFF;}
	.st3{opacity:0.22;fill:#FFFFFF;}
	.st4{fill:#FFFFFF;}
	.st5{opacity:0.55;fill:url(#SVGID_00000041991166481968598820000001903687343761005753_);}
	.st6{opacity:0.55;fill:#FAD70A;}
	.st7{opacity:0.55;fill:url(#SVGID_00000023966603613188798470000011445262114818512768_);}
</style>
<g>
	<g>
		<linearGradient id="SVGID_1_" gradientUnits="userSpaceOnUse" x1="249.3868" y1="-2.0486" x2="250.7414" y2="458.567">
			<stop  offset="0" style="stop-color:#FCEA0D"/>
			<stop  offset="1" style="stop-color:#F29F00"/>
		</linearGradient>
		<path class="st0" d="M273.98,53.17l47.65,96.55c3.89,7.9,11.43,13.37,20.14,14.63l106.55,15.49c21.94,3.19,30.7,30.15,14.82,45.62
			l-77.1,75.16c-6.3,6.14-9.18,15-7.69,23.67l18.2,106.12c3.75,21.85-19.19,38.52-38.81,28.2l-95.3-50.1c-7.79-4.1-17.1-4.1-24.89,0
			l-95.3,50.1c-19.62,10.32-42.55-6.34-38.81-28.2l18.2-106.12c1.49-8.68-1.39-17.53-7.69-23.67l-77.1-75.16
			c-15.87-15.47-7.12-42.44,14.82-45.62l106.55-15.49c8.71-1.26,16.24-6.74,20.14-14.63l47.65-96.55
			C235.83,33.29,264.17,33.29,273.98,53.17z"/>
		<path class="st1" d="M226.02,53.17l-47.65,96.55c-2.47,5-6.4,9.02-11.15,11.62c11.85-2.48,20.29-6.45,23.06-13.81
			c4.49-11.97,22.43-62.07,37.99-91.37c6.7-12.62,15.56-16.97,23.49-17.85C241.64,37.68,231.22,42.63,226.02,53.17z"/>
		<path class="st1" d="M396.56,430.41l-2.59-15.1c2.02,21.62,2.74,32.03-10.01,34.35c-16.45,2.99-77.03-38.14-98.71-52.35
			c-21.69-14.21-40.04-12.79-95.38,21.61c-55.34,34.4-64.61,34.38-73.77,18.87c-11.15-18.87,25.57-110.03,17.34-135.46
			c-8.23-25.43-94.23-81.51-95.72-102.45c-0.93-13.06,10.65-18.56,19.49-20.84l-5.53,0.8c-21.94,3.19-30.7,30.15-14.82,45.62
			l77.1,75.16c6.3,6.14,9.18,15,7.69,23.67l-18.2,106.12c-3.75,21.85,19.19,38.52,38.81,28.2l95.3-50.1c7.79-4.1,17.1-4.1,24.89,0
			l95.3,50.1C377.37,468.92,400.3,452.26,396.56,430.41z"/>
		<path class="st1" d="M462.3,186.3c3.22,7.41,5.67,19.65-3.56,33.02c-14.96,21.68-80.02,75.53-82.26,83.76
			c-0.8,2.94,0.02,8.94,1.51,15.88c0.21-6.86,3.04-13.46,8.05-18.34l77.1-75.16C474.99,213.92,473.12,195.98,462.3,186.3z"/>
	</g>
	<path class="st1" d="M54.27,228.63c-1.3-1.18-3.29-1.44-4.69-0.39c-1.76,1.31-2.11,4.45,6.34,12.01
		c14.5,12.94,53.83,55.38,63.67,64.18c9.84,8.8,13.98,1.04-0.52-14.5C106.02,275.96,62.77,236.4,54.27,228.63z"/>
	<path class="st2" d="M320.5,165.76c19.63,16.17,89.01,15.73,110.95,19.2c21.94,3.46-69.6,7.9-106.55,0.97
		c-36.95-6.93-45.06-41.34-56.61-75.97c-11.55-34.64-17.07-57.35-26.31-44.65c-9.24,12.7-0.9-16.06,10.55-17.93
		C281.01,42.72,300.87,149.6,320.5,165.76z"/>
	<path class="st3" d="M118.86,418.28c0,0-6.11,27.54,33.43,13.77c39.54-13.77,81.64-41.84,62-34.82
		c-19.65,7.02-51.93,22.45-68.77,19.65C128.68,414.07,117.46,409.86,118.86,418.28z"/>
	<path class="st4" d="M278.26,94.12c0,0-4,4,3.2,24.78c7.19,20.78,18.38,42.36,23.18,33.57C309.43,143.68,285.46,84.53,278.26,94.12
		z"/>
	<path class="st4" d="M274.38,74.57c2.36,5.47,1.65,11.04-1.59,12.44c-3.24,1.4-7.79-1.9-10.15-7.37
		c-2.36-5.47-1.65-11.04,1.59-12.44C267.47,65.8,272.01,69.1,274.38,74.57z"/>
	
		<linearGradient id="SVGID_00000005254064084447789680000004254481535774496941_" gradientUnits="userSpaceOnUse" x1="105.3197" y1="447.2537" x2="142.084" y2="447.2537">
		<stop  offset="0" style="stop-color:#FCEA0D"/>
		<stop  offset="1" style="stop-color:#F29F00"/>
	</linearGradient>
	<path style="opacity:0.55;fill:url(#SVGID_00000005254064084447789680000004254481535774496941_);" d="M116.09,437.79
		c-0.78-1.32-1.32-3.02-1.67-5.01c-2.26,4.46-5.26,9.32-9.11,13.03c4.4,9.82,14.59,16.35,25.53,15.91
		c3.19-5.45,7.39-11.45,11.24-16.62C127,450.73,121.53,446.98,116.09,437.79z"/>
	<path class="st6" d="M37.71,199.88c-0.93-13.06,10.65-18.56,19.49-20.84l-5.53,0.8c-13.62,1.98-22.15,13.11-22.87,24.98
		c3.04-5.3,6.43-5.07,9.2-3.28C37.85,200.96,37.75,200.41,37.71,199.88z"/>
	<path class="st1" d="M280.4,406.59c0,0-13.46,0,7.13,11.88c20.59,11.88,43.16,24.55,47.51,19.4
		C339.4,432.72,286.34,407.38,280.4,406.59z"/>
	
		<linearGradient id="SVGID_00000165214604492386932630000000550576343114224003_" gradientUnits="userSpaceOnUse" x1="344.6501" y1="445.2405" x2="396.9632" y2="445.2405">
		<stop  offset="0" style="stop-color:#FCEA0D"/>
		<stop  offset="1" style="stop-color:#F29F00"/>
	</linearGradient>
	<path style="opacity:0.55;fill:url(#SVGID_00000165214604492386932630000000550576343114224003_);" d="M383.96,449.66
		c-5.18,0.94-14.72-2.49-26.04-8.07c-2.21,4.64-7.4,7.88-13.27,10.13l13.1,6.88c19.62,10.32,42.56-6.34,38.81-28.2l-0.23-1.33
		c-0.44-0.11-0.88-0.23-1.32-0.33C395.57,441.36,393.7,447.88,383.96,449.66z"/>
</g>
</svg>
