<svg width="313" height="136" viewBox="0 0 313 136" fill="none" xmlns="http://www.w3.org/2000/svg">
<path d="M0.526367 96.4547H3.50222L7.06046 102.889H7.2025L10.7607 96.4547H13.7366L8.4454 105.574V111H5.81756V105.574L0.526367 96.4547Z" fill="#D6DCE8"/>
<path d="M27.7796 103.727C27.7796 105.295 27.486 106.637 26.8989 107.754C26.3165 108.867 25.521 109.719 24.5125 110.311C23.5087 110.903 22.37 111.199 21.0963 111.199C19.8227 111.199 18.6816 110.903 17.673 110.311C16.6692 109.715 15.8738 108.86 15.2867 107.747C14.7043 106.63 14.4131 105.29 14.4131 103.727C14.4131 102.16 14.7043 100.82 15.2867 99.7076C15.8738 98.5901 16.6692 97.7355 17.673 97.1436C18.6816 96.5518 19.8227 96.2559 21.0963 96.2559C22.37 96.2559 23.5087 96.5518 24.5125 97.1436C25.521 97.7355 26.3165 98.5901 26.8989 99.7076C27.486 100.82 27.7796 102.16 27.7796 103.727ZM25.1304 103.727C25.1304 102.624 24.9576 101.694 24.612 100.936C24.271 100.174 23.7976 99.5987 23.1915 99.2104C22.5854 98.8174 21.887 98.6209 21.0963 98.6209C20.3056 98.6209 19.6072 98.8174 19.0012 99.2104C18.3951 99.5987 17.9192 100.174 17.5736 100.936C17.2327 101.694 17.0622 102.624 17.0622 103.727C17.0622 104.831 17.2327 105.763 17.5736 106.526C17.9192 107.283 18.3951 107.859 19.0012 108.252C19.6072 108.64 20.3056 108.834 21.0963 108.834C21.887 108.834 22.5854 108.64 23.1915 108.252C23.7976 107.859 24.271 107.283 24.612 106.526C24.9576 105.763 25.1304 104.831 25.1304 103.727Z" fill="#D6DCE8"/>
<path d="M39.4397 96.4547H42.0747V105.958C42.0747 106.999 41.8284 107.915 41.336 108.706C40.8483 109.497 40.1618 110.115 39.2764 110.56C38.391 111 37.3564 111.22 36.1727 111.22C34.9842 111.22 33.9473 111 33.0619 110.56C32.1765 110.115 31.4899 109.497 31.0022 108.706C30.5145 107.915 30.2707 106.999 30.2707 105.958V96.4547H32.9056V105.737C32.9056 106.343 33.0382 106.883 33.3034 107.357C33.5732 107.83 33.952 108.202 34.4397 108.472C34.9274 108.737 35.5051 108.869 36.1727 108.869C36.8403 108.869 37.4179 108.737 37.9056 108.472C38.3981 108.202 38.7768 107.83 39.042 107.357C39.3071 106.883 39.4397 106.343 39.4397 105.737V96.4547Z" fill="#D6DCE8"/>
<path d="M52.9607 111L48.8556 96.4547H51.6894L54.3101 107.144H54.445L57.2433 96.4547H59.8215L62.6269 107.151H62.7547L65.3755 96.4547H68.2093L64.1041 111H61.5047L58.5928 100.794H58.4791L55.5601 111H52.9607Z" fill="#D6DCE8"/>
<path d="M72.6713 96.4547V111H70.0363V96.4547H72.6713Z" fill="#D6DCE8"/>
<path d="M75.5246 111V96.4547H78.1595V108.791H84.5658V111H75.5246Z" fill="#D6DCE8"/>
<path d="M86.8527 111V96.4547H89.4877V108.791H95.8939V111H86.8527Z" fill="#D6DCE8"/>
<path d="M111.047 100.453C110.98 99.833 110.701 99.3501 110.209 99.0044C109.721 98.6588 109.086 98.486 108.305 98.486C107.756 98.486 107.285 98.5688 106.892 98.7346C106.499 98.9003 106.198 99.1252 105.99 99.4093C105.781 99.6934 105.675 100.018 105.67 100.382C105.67 100.685 105.739 100.948 105.876 101.171C106.018 101.393 106.21 101.583 106.451 101.739C106.693 101.89 106.96 102.018 107.254 102.122C107.548 102.227 107.843 102.314 108.142 102.385L109.505 102.726C110.055 102.854 110.583 103.027 111.089 103.244C111.601 103.462 112.057 103.737 112.46 104.068C112.867 104.4 113.189 104.8 113.426 105.269C113.663 105.737 113.781 106.287 113.781 106.916C113.781 107.769 113.563 108.519 113.128 109.168C112.692 109.812 112.062 110.316 111.238 110.681C110.419 111.04 109.427 111.22 108.263 111.22C107.131 111.22 106.148 111.045 105.315 110.695C104.486 110.344 103.838 109.833 103.369 109.161C102.905 108.488 102.654 107.669 102.616 106.703H105.209C105.246 107.21 105.403 107.631 105.677 107.968C105.952 108.304 106.309 108.555 106.75 108.72C107.195 108.886 107.692 108.969 108.241 108.969C108.814 108.969 109.316 108.884 109.747 108.713C110.183 108.538 110.523 108.297 110.77 107.989C111.016 107.676 111.141 107.312 111.146 106.895C111.141 106.516 111.03 106.204 110.812 105.958C110.594 105.707 110.289 105.498 109.896 105.333C109.508 105.162 109.053 105.011 108.532 104.878L106.878 104.452C105.68 104.144 104.733 103.678 104.037 103.053C103.345 102.423 103 101.587 103 100.546C103 99.6886 103.232 98.9382 103.696 98.2942C104.165 97.6503 104.801 97.1507 105.606 96.7956C106.411 96.4358 107.323 96.2559 108.341 96.2559C109.373 96.2559 110.277 96.4358 111.054 96.7956C111.835 97.1507 112.448 97.6455 112.893 98.28C113.338 98.9097 113.568 99.6342 113.582 100.453H111.047Z" fill="#D6DCE8"/>
<path d="M116.13 111V96.4547H125.59V98.6635H118.765V102.612H125.1V104.821H118.765V108.791H125.647V111H116.13Z" fill="#D6DCE8"/>
<path d="M128.279 111V96.4547H137.739V98.6635H130.913V102.612H137.249V104.821H130.913V108.791H137.796V111H128.279Z" fill="#D6DCE8"/>
<path d="M144.394 96.4547H147.369L150.928 102.889H151.07L154.628 96.4547H157.604L152.313 105.574V111H149.685V105.574L144.394 96.4547Z" fill="#D6DCE8"/>
<path d="M171.647 103.727C171.647 105.295 171.353 106.637 170.766 107.754C170.184 108.867 169.388 109.719 168.38 110.311C167.376 110.903 166.237 111.199 164.964 111.199C163.69 111.199 162.549 110.903 161.54 110.311C160.536 109.715 159.741 108.86 159.154 107.747C158.571 106.63 158.28 105.29 158.28 103.727C158.28 102.16 158.571 100.82 159.154 99.7076C159.741 98.5901 160.536 97.7355 161.54 97.1436C162.549 96.5518 163.69 96.2559 164.964 96.2559C166.237 96.2559 167.376 96.5518 168.38 97.1436C169.388 97.7355 170.184 98.5901 170.766 99.7076C171.353 100.82 171.647 102.16 171.647 103.727ZM168.998 103.727C168.998 102.624 168.825 101.694 168.479 100.936C168.138 100.174 167.665 99.5987 167.059 99.2104C166.453 98.8174 165.754 98.6209 164.964 98.6209C164.173 98.6209 163.474 98.8174 162.868 99.2104C162.262 99.5987 161.786 100.174 161.441 100.936C161.1 101.694 160.929 102.624 160.929 103.727C160.929 104.831 161.1 105.763 161.441 106.526C161.786 107.283 162.262 107.859 162.868 108.252C163.474 108.64 164.173 108.834 164.964 108.834C165.754 108.834 166.453 108.64 167.059 108.252C167.665 107.859 168.138 107.283 168.479 106.526C168.825 105.763 168.998 104.831 168.998 103.727Z" fill="#D6DCE8"/>
<path d="M183.307 96.4547H185.942V105.958C185.942 106.999 185.696 107.915 185.203 108.706C184.716 109.497 184.029 110.115 183.144 110.56C182.258 111 181.224 111.22 180.04 111.22C178.851 111.22 177.814 111 176.929 110.56C176.044 110.115 175.357 109.497 174.869 108.706C174.382 107.915 174.138 106.999 174.138 105.958V96.4547H176.773V105.737C176.773 106.343 176.905 106.883 177.171 107.357C177.44 107.83 177.819 108.202 178.307 108.472C178.795 108.737 179.372 108.869 180.04 108.869C180.707 108.869 181.285 108.737 181.773 108.472C182.265 108.202 182.644 107.83 182.909 107.357C183.174 106.883 183.307 106.343 183.307 105.737V96.4547Z" fill="#D6DCE8"/>
<path d="M188.806 111V96.4547H194.26C195.378 96.4547 196.315 96.6489 197.073 97.0371C197.835 97.4254 198.41 97.9699 198.799 98.6706C199.192 99.3667 199.388 100.179 199.388 101.107C199.388 102.039 199.189 102.849 198.792 103.536C198.399 104.218 197.819 104.745 197.052 105.119C196.285 105.489 195.342 105.673 194.225 105.673H190.34V103.486H193.87C194.523 103.486 195.058 103.396 195.475 103.216C195.892 103.031 196.199 102.764 196.398 102.414C196.602 102.058 196.704 101.623 196.704 101.107C196.704 100.591 196.602 100.15 196.398 99.7857C196.195 99.4164 195.884 99.137 195.468 98.9476C195.051 98.7535 194.514 98.6564 193.856 98.6564H191.441V111H188.806ZM196.32 104.409L199.921 111H196.981L193.444 104.409H196.32Z" fill="#D6DCE8"/>
<path d="M215.944 96.4547H218.579V105.958C218.579 106.999 218.332 107.915 217.84 108.706C217.352 109.497 216.666 110.115 215.78 110.56C214.895 111 213.86 111.22 212.677 111.22C211.488 111.22 210.451 111 209.566 110.56C208.68 110.115 207.994 109.497 207.506 108.706C207.018 107.915 206.775 106.999 206.775 105.958V96.4547H209.41V105.737C209.41 106.343 209.542 106.883 209.807 107.357C210.077 107.83 210.456 108.202 210.944 108.472C211.431 108.737 212.009 108.869 212.677 108.869C213.344 108.869 213.922 108.737 214.41 108.472C214.902 108.202 215.281 107.83 215.546 107.357C215.811 106.883 215.944 106.343 215.944 105.737V96.4547Z" fill="#D6DCE8"/>
<path d="M221.443 111V96.4547H226.897C228.015 96.4547 228.952 96.6631 229.71 97.0797C230.472 97.4964 231.047 98.0693 231.435 98.7985C231.828 99.5229 232.025 100.347 232.025 101.27C232.025 102.203 231.828 103.031 231.435 103.756C231.042 104.48 230.462 105.051 229.695 105.468C228.928 105.879 227.984 106.085 226.862 106.085H223.247V103.919H226.506C227.16 103.919 227.695 103.806 228.112 103.578C228.528 103.351 228.836 103.039 229.035 102.641C229.238 102.243 229.34 101.786 229.34 101.27C229.34 100.754 229.238 100.299 229.035 99.9064C228.836 99.5134 228.526 99.208 228.104 98.9902C227.688 98.7677 227.15 98.6564 226.492 98.6564H224.077V111H221.443Z" fill="#D6DCE8"/>
<path d="M234.314 111V96.4547H236.949V108.791H243.355V111H234.314Z" fill="#D6DCE8"/>
<path d="M258.073 103.727C258.073 105.295 257.779 106.637 257.192 107.754C256.609 108.867 255.814 109.719 254.805 110.311C253.802 110.903 252.663 111.199 251.389 111.199C250.116 111.199 248.975 110.903 247.966 110.311C246.962 109.715 246.167 108.86 245.58 107.747C244.997 106.63 244.706 105.29 244.706 103.727C244.706 102.16 244.997 100.82 245.58 99.7076C246.167 98.5901 246.962 97.7355 247.966 97.1436C248.975 96.5518 250.116 96.2559 251.389 96.2559C252.663 96.2559 253.802 96.5518 254.805 97.1436C255.814 97.7355 256.609 98.5901 257.192 99.7076C257.779 100.82 258.073 102.16 258.073 103.727ZM255.423 103.727C255.423 102.624 255.251 101.694 254.905 100.936C254.564 100.174 254.091 99.5987 253.484 99.2104C252.878 98.8174 252.18 98.6209 251.389 98.6209C250.599 98.6209 249.9 98.8174 249.294 99.2104C248.688 99.5987 248.212 100.174 247.867 100.936C247.526 101.694 247.355 102.624 247.355 103.727C247.355 104.831 247.526 105.763 247.867 106.526C248.212 107.283 248.688 107.859 249.294 108.252C249.9 108.64 250.599 108.834 251.389 108.834C252.18 108.834 252.878 108.64 253.484 108.252C254.091 107.859 254.564 107.283 254.905 106.526C255.251 105.763 255.423 104.831 255.423 103.727Z" fill="#D6DCE8"/>
<path d="M261.65 111H258.838L263.959 96.4547H267.211L272.339 111H269.527L265.642 99.4377H265.528L261.65 111ZM261.743 105.297H269.413V107.414H261.743V105.297Z" fill="#D6DCE8"/>
<path d="M279.184 111H274.255V96.4547H279.283C280.728 96.4547 281.968 96.7459 283.005 97.3283C284.047 97.906 284.847 98.7369 285.406 99.8212C285.964 100.905 286.244 102.203 286.244 103.713C286.244 105.228 285.962 106.53 285.399 107.619C284.84 108.709 284.033 109.544 282.977 110.127C281.926 110.709 280.661 111 279.184 111ZM276.89 108.72H279.056C280.069 108.72 280.915 108.536 281.592 108.166C282.269 107.792 282.778 107.236 283.119 106.497C283.46 105.754 283.63 104.826 283.63 103.713C283.63 102.601 283.46 101.677 283.119 100.943C282.778 100.205 282.274 99.6531 281.606 99.2885C280.943 98.9192 280.119 98.7346 279.134 98.7346H276.89V108.72Z" fill="#D6DCE8"/>
<path d="M288.747 111V96.4547H298.207V98.6635H291.382V102.612H297.717V104.821H291.382V108.791H298.264V111H288.747Z" fill="#D6DCE8"/>
<path d="M305.825 111H300.896V96.4547H305.924C307.368 96.4547 308.609 96.7459 309.646 97.3283C310.687 97.906 311.488 98.7369 312.046 99.8212C312.605 100.905 312.884 102.203 312.884 103.713C312.884 105.228 312.603 106.53 312.039 107.619C311.48 108.709 310.673 109.544 309.617 110.127C308.566 110.709 307.302 111 305.825 111ZM303.531 108.72H305.697C306.71 108.72 307.555 108.536 308.232 108.166C308.909 107.792 309.418 107.236 309.759 106.497C310.1 105.754 310.271 104.826 310.271 103.713C310.271 102.601 310.1 101.677 309.759 100.943C309.418 100.205 308.914 99.6531 308.247 99.2885C307.584 98.9192 306.76 98.7346 305.775 98.7346H303.531V108.72Z" fill="#D6DCE8"/>
<path d="M90.5441 135V120.455H95.9987C97.1161 120.455 98.0536 120.663 98.8112 121.08C99.5735 121.496 100.149 122.069 100.537 122.798C100.93 123.523 101.127 124.347 101.127 125.27C101.127 126.203 100.93 127.031 100.537 127.756C100.144 128.48 99.564 129.051 98.797 129.468C98.0299 129.879 97.0853 130.085 95.9632 130.085H92.3481V127.919H95.608C96.2615 127.919 96.7965 127.806 97.2132 127.578C97.6298 127.351 97.9376 127.039 98.1365 126.641C98.3401 126.243 98.4419 125.786 98.4419 125.27C98.4419 124.754 98.3401 124.299 98.1365 123.906C97.9376 123.513 97.6275 123.208 97.2061 122.99C96.7894 122.768 96.252 122.656 95.5938 122.656H93.1791V135H90.5441Z" fill="#D6DCE8"/>
<path d="M103.415 135V120.455H106.05V126.612H112.79V120.455H115.432V135H112.79V128.821H106.05V135H103.415Z" fill="#D6DCE8"/>
<path d="M131.295 127.727C131.295 129.295 131.002 130.637 130.415 131.754C129.832 132.867 129.037 133.719 128.028 134.311C127.024 134.903 125.886 135.199 124.612 135.199C123.338 135.199 122.197 134.903 121.189 134.311C120.185 133.715 119.389 132.86 118.802 131.747C118.22 130.63 117.929 129.29 117.929 127.727C117.929 126.16 118.22 124.82 118.802 123.708C119.389 122.59 120.185 121.735 121.189 121.144C122.197 120.552 123.338 120.256 124.612 120.256C125.886 120.256 127.024 120.552 128.028 121.144C129.037 121.735 129.832 122.59 130.415 123.708C131.002 124.82 131.295 126.16 131.295 127.727ZM128.646 127.727C128.646 126.624 128.473 125.694 128.128 124.936C127.787 124.174 127.313 123.599 126.707 123.21C126.101 122.817 125.403 122.621 124.612 122.621C123.821 122.621 123.123 122.817 122.517 123.21C121.911 123.599 121.435 124.174 121.089 124.936C120.748 125.694 120.578 126.624 120.578 127.727C120.578 128.831 120.748 129.763 121.089 130.526C121.435 131.283 121.911 131.859 122.517 132.252C123.123 132.64 123.821 132.834 124.612 132.834C125.403 132.834 126.101 132.64 126.707 132.252C127.313 131.859 127.787 131.283 128.128 130.526C128.473 129.763 128.646 128.831 128.646 127.727Z" fill="#D6DCE8"/>
<path d="M132.503 122.664V120.455H144.108V122.664H139.612V135H136.998V122.664H132.503Z" fill="#D6DCE8"/>
<path d="M158.698 127.727C158.698 129.295 158.404 130.637 157.817 131.754C157.234 132.867 156.439 133.719 155.43 134.311C154.427 134.903 153.288 135.199 152.014 135.199C150.741 135.199 149.6 134.903 148.591 134.311C147.587 133.715 146.792 132.86 146.205 131.747C145.622 130.63 145.331 129.29 145.331 127.727C145.331 126.16 145.622 124.82 146.205 123.708C146.792 122.59 147.587 121.735 148.591 121.144C149.6 120.552 150.741 120.256 152.014 120.256C153.288 120.256 154.427 120.552 155.43 121.144C156.439 121.735 157.234 122.59 157.817 123.708C158.404 124.82 158.698 126.16 158.698 127.727ZM156.048 127.727C156.048 126.624 155.876 125.694 155.53 124.936C155.189 124.174 154.716 123.599 154.109 123.21C153.503 122.817 152.805 122.621 152.014 122.621C151.224 122.621 150.525 122.817 149.919 123.21C149.313 123.599 148.837 124.174 148.492 124.936C148.151 125.694 147.98 126.624 147.98 127.727C147.98 128.831 148.151 129.763 148.492 130.526C148.837 131.283 149.313 131.859 149.919 132.252C150.525 132.64 151.224 132.834 152.014 132.834C152.805 132.834 153.503 132.64 154.109 132.252C154.716 131.859 155.189 131.283 155.53 130.526C155.876 129.763 156.048 128.831 156.048 127.727Z" fill="#D6DCE8"/>
<path d="M169.093 124.453C169.027 123.833 168.748 123.35 168.255 123.004C167.768 122.659 167.133 122.486 166.352 122.486C165.803 122.486 165.332 122.569 164.939 122.735C164.546 122.9 164.245 123.125 164.037 123.409C163.828 123.693 163.722 124.018 163.717 124.382C163.717 124.685 163.786 124.948 163.923 125.171C164.065 125.393 164.257 125.583 164.498 125.739C164.74 125.89 165.007 126.018 165.301 126.122C165.594 126.227 165.89 126.314 166.189 126.385L167.552 126.726C168.102 126.854 168.629 127.027 169.136 127.244C169.647 127.462 170.104 127.737 170.507 128.068C170.914 128.4 171.236 128.8 171.473 129.269C171.709 129.737 171.828 130.287 171.828 130.916C171.828 131.769 171.61 132.519 171.174 133.168C170.739 133.812 170.109 134.316 169.285 134.681C168.466 135.04 167.474 135.22 166.309 135.22C165.178 135.22 164.195 135.045 163.362 134.695C162.533 134.344 161.885 133.833 161.416 133.161C160.952 132.488 160.701 131.669 160.663 130.703H163.255C163.293 131.21 163.45 131.631 163.724 131.968C163.999 132.304 164.356 132.555 164.797 132.72C165.242 132.886 165.739 132.969 166.288 132.969C166.861 132.969 167.363 132.884 167.794 132.713C168.229 132.538 168.57 132.297 168.816 131.989C169.063 131.676 169.188 131.312 169.193 130.895C169.188 130.516 169.077 130.204 168.859 129.958C168.641 129.707 168.336 129.498 167.943 129.333C167.555 129.162 167.1 129.011 166.579 128.878L164.924 128.452C163.727 128.144 162.78 127.678 162.084 127.053C161.392 126.423 161.047 125.587 161.047 124.546C161.047 123.689 161.279 122.938 161.743 122.294C162.211 121.65 162.848 121.151 163.653 120.796C164.458 120.436 165.37 120.256 166.388 120.256C167.42 120.256 168.324 120.436 169.101 120.796C169.882 121.151 170.495 121.646 170.94 122.28C171.385 122.91 171.615 123.634 171.629 124.453H169.093Z" fill="#D6DCE8"/>
<path d="M179.138 135V120.455H181.773V126.612H188.513V120.455H191.155V135H188.513V128.821H181.773V135H179.138Z" fill="#D6DCE8"/>
<path d="M194.021 135V120.455H203.481V122.664H196.656V126.612H202.991V128.821H196.656V132.791H203.538V135H194.021Z" fill="#D6DCE8"/>
<path d="M206.169 135V120.455H211.624C212.741 120.455 213.679 120.649 214.436 121.037C215.198 121.425 215.774 121.97 216.162 122.671C216.555 123.367 216.752 124.179 216.752 125.107C216.752 126.039 216.553 126.849 216.155 127.536C215.762 128.218 215.182 128.745 214.415 129.119C213.648 129.489 212.706 129.673 211.588 129.673H207.703V127.486H211.233C211.886 127.486 212.421 127.396 212.838 127.216C213.255 127.031 213.563 126.764 213.761 126.414C213.965 126.058 214.067 125.623 214.067 125.107C214.067 124.591 213.965 124.15 213.761 123.786C213.558 123.416 213.248 123.137 212.831 122.948C212.414 122.753 211.877 122.656 211.219 122.656H208.804V135H206.169ZM213.683 128.409L217.284 135H214.344L210.807 128.409H213.683Z" fill="#D6DCE8"/>
<path d="M219.177 135V120.455H228.637V122.664H221.812V126.612H228.147V128.821H221.812V132.791H228.694V135H219.177Z" fill="#D6DCE8"/>
<g clip-path="url(#clip0_1307_285)">
<path d="M122.201 39.9997C122.201 18.7418 139.436 1.6001 160.601 1.6001C181.765 1.6001 199 18.7291 199 39.9997C199 49.0232 195.886 57.3214 190.672 63.8738C183.477 72.9481 172.494 78.4001 160.6 78.4001C148.706 78.4001 137.708 72.914 130.522 63.8738C125.308 57.3222 122.2 49.024 122.2 39.9997H122.201Z" fill="#D6DCE8"/>
<path d="M126.658 70.3681C127.077 69.4445 126.654 68.3513 125.731 67.9327C124.807 67.5141 123.719 67.9239 123.301 68.8475C122.882 69.7711 123.287 70.8715 124.21 71.2893C125.134 71.7079 126.24 71.2909 126.658 70.3673V70.3681Z" fill="#D6DCE8"/>
<path d="M129.372 73.9815C129.639 73.394 129.37 72.6979 128.783 72.4316C128.195 72.1652 127.502 72.426 127.236 73.0143C126.969 73.6017 127.227 74.3026 127.815 74.5689C128.402 74.8353 129.106 74.5697 129.372 73.9823V73.9815Z" fill="#D6DCE8"/>
<path d="M194.557 6.49608C195.217 5.72707 195.119 4.5585 194.35 3.8981C193.581 3.23771 192.422 3.32571 191.762 4.09471C191.101 4.86372 191.181 6.03309 191.95 6.69428C192.719 7.35467 193.897 7.26509 194.558 6.49608H194.557Z" fill="#D6DCE8"/>
<path d="M196.149 10.7251C196.57 10.2351 196.507 9.49228 196.018 9.07131C195.528 8.65113 194.791 8.70742 194.37 9.19657C193.95 9.68652 194 10.4302 194.49 10.8511C194.98 11.2713 195.73 11.2142 196.15 10.7251H196.149Z" fill="#D6DCE8"/>
<path d="M128.977 10.1357C129.637 9.36672 129.539 8.19815 128.77 7.53775C128.001 6.87736 126.842 6.96536 126.182 7.73436C125.521 8.50337 125.601 9.67274 126.37 10.3339C127.139 10.9943 128.317 10.9047 128.978 10.1357H128.977Z" fill="#D6DCE8"/>
<path d="M190.479 20.62V72.6572C190.479 75.8315 187.911 78.3994 184.737 78.3994H137.511C134.337 78.3994 131.769 75.8315 131.769 72.6572V7.34229C131.769 4.16795 134.337 1.6001 137.511 1.6001H170.272C170.571 1.6001 170.866 1.62388 171.153 1.6659C172.263 1.83952 173.307 2.33819 174.147 3.11195L188.618 16.3896C189.483 17.1816 190.076 18.2138 190.329 19.3356C190.431 19.7558 190.478 20.1815 190.478 20.62H190.479Z" fill="white"/>
<path d="M190.327 19.3347H173.931C172.397 19.3347 171.152 18.0901 171.152 16.5552V1.66504C172.262 1.83866 173.306 2.33732 174.145 3.11109L188.617 16.3887C189.481 17.1807 190.075 18.2129 190.327 19.3347Z" fill="url(#paint0_linear_1307_285)"/>
<path d="M162.595 7.86035H142.385C142.266 7.86035 142.169 7.95725 142.169 8.07678V10.1721C142.169 10.2917 142.266 10.3886 142.385 10.3886H162.595C162.715 10.3886 162.812 10.2917 162.812 10.1721V8.07678C162.812 7.95725 162.715 7.86035 162.595 7.86035Z" fill="#E0E4ED"/>
<path d="M154.329 13.8545H142.385C142.266 13.8545 142.169 13.9514 142.169 14.0709V16.1663C142.169 16.2858 142.266 16.3827 142.385 16.3827H154.329C154.448 16.3827 154.545 16.2858 154.545 16.1663V14.0709C154.545 13.9514 154.448 13.8545 154.329 13.8545Z" fill="#E0E4ED"/>
<path d="M167.04 67.0518H142.604C142.364 67.0518 142.169 67.2466 142.169 67.487V69.1764C142.169 69.4168 142.364 69.6117 142.604 69.6117H167.04C167.281 69.6117 167.476 69.4168 167.476 69.1764V67.487C167.476 67.2466 167.281 67.0518 167.04 67.0518Z" fill="#E0E4ED"/>
<path d="M172.422 50.9501C166.743 56.6241 157.54 56.6241 151.866 50.9501C146.188 45.2714 146.188 36.0734 151.866 30.3947C157.54 24.7207 166.743 24.7207 172.422 30.3947C178.096 36.0734 178.096 45.2714 172.422 50.9501Z" fill="url(#paint1_linear_1307_285)"/>
<path d="M148.865 27.3908C141.531 34.7257 141.531 46.616 148.865 53.9509C156.2 61.2858 168.091 61.2858 175.426 53.9509C182.76 46.616 182.76 34.7257 175.426 27.3908C168.091 20.0559 156.2 20.0559 148.865 27.3908ZM171.738 50.2636C166.439 55.5627 157.851 55.5627 152.553 50.2636C147.254 44.9646 147.254 36.3771 152.553 31.0781C157.852 25.7791 166.439 25.7791 171.738 31.0781C177.037 36.3771 177.037 44.9654 171.738 50.2636Z" fill="url(#paint2_linear_1307_285)"/>
<path d="M181.185 56.1594L177.633 59.7111L173.523 55.6069C174.891 54.5747 176.121 53.3268 177.081 52.0552L181.186 56.1594H181.185Z" fill="url(#paint3_linear_1307_285)"/>
<path d="M183.848 55.5555L191.797 63.5048C193.68 65.3877 193.68 68.4415 191.797 70.3244C189.914 72.2073 186.86 72.2073 184.977 70.3244L177.028 62.3751C176.461 61.8083 176.461 60.8886 177.028 60.3218L181.794 55.5555C182.361 54.9887 183.281 54.9887 183.848 55.5555Z" fill="url(#paint4_linear_1307_285)"/>
<path d="M177.958 24.1292C177.958 24.6176 177.561 25.0147 177.072 25.0147C176.583 25.0147 176.183 24.6176 176.183 24.1292C176.183 23.6408 176.579 23.2437 177.072 23.2437C177.565 23.2437 177.958 23.6408 177.958 24.1292Z" fill="#989FB0"/>
<path d="M181.032 24.1292C181.032 24.6176 180.636 25.0147 180.147 25.0147C179.658 25.0147 179.257 24.6176 179.257 24.1292C179.257 23.6408 179.654 23.2437 180.147 23.2437C180.64 23.2437 181.032 23.6408 181.032 24.1292Z" fill="#989FB0"/>
<path d="M184.108 24.1292C184.108 24.6176 183.711 25.0147 183.222 25.0147C182.733 25.0147 182.333 24.6176 182.333 24.1292C182.333 23.6408 182.729 23.2437 183.222 23.2437C183.715 23.2437 184.108 23.6408 184.108 24.1292Z" fill="#989FB0"/>
</g>
<defs>
<linearGradient id="paint0_linear_1307_285" x1="171.152" y1="10.4999" x2="190.327" y2="10.4999" gradientUnits="userSpaceOnUse">
<stop stop-color="#D6DCE8"/>
<stop offset="1" stop-color="white"/>
</linearGradient>
<linearGradient id="paint1_linear_1307_285" x1="147.608" y1="40.6724" x2="176.678" y2="40.6724" gradientUnits="userSpaceOnUse">
<stop stop-color="#D6DCE8"/>
<stop offset="1" stop-color="white"/>
</linearGradient>
<linearGradient id="paint2_linear_1307_285" x1="143.363" y1="40.6709" x2="180.927" y2="40.6709" gradientUnits="userSpaceOnUse">
<stop stop-color="#989FB0"/>
<stop offset="1" stop-color="#AAB2C5"/>
</linearGradient>
<linearGradient id="paint3_linear_1307_285" x1="173.523" y1="55.8836" x2="181.185" y2="55.8836" gradientUnits="userSpaceOnUse">
<stop stop-color="#989FB0"/>
<stop offset="1" stop-color="#AAB2C5"/>
</linearGradient>
<linearGradient id="paint4_linear_1307_285" x1="176.603" y1="63.4335" x2="193.21" y2="63.4335" gradientUnits="userSpaceOnUse">
<stop stop-color="#989FB0"/>
<stop offset="1" stop-color="#AAB2C5"/>
</linearGradient>
<clipPath id="clip0_1307_285">
<rect width="80" height="80" fill="white" transform="translate(119)"/>
</clipPath>
</defs>
</svg>
