<svg width="120" height="120" viewBox="0 0 120 120" fill="none" xmlns="http://www.w3.org/2000/svg">
<path d="M103.5 56.781C103.5 80.8054 84.0244 100.281 60 100.281C35.9756 100.281 16.5 80.8054 16.5 56.781C16.5 32.7566 35.9756 13.281 60 13.281C84.0244 13.281 103.5 32.7566 103.5 56.781Z" fill="#29ABE2" stroke="white"/>
<path d="M91.7188 87.2736V69.7182C91.7188 62.8836 86.1787 57.3435 79.3441 57.3435H40.6571C33.8225 57.3435 28.2825 62.8836 28.2825 69.7182V87.2736C36.2887 95.5991 47.5385 100.781 60.0013 100.781C72.4641 100.781 83.7139 95.5991 91.7201 87.2736H91.7188Z" fill="#3D3D3D"/>
<path d="M103.5 56.781C103.5 80.8054 84.0244 100.281 60 100.281C35.9756 100.281 16.5 80.8054 16.5 56.781C16.5 32.7566 35.9756 13.281 60 13.281C84.0244 13.281 103.5 32.7566 103.5 56.781Z" stroke="white"/>
<path d="M67.3303 57.8939C61.9786 58.968 56.6269 58.968 51.2751 57.8939C52.9397 52.6411 53.2951 47.1357 53.0559 41.4594C57.22 40.8088 61.3854 40.8088 65.5495 41.4594C65.3104 47.1357 65.6671 52.6411 67.3303 57.8939Z" fill="#FEBC8A"/>
<path d="M73.7201 29.4427C73.7201 35.2005 71.421 40.6631 67.8754 44.1325C65.4788 46.477 62.5144 49.2384 59.3028 49.2384C56.0912 49.2384 53.1268 46.4757 50.7302 44.1325C47.1833 40.6631 44.8855 35.2018 44.8855 29.4427C44.8855 19.7946 51.3407 11.9728 59.3028 11.9728C67.2649 11.9728 73.7201 19.7946 73.7201 29.4427Z" fill="#FEBC8A"/>
<path d="M50.0541 16.0407C56.9568 14.9105 63.8609 23.0316 70.7636 18.8435C72.6179 21.7838 73.72 25.4563 73.72 29.4427C73.72 29.6498 73.716 29.8568 73.7107 30.0626C74.7928 27.344 75.3819 24.3582 75.3819 21.3416C75.3819 10.7932 68.753 4 59.8878 4C57.4244 4 54.9048 5.17027 52.9597 6.45009C51.3486 7.51081 49.676 8.47802 47.9527 9.3437C44.1159 11.2701 43.2249 16.3453 43.2249 21.3416C43.2249 24.3582 43.814 27.344 44.8948 30.0626C44.8894 29.8568 44.8854 29.6498 44.8854 29.4427C44.8854 24.0602 46.8946 19.2469 50.0541 16.042V16.0407Z" fill="#3C322B"/>
<path opacity="0.25" d="M65.484 46.3447C63.611 47.9265 61.5149 49.2383 59.304 49.2383C57.093 49.2383 54.997 47.9278 53.124 46.3447C53.124 46.5104 53.1227 46.6747 53.1213 46.8404C54.9956 48.4234 57.0917 49.7366 59.3053 49.7366C61.519 49.7366 63.615 48.4248 65.4893 46.8404C65.4893 46.6747 65.4866 46.5104 65.4866 46.3447H65.484Z" fill="#4D4D4D"/>
<path d="M59.4999 102.333L59.4999 101.833L58.9999 101.833L54.6666 101.833C54.3961 101.833 54.1666 101.604 54.1666 101.333C54.1666 101.063 54.3961 100.833 54.6666 100.833L58.9999 100.833L59.4999 100.833L59.4999 100.333L59.4999 96C59.4999 95.7295 59.7294 95.5 59.9999 95.5C60.2704 95.5 60.4999 95.7295 60.4999 96L60.4999 100.333L60.4999 100.833L60.9999 100.833L65.3333 100.833C65.6038 100.833 65.8333 101.063 65.8333 101.333C65.8333 101.604 65.6038 101.833 65.3333 101.833L60.9999 101.833L60.4999 101.833L60.4999 102.333L60.4999 106.667C60.4999 106.937 60.2704 107.167 59.9999 107.167C59.7294 107.167 59.4999 106.937 59.4999 106.667L59.4999 102.333ZM73.8333 101.333C73.8333 93.7105 67.6227 87.5 59.9999 87.5C52.3771 87.5 46.1666 93.7105 46.1666 101.333C46.1666 108.956 52.3771 115.167 59.9999 115.167C67.6227 115.167 73.8333 108.956 73.8333 101.333Z" fill="#1159E4" stroke="white"/>
</svg>
