<?xml version="1.0" encoding="utf-8"?>
<!-- Generator: Adobe Illustrator 27.1.1, SVG Export Plug-In . SVG Version: 6.00 Build 0)  -->
<svg version="1.0" id="Layer_1" xmlns="http://www.w3.org/2000/svg" xmlns:xlink="http://www.w3.org/1999/xlink" x="0px" y="0px"
	 viewBox="0 0 500 500" style="enable-background:new 0 0 500 500;" xml:space="preserve">
<style type="text/css">
	.st0{fill:url(#SVGID_1_);}
	.st1{fill:url(#SVGID_00000065776152594535411310000017473750600086493076_);}
	.st2{opacity:0.54;fill:url(#SVGID_00000147900045456884197140000002611555609283482292_);}
	.st3{fill:url(#SVGID_00000036941768267466468050000001082983223084122288_);}
	.st4{fill:url(#SVGID_00000106126688559282189130000011353619983069777835_);}
	.st5{opacity:0.54;fill:url(#SVGID_00000139982253346830406080000004704267643250606745_);}
	.st6{fill:url(#SVGID_00000098931726506716074160000009964567417389285292_);}
	.st7{fill:url(#SVGID_00000084505840273606591820000000601343508453172159_);}
	.st8{opacity:0.54;fill:url(#SVGID_00000075856882570074133560000000727820510830390198_);}
	.st9{fill:url(#SVGID_00000155856591634008280210000002921135985307190677_);}
	.st10{fill:url(#SVGID_00000177452409703337603970000010597255853210999186_);}
	.st11{opacity:0.54;fill:url(#SVGID_00000157306478259406111540000004394294751798134957_);}
	.st12{fill:url(#SVGID_00000075152490844495896430000010116142623943048627_);}
	.st13{fill:url(#SVGID_00000080892450708483691740000015525869614922123166_);}
	.st14{opacity:0.54;fill:url(#SVGID_00000073721114881151709980000005584378176270662069_);}
	.st15{fill:url(#SVGID_00000037675385390145994210000017300990429540991639_);}
	.st16{fill:url(#SVGID_00000026143369775617335840000015417663973759638176_);}
	.st17{opacity:0.54;fill:url(#SVGID_00000122680994750102533870000014939029127868281487_);}
	.st18{fill:url(#SVGID_00000118387237668118010550000014685650845686500230_);}
	.st19{fill:url(#SVGID_00000065035674988863664860000001688422775798463140_);}
	
		.st20{clip-path:url(#SVGID_00000055666444007517019630000011033605917356950915_);fill:url(#SVGID_00000070090565732576995540000016940522898775590554_);}
	
		.st21{clip-path:url(#SVGID_00000055666444007517019630000011033605917356950915_);fill:url(#SVGID_00000030480425659311008460000013570542349853395075_);}
	
		.st22{opacity:0.9;clip-path:url(#SVGID_00000055666444007517019630000011033605917356950915_);fill:url(#SVGID_00000085240310954116998880000002911777506410898591_);}
	.st23{fill:url(#SVGID_00000139260448160974173840000013573169267994802622_);}
	.st24{opacity:0.4;fill:url(#SVGID_00000110464470705853224040000002609564164717691783_);}
</style>
<g>
	<g>
		<g>
			<g>
				<linearGradient id="SVGID_1_" gradientUnits="userSpaceOnUse" x1="322.1598" y1="343.7797" x2="326.3293" y2="394.9437">
					<stop  offset="0" style="stop-color:#681FCA"/>
					<stop  offset="0.5366" style="stop-color:#A14DE8"/>
					<stop  offset="1" style="stop-color:#CE72FF"/>
				</linearGradient>
				<path class="st0" d="M239.22,308.93c0.74,41.99,21.13,79.49,56.77,96.04c35.64,16.55,77.44,7.93,110.01-18.59L239.22,308.93z"/>
				
					<linearGradient id="SVGID_00000080910732256616388760000005562651426316046725_" gradientUnits="userSpaceOnUse" x1="292.6304" y1="375.3055" x2="402.3474" y2="395.7612">
					<stop  offset="0.1255" style="stop-color:#681FCA"/>
					<stop  offset="0.4904" style="stop-color:#9E4BE6"/>
					<stop  offset="0.7707" style="stop-color:#C167F8"/>
					<stop  offset="0.9214" style="stop-color:#CE72FF"/>
				</linearGradient>
				<path style="fill:url(#SVGID_00000080910732256616388760000005562651426316046725_);" d="M327.44,349.9
					c-26.64,2.51-42.46,37.9-22.9,58.51c33.63,11.63,71.46,2.4,101.46-22.03L327.44,349.9z"/>
			</g>
			
				<linearGradient id="SVGID_00000012447487466445976710000010003537761613699209_" gradientUnits="userSpaceOnUse" x1="310.9412" y1="428.1661" x2="267.7055" y2="347.7383">
				<stop  offset="0" style="stop-color:#FFFFFF"/>
				<stop  offset="1" style="stop-color:#FFFFFF;stop-opacity:0"/>
			</linearGradient>
			<path style="opacity:0.54;fill:url(#SVGID_00000012447487466445976710000010003537761613699209_);" d="M280.46,328.08
				l-41.24-19.15c0.74,41.99,21.13,79.49,56.77,96.04c2.81,1.31,5.67,2.44,8.55,3.43C304.54,408.41,265.3,386.36,280.46,328.08z"/>
		</g>
		<g>
			
				<linearGradient id="SVGID_00000150073821575370648290000000898942126100601235_" gradientUnits="userSpaceOnUse" x1="361.6249" y1="310.6611" x2="383.5236" y2="362.1873">
				<stop  offset="0.0843" style="stop-color:#681FCA"/>
				<stop  offset="1" style="stop-color:#CE72FF"/>
			</linearGradient>
			<path style="fill:url(#SVGID_00000150073821575370648290000000898942126100601235_);" d="M484.53,290.77
				c-32.08-24-81.64-32.25-131.75-18.07c-50.12,14.17-88.02,47.15-102.78,84.4c32.08,24,81.64,32.25,131.75,18.07
				S469.77,328.01,484.53,290.77z"/>
			
				<linearGradient id="SVGID_00000006692255301230992020000005869335234503374525_" gradientUnits="userSpaceOnUse" x1="323.8978" y1="333.8805" x2="485.0624" y2="294.2091">
				<stop  offset="0.1911" style="stop-color:#681FCA"/>
				<stop  offset="0.5309" style="stop-color:#9E4BE6"/>
				<stop  offset="0.7918" style="stop-color:#C167F8"/>
				<stop  offset="0.9322" style="stop-color:#CE72FF"/>
			</linearGradient>
			<path style="fill:url(#SVGID_00000006692255301230992020000005869335234503374525_);" d="M481.12,288.33
				c-27.63-19.01-66.9-27-108.14-20.15c-72.42,28.56-48.3,113.84,28.35,100.25c38.71-15.76,67.99-43.13,81.57-73.8
				c0.08-0.19,0.17-0.38,0.25-0.56c0.48-1.1,0.94-2.2,1.38-3.3c-0.95-0.71-1.92-1.41-2.9-2.09
				C481.46,288.57,481.29,288.45,481.12,288.33z"/>
			
				<linearGradient id="SVGID_00000017512661564034239080000017328210921134463660_" gradientUnits="userSpaceOnUse" x1="383.6525" y1="374.5881" x2="296.2512" y2="346.2292">
				<stop  offset="0" style="stop-color:#FFFFFF"/>
				<stop  offset="1" style="stop-color:#FFFFFF;stop-opacity:0"/>
			</linearGradient>
			<path style="opacity:0.54;fill:url(#SVGID_00000017512661564034239080000017328210921134463660_);" d="M283.9,309.92
				C268.44,323.81,256.77,340,250,357.1c32.08,24,81.64,32.25,131.75,18.07c6.76-1.91,13.29-4.18,19.58-6.74
				C401.32,368.44,310.87,398.84,283.9,309.92z"/>
		</g>
		<g>
			
				<linearGradient id="SVGID_00000123399966558619569640000002930569767458581403_" gradientUnits="userSpaceOnUse" x1="317.448" y1="245.2816" x2="382.1788" y2="286.6375">
				<stop  offset="0.1415" style="stop-color:#681FCA"/>
				<stop  offset="0.4241" style="stop-color:#9745E3"/>
				<stop  offset="0.6978" style="stop-color:#BF66F7"/>
				<stop  offset="0.8397" style="stop-color:#CE72FF"/>
			</linearGradient>
			<path style="fill:url(#SVGID_00000123399966558619569640000002930569767458581403_);" d="M250,357.1
				c60.1-0.57,114.01-29.3,138.11-80.1c24.11-50.81,12.26-110.73-25.31-157.64L250,357.1z"/>
			
				<linearGradient id="SVGID_00000175309367868738519710000014652765774688716712_" gradientUnits="userSpaceOnUse" x1="341.5203" y1="272.8133" x2="397.2839" y2="133.1164">
				<stop  offset="0.012" style="stop-color:#681FCA"/>
				<stop  offset="0.3705" style="stop-color:#9846E3"/>
				<stop  offset="0.7054" style="stop-color:#BF66F7"/>
				<stop  offset="0.8799" style="stop-color:#CE72FF"/>
			</linearGradient>
			<path style="fill:url(#SVGID_00000175309367868738519710000014652765774688716712_);" d="M309.67,231.34
				c3.28,38.15,53.74,61.21,83.46,33.45c17.03-47.99,4.28-102.24-30.32-145.45L309.67,231.34z"/>
			
				<linearGradient id="SVGID_00000120517418940012464160000017927122795908177590_" gradientUnits="userSpaceOnUse" x1="415.4956" y1="253.3739" x2="316.9368" y2="315.6705">
				<stop  offset="0" style="stop-color:#FFFFFF"/>
				<stop  offset="1" style="stop-color:#FFFFFF;stop-opacity:0"/>
			</linearGradient>
			<path style="opacity:0.54;fill:url(#SVGID_00000120517418940012464160000017927122795908177590_);" d="M269.93,315.1L250,357.1
				c60.1-0.57,114.01-29.3,138.11-80.1c1.9-4.01,3.56-8.08,5.02-12.2C393.12,264.8,344.61,326.24,269.93,315.1z"/>
		</g>
	</g>
	<g>
		<g>
			<g>
				
					<linearGradient id="SVGID_00000138534588809410223580000006264757325875929535_" gradientUnits="userSpaceOnUse" x1="1150.1511" y1="343.7797" x2="1154.3206" y2="394.9437" gradientTransform="matrix(-1 0 0 1 1327.9913 0)">
					<stop  offset="0" style="stop-color:#681FCA"/>
					<stop  offset="0.5366" style="stop-color:#A14DE8"/>
					<stop  offset="1" style="stop-color:#CE72FF"/>
				</linearGradient>
				<path style="fill:url(#SVGID_00000138534588809410223580000006264757325875929535_);" d="M260.78,308.93
					c-0.74,41.99-21.13,79.49-56.77,96.04c-35.64,16.55-77.44,7.93-110.01-18.59L260.78,308.93z"/>
				
					<linearGradient id="SVGID_00000160890647481688632690000002506184684635628675_" gradientUnits="userSpaceOnUse" x1="1120.6217" y1="375.3055" x2="1230.3387" y2="395.7612" gradientTransform="matrix(-1 0 0 1 1327.9913 0)">
					<stop  offset="0.1255" style="stop-color:#681FCA"/>
					<stop  offset="0.4904" style="stop-color:#9E4BE6"/>
					<stop  offset="0.7707" style="stop-color:#C167F8"/>
					<stop  offset="0.9214" style="stop-color:#CE72FF"/>
				</linearGradient>
				<path style="fill:url(#SVGID_00000160890647481688632690000002506184684635628675_);" d="M172.56,349.9
					c26.64,2.51,42.46,37.9,22.9,58.51c-33.63,11.63-71.46,2.4-101.46-22.03L172.56,349.9z"/>
			</g>
			
				<linearGradient id="SVGID_00000175300360746050579750000002163469288139699112_" gradientUnits="userSpaceOnUse" x1="1138.9325" y1="428.1661" x2="1095.6968" y2="347.7383" gradientTransform="matrix(-1 0 0 1 1327.9913 0)">
				<stop  offset="0" style="stop-color:#FFFFFF"/>
				<stop  offset="1" style="stop-color:#FFFFFF;stop-opacity:0"/>
			</linearGradient>
			<path style="opacity:0.54;fill:url(#SVGID_00000175300360746050579750000002163469288139699112_);" d="M219.54,328.08
				l41.24-19.15c-0.74,41.99-21.13,79.49-56.77,96.04c-2.81,1.31-5.67,2.44-8.55,3.43C195.46,408.41,234.7,386.36,219.54,328.08z"/>
		</g>
		<g>
			
				<linearGradient id="SVGID_00000147207949882967443700000006860501238224970124_" gradientUnits="userSpaceOnUse" x1="1189.6162" y1="310.6611" x2="1211.5149" y2="362.1874" gradientTransform="matrix(-1 0 0 1 1327.9913 0)">
				<stop  offset="0.0843" style="stop-color:#681FCA"/>
				<stop  offset="1" style="stop-color:#CE72FF"/>
			</linearGradient>
			<path style="fill:url(#SVGID_00000147207949882967443700000006860501238224970124_);" d="M15.47,290.77
				c32.08-24,81.64-32.25,131.75-18.07c50.12,14.17,88.02,47.15,102.78,84.4c-32.08,24-81.64,32.25-131.75,18.07
				S30.23,328.01,15.47,290.77z"/>
			
				<linearGradient id="SVGID_00000173854397682124639460000001547087608575846323_" gradientUnits="userSpaceOnUse" x1="1151.8892" y1="333.8805" x2="1313.0537" y2="294.2091" gradientTransform="matrix(-1 0 0 1 1327.9913 0)">
				<stop  offset="0.1911" style="stop-color:#681FCA"/>
				<stop  offset="0.5309" style="stop-color:#9E4BE6"/>
				<stop  offset="0.7918" style="stop-color:#C167F8"/>
				<stop  offset="0.9322" style="stop-color:#CE72FF"/>
			</linearGradient>
			<path style="fill:url(#SVGID_00000173854397682124639460000001547087608575846323_);" d="M18.88,288.33
				c27.63-19.01,66.9-27,108.14-20.15c72.42,28.56,48.3,113.84-28.35,100.25c-38.71-15.76-67.99-43.13-81.57-73.8
				c-0.08-0.19-0.17-0.38-0.25-0.56c-0.48-1.1-0.94-2.2-1.38-3.3c0.95-0.71,1.92-1.41,2.9-2.09
				C18.54,288.57,18.71,288.45,18.88,288.33z"/>
			
				<linearGradient id="SVGID_00000178926033674266617890000001442554327475939201_" gradientUnits="userSpaceOnUse" x1="1211.6438" y1="374.5881" x2="1124.2424" y2="346.2292" gradientTransform="matrix(-1 0 0 1 1327.9913 0)">
				<stop  offset="0" style="stop-color:#FFFFFF"/>
				<stop  offset="1" style="stop-color:#FFFFFF;stop-opacity:0"/>
			</linearGradient>
			<path style="opacity:0.54;fill:url(#SVGID_00000178926033674266617890000001442554327475939201_);" d="M216.1,309.92
				c15.47,13.89,27.13,30.08,33.9,47.18c-32.08,24-81.64,32.25-131.75,18.07c-6.76-1.91-13.29-4.18-19.58-6.74
				C98.68,368.44,189.13,398.84,216.1,309.92z"/>
		</g>
		<g>
			
				<linearGradient id="SVGID_00000100362005331292062770000000359805687061909906_" gradientUnits="userSpaceOnUse" x1="1145.4393" y1="245.2816" x2="1210.17" y2="286.6375" gradientTransform="matrix(-1 0 0 1 1327.9913 0)">
				<stop  offset="0.1415" style="stop-color:#681FCA"/>
				<stop  offset="0.4241" style="stop-color:#9745E3"/>
				<stop  offset="0.6978" style="stop-color:#BF66F7"/>
				<stop  offset="0.8397" style="stop-color:#CE72FF"/>
			</linearGradient>
			<path style="fill:url(#SVGID_00000100362005331292062770000000359805687061909906_);" d="M250,357.1
				c-60.1-0.57-114.01-29.3-138.11-80.1c-24.11-50.81-12.26-110.73,25.31-157.64L250,357.1z"/>
			
				<linearGradient id="SVGID_00000140715037906715248930000011468345146168664250_" gradientUnits="userSpaceOnUse" x1="1169.5116" y1="272.8133" x2="1225.2753" y2="133.1164" gradientTransform="matrix(-1 0 0 1 1327.9913 0)">
				<stop  offset="0.012" style="stop-color:#681FCA"/>
				<stop  offset="0.3705" style="stop-color:#9846E3"/>
				<stop  offset="0.7054" style="stop-color:#BF66F7"/>
				<stop  offset="0.8799" style="stop-color:#CE72FF"/>
			</linearGradient>
			<path style="fill:url(#SVGID_00000140715037906715248930000011468345146168664250_);" d="M190.33,231.34
				c-3.28,38.15-53.74,61.21-83.46,33.45c-17.03-47.99-4.28-102.24,30.32-145.45L190.33,231.34z"/>
			
				<linearGradient id="SVGID_00000148648976748516468430000017423975266018447749_" gradientUnits="userSpaceOnUse" x1="1243.4868" y1="253.3738" x2="1144.9281" y2="315.6705" gradientTransform="matrix(-1 0 0 1 1327.9913 0)">
				<stop  offset="0" style="stop-color:#FFFFFF"/>
				<stop  offset="1" style="stop-color:#FFFFFF;stop-opacity:0"/>
			</linearGradient>
			<path style="opacity:0.54;fill:url(#SVGID_00000148648976748516468430000017423975266018447749_);" d="M230.07,315.1L250,357.1
				c-60.1-0.57-114.01-29.3-138.11-80.1c-1.9-4.01-3.56-8.08-5.02-12.2C106.88,264.8,155.39,326.24,230.07,315.1z"/>
		</g>
	</g>
	<g>
		
			<linearGradient id="SVGID_00000091006060238834213280000005722416052933985693_" gradientUnits="userSpaceOnUse" x1="153.7402" y1="329.3051" x2="267.447" y2="202.3613">
			<stop  offset="0" style="stop-color:#681FCA"/>
			<stop  offset="0.2077" style="stop-color:#8335D8"/>
			<stop  offset="0.7958" style="stop-color:#CE72FF"/>
		</linearGradient>
		<path style="fill:url(#SVGID_00000091006060238834213280000005722416052933985693_);" d="M250,86.58
			c-46.68,27.01-78.1,77.45-78.1,135.26S203.32,330.08,250,357.1c46.68-27.01,78.1-77.45,78.1-135.26S296.68,113.59,250,86.58z"/>
		
			<linearGradient id="SVGID_00000172425385066456398770000006203052192913965718_" gradientUnits="userSpaceOnUse" x1="250" y1="265.2301" x2="250" y2="80.4923">
			<stop  offset="0.1946" style="stop-color:#681FCA"/>
			<stop  offset="0.3367" style="stop-color:#7F32D6"/>
			<stop  offset="0.8453" style="stop-color:#CE72FF"/>
		</linearGradient>
		<path style="fill:url(#SVGID_00000172425385066456398770000006203052192913965718_);" d="M245.2,89.49
			c-37.86,23.76-64.81,63.3-71.61,109.4c11.4,85.97,141.41,85.97,152.82,0c-6.8-46.11-33.74-85.64-71.61-109.4
			c-0.23-0.15-0.46-0.29-0.69-0.44c-1.36-0.84-2.72-1.67-4.11-2.47c-1.38,0.8-2.75,1.62-4.11,2.47
			C245.66,89.19,245.43,89.34,245.2,89.49z"/>
		<g>
			<defs>
				<path id="SVGID_00000083050686181311463850000003903254538621480121_" d="M245.2,89.49c-37.86,23.76-64.81,63.3-71.61,109.4
					c11.4,85.97,141.41,85.97,152.82,0c-6.8-46.11-33.74-85.64-71.61-109.4c-0.23-0.15-0.46-0.29-0.69-0.44
					c-1.36-0.84-2.72-1.67-4.11-2.47c-1.38,0.8-2.75,1.62-4.11,2.47C245.66,89.19,245.43,89.34,245.2,89.49z"/>
			</defs>
			<clipPath id="SVGID_00000079458431501682166810000000596698745437265315_">
				<use xlink:href="#SVGID_00000083050686181311463850000003903254538621480121_"  style="overflow:visible;"/>
			</clipPath>
			
				<linearGradient id="SVGID_00000155849790270946459990000008143268309093090236_" gradientUnits="userSpaceOnUse" x1="1284.5109" y1="2232.9971" x2="1284.5109" y2="2330.9436" gradientTransform="matrix(-1 0 0 -1 1534.5109 2502.0625)">
				<stop  offset="0.1024" style="stop-color:#0083E8"/>
				<stop  offset="0.3519" style="stop-color:#00B3EF"/>
				<stop  offset="0.6242" style="stop-color:#00E2F5"/>
				<stop  offset="0.7606" style="stop-color:#00F4F8"/>
			</linearGradient>
			
				<circle style="clip-path:url(#SVGID_00000079458431501682166810000000596698745437265315_);fill:url(#SVGID_00000155849790270946459990000008143268309093090236_);" cx="250" cy="229.81" r="45.9"/>
			
				<linearGradient id="SVGID_00000139259229780884028270000016981369324081169294_" gradientUnits="userSpaceOnUse" x1="1284.5109" y1="2232.0784" x2="1284.5109" y2="2316.4954" gradientTransform="matrix(-1 0 0 -1 1534.5109 2502.0625)">
				<stop  offset="0.1024" style="stop-color:#0083E8"/>
				<stop  offset="0.3519" style="stop-color:#00B3EF"/>
				<stop  offset="0.6242" style="stop-color:#00E2F5"/>
				<stop  offset="0.7606" style="stop-color:#00F4F8"/>
			</linearGradient>
			
				<circle style="clip-path:url(#SVGID_00000079458431501682166810000000596698745437265315_);fill:url(#SVGID_00000139259229780884028270000016981369324081169294_);" cx="250" cy="236.15" r="39.56"/>
			
				<linearGradient id="SVGID_00000145740746119989439480000003936508499156024976_" gradientUnits="userSpaceOnUse" x1="179.0616" y1="246.4432" x2="167.594" y2="267.8288" gradientTransform="matrix(0.9959 0.0904 -0.0904 0.9959 115.5396 -64.3711)">
				<stop  offset="0" style="stop-color:#FFFFFF"/>
				<stop  offset="1" style="stop-color:#FFFFFF;stop-opacity:0"/>
			</linearGradient>
			
				<path style="opacity:0.9;clip-path:url(#SVGID_00000079458431501682166810000000596698745437265315_);fill:url(#SVGID_00000145740746119989439480000003936508499156024976_);" d="
				M248.84,196.59c3.06-5.3,13.06-5.26,22.33,0.09c9.27,5.35,14.31,13.99,11.25,19.3c-3.06,5.3-13.06,5.26-22.33-0.09
				C250.82,210.53,245.78,201.89,248.84,196.59z"/>
		</g>
		
			<linearGradient id="SVGID_00000135669095813158410010000016104097391405710738_" gradientUnits="userSpaceOnUse" x1="358.281" y1="225.6534" x2="219.4053" y2="348.2366">
			<stop  offset="0" style="stop-color:#681FCA"/>
			<stop  offset="0.2184" style="stop-color:#7F32D6"/>
			<stop  offset="1" style="stop-color:#CE72FF"/>
		</linearGradient>
		<path style="fill:url(#SVGID_00000135669095813158410010000016104097391405710738_);" d="M206.43,319.72
			c12.07,14.97,26.83,27.68,43.57,37.37c42.71-24.72,72.63-69.05,77.41-120.69C314.01,264.51,281.24,309.36,206.43,319.72z"/>
		
			<linearGradient id="SVGID_00000128458454967293928800000003150362661947314062_" gradientUnits="userSpaceOnUse" x1="171.2133" y1="241.5341" x2="282.1694" y2="333.2744">
			<stop  offset="0" style="stop-color:#FFFFFF"/>
			<stop  offset="1" style="stop-color:#FFFFFF;stop-opacity:0"/>
		</linearGradient>
		<path style="opacity:0.4;fill:url(#SVGID_00000128458454967293928800000003150362661947314062_);" d="M173.59,244.81
			c7.09,48.03,36.03,88.92,76.41,112.29c23.52-13.61,43.16-33.17,56.86-56.62C219.76,317.8,173.74,245.04,173.59,244.81z"/>
	</g>
</g>
</svg>
