<svg enable-background="new 0 0 150 150" viewBox="0 0 150 150" xmlns="http://www.w3.org/2000/svg" xmlns:xlink="http://www.w3.org/1999/xlink"><linearGradient id="a" gradientUnits="userSpaceOnUse" x1="-6.7574" x2="172.9873" y1="-1.9959" y2="167.2807"><stop offset="0" stop-color="#da9f27"/><stop offset=".2576" stop-color="#f8e370"/><stop offset=".53" stop-color="#e0b229"/><stop offset=".799" stop-color="#fbe576"/><stop offset="1" stop-color="#e2b234"/></linearGradient><circle cx="75" cy="75" fill="url(#a)" r="75"/><path d="m74.94 93.12h33.59c1.92 0 2.06-.13 2.34-2.16.72-5.36 2.29-10.46 4.21-15.45.4-1.04.98-1.58 2.07-1.81 2.11-.44 3.33-2.44 3.03-4.67-.3-2.22-2.18-3.79-4.33-3.61-2.11.17-3.64 1.88-3.69 4.14-.01.34-.01.68.05 1.02.12.73-.06 1.34-.52 1.88-2.11 2.47-4.17 5-6.36 7.38-.76.82-1.79 1.46-2.81 1.88-1.93.78-3.57-.24-3.92-2.4-.22-1.38-.37-2.83-.23-4.21.38-3.65.92-7.28 1.42-10.92.15-1.1.52-1.9 1.67-2.41 2.22-.98 2.99-3.52 1.96-5.66-1.03-2.12-3.31-2.97-5.3-1.98-2.1 1.05-2.99 3.47-1.95 5.68.44.93.47 1.67-.04 2.52-1.99 3.35-3.85 6.79-5.97 10.04-1.04 1.61-2.41 3.02-3.83 4.29-1.5 1.34-2.63 1.01-3.73-.73-.24-.37-.46-.77-.61-1.19-.69-1.96-1.52-3.88-1.99-5.9-.93-3.95-1.66-7.95-2.47-11.93-.3-1.48-.26-2.79.79-4.08 1.14-1.41.97-3.49-.04-4.9-1.11-1.54-2.86-2.12-4.56-1.5-2.72.99-3.6 4.34-1.75 6.78.48.63.91 1.16.77 2.09-.84 5.42-1.73 10.83-3.38 16.05-.47 1.49-1.05 2.98-1.78 4.34-1.13 2.1-2.47 2.36-4.16.72-1.45-1.4-2.82-2.95-3.93-4.66-1.9-2.93-3.55-6.04-5.34-9.06-.62-1.03-.78-1.91-.16-3.1.79-1.52.43-3.1-.66-4.4-1.13-1.34-2.56-1.85-4.2-1.29-1.6.54-2.63 1.71-2.86 3.52-.25 1.96.64 3.56 2.49 4.46.67.32 1.22.63 1.37 1.48.85 4.61 1.71 9.22 1.6 13.95-.02.73-.11 1.47-.29 2.18-.57 2.23-2.21 3.1-4.19 2.1-1.09-.55-2.15-1.31-3-2.21-1.83-1.97-3.51-4.1-5.27-6.15-.82-.96-1.27-1.9-1.09-3.33.28-2.26-1.41-4.21-3.51-4.46-2.21-.26-4.13 1.26-4.53 3.58-.35 2.05.97 4.22 3.06 4.68 1.15.26 1.71.87 2.13 1.96 1.96 5.05 3.43 10.23 4.2 15.63.23 1.62.43 1.78 1.96 1.82.43.01.85.01 1.28.01 10.81-.01 21.64-.01 32.46-.01zm.17 2.07c-11.03 0-22.06 0-33.09 0-.48 0-.96-.02-1.44.01-1.22.08-1.48.32-1.53 1.64-.05 1.36-.02 2.71-.02 4.07 0 2.89.01 2.89 2.77 2.89h66.01c.53 0 1.07.02 1.6-.01 1.24-.07 1.48-.29 1.52-1.63.05-1.41.03-2.83.02-4.24-.01-2.71-.03-2.73-2.6-2.73-11.07 0-22.15 0-33.24 0z" fill="#1e1e1e"/></svg>