<svg width="40" height="39" fill="none" xmlns="http://www.w3.org/2000/svg">
    <mask id="a" style="mask-type:luminance" maskUnits="userSpaceOnUse" x="0" y="0" width="40" height="40">
        <path d="M19.501 39c10.77 0 19.502-8.73 19.502-19.5S30.272 0 19.5 0C8.731 0 0 8.73 0 19.5S8.731 39 19.501 39Z" fill="#fff"/>
    </mask>
    <g mask="url(#a)">
        <path d="M19.501 39c10.77 0 19.502-8.73 19.502-19.5S30.272 0 19.5 0C8.731 0 0 8.73 0 19.5S8.731 39 19.501 39Z" fill="url(#b)"/>
        <g opacity=".2" fill="#fff">
            <path d="m10.715-2.177-2.88 16.33 1.131.2 2.88-16.331-1.131-.2Z"/>
            <path d="M14.613-3.374 8.941 12.208l1.08.393 5.671-15.582-1.079-.393Z"/>
            <path d="m18.66-3.876-8.292 14.361.995.574L19.654-3.3l-.994-.575Z"/>
            <path d="M22.732-3.666 12.072 9.036l.88.739 10.66-12.703-.88-.738Z"/>
            <path d="M26.706-2.754 14.003 7.906l.738.88 12.703-10.66-.738-.88Z"/>
            <path d="M30.461-1.165 16.1 7.127l.574.994 14.361-8.29-.574-.996Z"/>
            <path d="M33.883 1.052 18.3 6.724l.392 1.08 15.584-5.672-.393-1.08Z"/>
            <path d="m36.868 3.83-16.33 2.88.199 1.13 16.33-2.879-.199-1.131Z"/>
            <path d="M39.326 7.084H22.742v1.148h16.584V7.084Z"/>
            <path d="m24.85 7.835-.2 1.131 16.331 2.88.2-1.132-16.331-2.88Z"/>
            <path d="m26.794 8.94-.392 1.08 15.583 5.672.393-1.08-15.584-5.671Z"/>
            <path d="m28.517 10.368-.574.994 14.361 8.291.575-.994-14.362-8.291Z"/>
            <path d="m29.966 12.072-.738.88L41.93 23.61l.739-.88-12.704-10.66Z"/>
            <path d="m31.097 14.002-.88.738 10.66 12.703.88-.739-10.66-12.702Z"/>
            <path d="m31.876 16.099-.995.574 8.292 14.36.995-.574-8.292-14.36Z"/>
            <path d="m32.279 18.3-1.08.392 5.672 15.582 1.08-.392-5.672-15.583Z"/>
            <path d="m32.293 20.536-1.131.2 2.88 16.33 1.13-.2-2.879-16.33Z"/>
            <path d="M31.92 22.741h-1.15v16.582h1.15V22.741Z"/>
            <path d="m30.037 24.649-2.88 16.33 1.131.2 2.88-16.33-1.131-.2Z"/>
            <path d="m28.982 26.4-5.671 15.582 1.079.393 5.672-15.583-1.08-.392Z"/>
            <path d="M27.64 27.941 19.35 42.302l.994.574 8.292-14.36-.995-.575Z"/>
            <path d="M26.05 29.226 15.392 41.93l.88.738 10.66-12.702-.88-.739Z"/>
            <path d="M24.262 30.216 11.56 40.874l.738.88 12.704-10.659-.739-.88Z"/>
            <path d="M22.33 30.88 7.967 39.17l.574.996 14.362-8.292-.575-.994Z"/>
            <path d="M20.31 31.198 4.727 36.869l.393 1.08 15.583-5.672-.393-1.08Z"/>
            <path d="m18.266 31.16-16.33 2.88.199 1.131 16.33-2.88-.199-1.13Z"/>
            <path d="M16.26 30.769H-.323v1.148H16.26V30.77Z"/>
            <path d="m-1.979 27.155-.2 1.131 16.332 2.88.2-1.131-16.332-2.88ZM-2.981 23.31l-.393 1.079 15.583 5.671.393-1.079-15.583-5.671Z"/>
            <path d="m-3.302 19.348-.574.994 14.361 8.292.575-.995-14.362-8.291ZM-2.928 15.39l-.739.88L9.037 26.93l.738-.88-12.703-10.66ZM-1.874 11.558l-.88.739 10.66 12.702.88-.738-10.66-12.703Z"/>
            <path d="m-.17 7.967-.995.575 8.292 14.36.995-.574L-.17 7.968Z"/>
            <path d="m2.132 4.727-1.08.393 5.672 15.582 1.08-.393L2.132 4.727Z"/>
            <path d="m4.961 1.935-1.131.2 2.88 16.33 1.13-.2-2.879-16.33Z"/>
            <path d="M8.233-.323h-1.15V16.26h1.15V-.323Z"/>
        </g>
    </g>
    <mask id="c" style="mask-type:luminance" maskUnits="userSpaceOnUse" x="1" y="1" width="37" height="37">
        <path d="M37.077 19.5c0 9.707-7.869 17.575-17.576 17.575-7.023 0-13.083-4.118-15.898-10.073a17.507 17.507 0 0 1-1.677-7.501c0-9.707 7.869-17.575 17.576-17.575 9.194 0 16.74 7.06 17.51 16.053.043.502.065 1.009.065 1.522Z" fill="#fff"/>
    </mask>
    <g mask="url(#c)">
        <path d="M37.077 19.5c0 9.707-7.869 17.575-17.576 17.575-7.023 0-13.083-4.118-15.898-10.073a17.507 17.507 0 0 1-1.677-7.501c0-9.707 7.869-17.575 17.576-17.575 9.194 0 16.74 7.06 17.51 16.053.043.502.065 1.009.065 1.522Z" fill="url(#d)"/>
        <path d="M37.077 19.5c0 9.707-7.869 17.575-17.576 17.575-7.023 0-13.083-4.118-15.898-10.073a31.312 31.312 0 0 0 6.204 1.394c10.624 1.28 20.643-2.938 27.205-10.417.043.502.065 1.009.065 1.522Z" fill="url(#e)"/>
        <g opacity=".2" fill="#FCEE21">
            <path d="M2.68 36.034a.043.043 0 0 0-.06-.001.043.043 0 0 0-.002.06l.015.015a.042.042 0 0 0 .06.002.043.043 0 0 0 .002-.06l-.015-.016ZM33.805 3.378c.008.007.017.01.028.01a.042.042 0 0 0 .032-.014.043.043 0 0 0-.005-.06l-.016-.014a.043.043 0 0 0-.06.004.043.043 0 0 0 .004.06l.016.014ZM32.098 2.038l.017.012a.043.043 0 1 0 .05-.07l-.018-.012a.043.043 0 1 0-.05.07ZM35.36 4.86a.042.042 0 0 0 .061.002.043.043 0 0 0 .001-.06l-.014-.016a.043.043 0 1 0-.062.059l.014.015ZM36.77 6.482c.008.011.02.017.033.017a.042.042 0 0 0 .033-.07l-.013-.016a.042.042 0 1 0-.067.053l.013.016ZM2.634 4.904a.043.043 0 0 0 .031-.013l.015-.015a.043.043 0 0 0-.002-.06.043.043 0 0 0-.06 0l-.015.016a.043.043 0 0 0 .031.072ZM4.19 3.417c.01 0 .02-.004.029-.01l.016-.015a.043.043 0 0 0-.056-.064l-.016.014a.042.042 0 0 0 .028.075ZM5.88 2.083a.044.044 0 0 0 .025-.008l.018-.012a.043.043 0 1 0-.05-.07l-.017.013a.043.043 0 0 0 .025.077ZM36.843 34.404a.042.042 0 0 0-.06.007l-.013.017a.043.043 0 0 0 .067.052l.013-.017a.042.042 0 0 0-.007-.06ZM35.437 36.093a.043.043 0 1 0-.062-.058l-.015.015a.043.043 0 0 0 .002.06.043.043 0 0 0 .06-.002l.015-.015ZM3.54 6.719a.129.129 0 0 0 .183-.01l.014-.016a.13.13 0 0 0-.193-.174l-.014.016a.13.13 0 0 0 .01.183ZM32.796 35.74l-.016.014a.13.13 0 0 0 .174.193l.016-.014a.13.13 0 0 0-.174-.193ZM8.652 2.668a.128.128 0 0 0 .065-.018l.019-.01a.13.13 0 0 0-.13-.225l-.02.01a.13.13 0 0 0 .066.243ZM3.735 34.214a.13.13 0 0 0-.193.175l.014.015a.13.13 0 0 0 .184.01.13.13 0 0 0 .01-.183l-.015-.017ZM2.38 32.541a.13.13 0 1 0-.21.154l.012.017a.13.13 0 0 0 .182.028.13.13 0 0 0 .028-.18l-.013-.018ZM5.273 35.752l-.016-.015a.13.13 0 0 0-.174.193l.016.015a.13.13 0 0 0 .174-.193ZM6.946 37.106l-.017-.012a.13.13 0 1 0-.153.21l.018.013a.13.13 0 0 0 .18-.03.13.13 0 0 0-.028-.18ZM34.307 6.68a.13.13 0 0 0 .183.009.13.13 0 0 0 .009-.184l-.014-.015a.13.13 0 0 0-.192.174l.014.016ZM35.664 8.351a.13.13 0 0 0 .181.028.13.13 0 0 0 .028-.181l-.013-.017a.13.13 0 0 0-.21.153l.014.017ZM2.188 8.412a.13.13 0 0 0 .181-.029l.013-.018a.13.13 0 1 0-.21-.152l-.013.017a.13.13 0 0 0 .029.181ZM6.838 3.851a.128.128 0 0 0 .076-.025l.018-.012a.13.13 0 0 0-.153-.21l-.018.013a.13.13 0 0 0 .077.234ZM29.285 2.62l.019.01a.13.13 0 0 0 .13-.225l-.02-.01a.13.13 0 0 0-.129.225ZM37.026 30.692a.13.13 0 0 0-.178.047l-.01.019a.13.13 0 0 0 .224.13l.01-.019a.13.13 0 0 0-.046-.177ZM36.828 10.136l.01.018a.13.13 0 1 0 .225-.13l-.01-.018a.13.13 0 0 0-.225.13ZM5.157 5.218a.13.13 0 0 0 .087-.033l.016-.015a.13.13 0 0 0-.175-.192l-.015.014a.13.13 0 0 0 .087.226ZM34.511 34.39a.13.13 0 0 0-.193-.173l-.014.015a.13.13 0 1 0 .192.175l.015-.017ZM35.872 32.714l.012-.017a.13.13 0 0 0-.028-.181.13.13 0 0 0-.181.028l-.014.018a.13.13 0 1 0 .211.152ZM32.767 5.144l.016.014a.13.13 0 0 0 .174-.193l-.016-.014a.13.13 0 0 0-.174.193ZM31.092 3.79l.017.013a.13.13 0 0 0 .181-.028.13.13 0 0 0-.028-.181l-.018-.013a.13.13 0 0 0-.181.028.13.13 0 0 0 .029.181ZM31.124 37.096l-.017.013a.13.13 0 1 0 .153.209l.017-.012a.13.13 0 1 0-.153-.21ZM30.337 5.736l.017.013a.215.215 0 0 0 .304-.039.217.217 0 0 0-.04-.304l-.016-.013a.217.217 0 1 0-.265.344ZM35.98 28.545a.217.217 0 0 0-.29.1l-.01.018a.217.217 0 0 0 .389.192l.01-.02a.217.217 0 0 0-.1-.29ZM36.916 26.857l.008-.02a.217.217 0 0 0-.41-.144l-.006.02a.217.217 0 0 0 .408.144ZM36.51 14.202a.217.217 0 0 0 .407-.147l-.007-.02a.217.217 0 1 0-.408.147l.007.02ZM37.107 16.233a.217.217 0 0 0 .423-.097l-.005-.022a.217.217 0 1 0-.422.1l.004.02ZM10.375 36.88l-.02-.011a.217.217 0 1 0-.201.384l.018.01a.216.216 0 1 0 .203-.384ZM20.586 1.959l.02.002h.02a.217.217 0 0 0 .018-.432l-.022-.002a.217.217 0 0 0-.036.432ZM22.684 2.255l.02.004a.217.217 0 0 0 .085-.425l-.02-.005a.217.217 0 0 0-.085.426ZM5.177 7.992a.216.216 0 0 0 .16-.07l.015-.016a.217.217 0 1 0-.32-.293l-.015.016a.217.217 0 0 0 .16.363ZM35.771 11.942a.217.217 0 0 0-.098.29l.01.02a.217.217 0 1 0 .388-.193l-.01-.019a.217.217 0 0 0-.29-.099ZM28.587 4.542l.018.01a.216.216 0 0 0 .298-.073.217.217 0 0 0-.074-.298l-.018-.01a.217.217 0 0 0-.224.37ZM28.617 36.35l-.017.01a.217.217 0 1 0 .223.372l.02-.012a.217.217 0 1 0-.225-.37ZM6.713 6.496c.05 0 .101-.017.142-.053l.016-.014a.217.217 0 1 0-.285-.327l-.016.014a.217.217 0 0 0 .143.38ZM30.365 35.152l-.017.013a.217.217 0 0 0 .265.343l.017-.013a.217.217 0 1 0-.265-.344ZM2.556 11.428a.218.218 0 0 0 .296-.082l.01-.02a.217.217 0 0 0-.378-.211l-.01.018a.217.217 0 0 0 .083.295ZM3.659 9.29l-.013.018a.217.217 0 1 0 .351.255l.013-.017a.217.217 0 1 0-.351-.256ZM6.904 34.796a.217.217 0 0 0-.023-.306l-.016-.014a.217.217 0 1 0-.283.329l.016.013a.216.216 0 0 0 .306-.022ZM34.638 10.41a.216.216 0 1 0 .364-.237l-.011-.017a.217.217 0 0 0-.365.235l.013.019ZM31.966 33.764l-.015.014a.217.217 0 0 0 .301.312l.016-.016a.217.217 0 0 0-.302-.31ZM5.347 32.999a.217.217 0 0 0-.32.293l.015.016a.217.217 0 1 0 .319-.294L5.347 33ZM10.24 4.073c.035 0 .07-.008.101-.025l.02-.01a.217.217 0 1 0-.204-.383l-.019.01a.217.217 0 0 0 .102.408ZM4.006 31.36a.217.217 0 1 0-.351.254l.013.017a.217.217 0 1 0 .35-.255l-.012-.017ZM26.711 3.555l.02.008a.218.218 0 0 0 .287-.106.217.217 0 0 0-.107-.288l-.02-.009a.217.217 0 0 0-.18.395ZM12.188 3.18a.218.218 0 0 0 .079-.016l.019-.007a.217.217 0 1 0-.157-.404l-.02.007a.217.217 0 0 0 .079.42ZM14.226 2.514a.217.217 0 0 0 .055-.007l.02-.005a.217.217 0 1 0-.11-.42l-.02.006a.216.216 0 0 0 .055.426ZM8.617 36.086a.217.217 0 0 0-.057-.302l-.017-.012a.217.217 0 0 0-.246.358l.019.012a.215.215 0 0 0 .3-.056ZM33.39 8.696a.217.217 0 0 0 .336-.274l-.014-.017a.217.217 0 0 0-.335.275l.012.016ZM33.704 32.172a.217.217 0 0 0-.305.03l-.013.017a.217.217 0 0 0 .335.275l.014-.017a.216.216 0 0 0-.03-.305h-.001ZM34.946 30.424a.217.217 0 0 0-.3.064l-.012.019a.217.217 0 1 0 .365.233l.01-.017a.217.217 0 0 0-.064-.3v.001ZM24.735 2.789l.02.006a.216.216 0 1 0 .134-.412l-.021-.007a.217.217 0 0 0-.133.412ZM1.924 27.678a.217.217 0 1 0-.4.169l.009.02a.217.217 0 1 0 .4-.17l-.009-.02ZM1.633 13.364a.217.217 0 0 0 .284-.115l.009-.02a.217.217 0 0 0-.4-.168l-.008.019a.217.217 0 0 0 .115.284ZM8.408 5.184a.216.216 0 0 0 .122-.038l.019-.012a.217.217 0 0 0-.247-.357l-.017.011a.217.217 0 0 0 .123.396ZM16.326 2.087c.01 0 .021 0 .032-.002l.02-.003a.217.217 0 1 0-.061-.429l-.022.003a.217.217 0 0 0 .031.432ZM2.86 29.577a.217.217 0 0 0-.378.215l.01.017a.217.217 0 1 0 .378-.212l-.01-.02ZM31.956 7.137a.216.216 0 1 0 .302-.311l-.016-.016a.217.217 0 0 0-.301.312l.015.014ZM23.712 4.578l.02.006a.304.304 0 1 0 .17-.584l-.02-.006a.304.304 0 1 0-.17.584ZM13.183 4.946c.035 0 .07-.006.105-.018l.022-.008a.304.304 0 1 0-.213-.57l-.019.007a.304.304 0 0 0 .105.59ZM25.704 5.307l.02.009a.303.303 0 0 0 .4-.156.304.304 0 0 0-.156-.401l-.02-.009a.304.304 0 1 0-.244.557ZM17.383 3.984h.03l.02-.003a.304.304 0 1 0-.056-.605l-.023.002a.304.304 0 0 0 .029.607ZM29.325 7.498l.017.013a.303.303 0 0 0 .428-.048.304.304 0 0 0-.049-.427l-.017-.013a.304.304 0 1 0-.378.475ZM21.643 4.11l.022.004a.304.304 0 0 0 .096-.6l-.022-.004a.304.304 0 0 0-.096.6ZM9.367 6.947c.06 0 .122-.018.174-.055l.019-.013a.304.304 0 1 0-.35-.496l-.017.011a.304.304 0 0 0 .174.554v-.001ZM19.533 3.913h.03a.304.304 0 0 0 .011-.607h-.023a.304.304 0 0 0-.018.608ZM11.21 5.824a.302.302 0 0 0 .14-.034l.021-.011a.304.304 0 0 0-.284-.537l-.017.01a.304.304 0 0 0 .14.573ZM27.483 5.869a.304.304 0 0 0 .102.417l.018.011a.302.302 0 0 0 .418-.102.304.304 0 0 0-.103-.418l-.018-.01a.304.304 0 0 0-.417.102ZM15.252 4.33a.305.305 0 0 0 .068-.008l.022-.005a.304.304 0 0 0-.137-.592l-.02.004a.304.304 0 0 0 .067.6v.001ZM7.682 8.296a.302.302 0 0 0 .204-.08l.016-.014a.304.304 0 0 0-.41-.45l-.015.015a.304.304 0 0 0 .204.529ZM11.38 35.136l-.02-.01a.304.304 0 1 0-.28.539l.018.01a.302.302 0 0 0 .41-.129.304.304 0 0 0-.128-.41ZM9.566 34.035l-.016-.011a.304.304 0 0 0-.35.497l.019.013a.303.303 0 0 0 .423-.076.304.304 0 0 0-.076-.423ZM30.912 8.937a.303.303 0 1 0 .437-.424l-.015-.015a.304.304 0 1 0-.436.424l.014.015ZM32.768 30.733l.012-.016a.304.304 0 1 0-.486-.364l-.013.017a.304.304 0 0 0 .487.363ZM33.55 11.892a.304.304 0 0 0-.114.414l.01.019a.304.304 0 1 0 .53-.3l-.01-.018a.304.304 0 0 0-.415-.115ZM34.532 27.08a.304.304 0 0 0 .397-.166l.008-.02a.304.304 0 1 0-.564-.228l-.007.019a.304.304 0 0 0 .166.396ZM34.65 14.422a.304.304 0 0 0 .281-.419l-.007-.02a.304.304 0 0 0-.564.23l.009.02c.048.117.162.189.282.189ZM13.32 35.994l-.02-.007a.304.304 0 1 0-.21.57l.02.008a.304.304 0 0 0 .208-.571h.001ZM7.893 32.7a.304.304 0 0 0-.41.449l.017.015a.303.303 0 0 0 .43-.022.304.304 0 0 0-.022-.429l-.015-.013ZM23.745 36.323l-.02.005a.304.304 0 1 0 .171.584l.022-.007a.304.304 0 1 0-.173-.582ZM5.985 9.776a.303.303 0 0 0 .428-.035l.013-.015a.304.304 0 1 0-.462-.396l-.015.018a.304.304 0 0 0 .036.428ZM30.918 31.967l-.015.016a.304.304 0 0 0 .437.422l.014-.015a.304.304 0 1 0-.436-.423ZM6.418 31.175a.304.304 0 0 0-.463.394l.015.017a.303.303 0 1 0 .462-.395l-.014-.016ZM19.568 36.996h-.023a.304.304 0 0 0 .01.608h.032a.304.304 0 0 0-.018-.608ZM21.678 36.793l-.023.004a.304.304 0 1 0 .1.6l.019-.003a.304.304 0 0 0-.096-.6ZM32.275 10.533l.013.017a.304.304 0 1 0 .487-.364l-.013-.017a.304.304 0 0 0-.487.364ZM15.354 36.596l-.02-.005a.304.304 0 0 0-.135.592l.02.005a.304.304 0 0 0 .135-.593ZM25.734 35.59l-.02.009a.304.304 0 1 0 .248.554l.018-.008a.304.304 0 0 0-.246-.556ZM17.447 36.93l-.02-.002a.304.304 0 0 0-.06.605l.023.002.029.001a.304.304 0 0 0 .028-.606ZM27.611 34.608l-.016.01a.304.304 0 1 0 .313.52l.02-.011a.304.304 0 1 0-.317-.52ZM3.972 12.865a.304.304 0 0 0-.406.141l-.01.02a.304.304 0 1 0 .548.264l.01-.019a.304.304 0 0 0-.142-.406ZM36.186 20.418a.304.304 0 0 0-.608.002V20.476c0 .168.135.304.303.305h.001a.304.304 0 0 0 .304-.303v-.06ZM35.624 24.827l.006-.02a.304.304 0 0 0-.589-.155l-.005.02a.304.304 0 0 0 .588.155ZM5.161 29.494l-.01-.017a.304.304 0 0 0-.51.33l.012.019a.304.304 0 1 0 .508-.333ZM35.782 18.587a.304.304 0 0 0 .264-.34l-.003-.021a.304.304 0 0 0-.603.077l.003.02a.304.304 0 0 0 .34.264ZM2.423 23.373a.304.304 0 0 0-.241.356l.004.023a.304.304 0 0 0 .597-.118l-.004-.02a.304.304 0 0 0-.356-.24ZM1.903 19.374a.304.304 0 0 0 .284.322h.02c.159 0 .293-.123.302-.284l.002-.02a.304.304 0 1 0-.607-.04l-.001.022ZM2.78 17.287a.304.304 0 0 0-.597-.115l-.004.021a.304.304 0 0 0 .597.116l.004-.022ZM4.724 11.53a.303.303 0 0 0 .42-.089l.012-.017a.304.304 0 0 0-.508-.333l-.013.019a.304.304 0 0 0 .09.42ZM4.11 27.63a.304.304 0 1 0-.548.265l.01.02a.304.304 0 0 0 .547-.266l-.01-.019ZM2.74 15.045l-.007.021a.304.304 0 1 0 .577.19l.006-.019a.304.304 0 1 0-.576-.192ZM35.784 22.308a.304.304 0 0 0-.34.264l-.003.02a.304.304 0 0 0 .603.078l.003-.022a.304.304 0 0 0-.263-.34ZM35.032 16.223l.006.02a.304.304 0 0 0 .588-.154l-.006-.02a.304.304 0 1 0-.588.154ZM3.314 25.665a.304.304 0 0 0-.577.192l.007.02a.304.304 0 0 0 .577-.191l-.007-.021ZM2.228 21.855a.304.304 0 0 0 .284-.323l-.002-.02a.305.305 0 0 0-.607.037l.002.022c.01.161.144.285.303.285h.02ZM29.349 33.393l-.017.014a.304.304 0 1 0 .38.474l.016-.013a.304.304 0 0 0-.38-.475ZM33.866 28.46a.304.304 0 0 0-.414.116l-.01.017a.304.304 0 1 0 .528.302l.012-.02a.304.304 0 0 0-.116-.415ZM30.013 10.93a.39.39 0 0 0 .552.038.391.391 0 0 0 .038-.551l-.014-.017a.391.391 0 1 0-.589.515l.013.015ZM21.105 34.847l-.02.003a.39.39 0 1 0 .11.774l.02-.003a.39.39 0 1 0-.11-.774ZM23.101 6.494l.018.005a.39.39 0 0 0 .486-.264.391.391 0 0 0-.264-.486l-.023-.006a.392.392 0 0 0-.217.751ZM23.13 34.407l-.018.006a.391.391 0 0 0 .218.751l.022-.006a.391.391 0 0 0-.221-.75ZM32.955 14.06a.39.39 0 1 0-.71.327l.008.018a.391.391 0 0 0 .712-.324l-.01-.02ZM26.75 7.669a.391.391 0 0 0 .118.54l.019.012a.39.39 0 0 0 .54-.12.391.391 0 0 0-.12-.54l-.018-.01a.391.391 0 0 0-.54.118ZM28.49 8.898a.39.39 0 0 0 .04.551l.016.015a.388.388 0 0 0 .552-.042.391.391 0 0 0-.042-.551l-.015-.013a.39.39 0 0 0-.551.04ZM33.748 17.91a.391.391 0 0 0-.331.444l.002.02a.391.391 0 0 0 .775-.11l-.003-.022a.391.391 0 0 0-.443-.331ZM31.246 12.57l.012.02a.39.39 0 1 0 .656-.426l-.01-.017a.39.39 0 1 0-.658.424ZM24.851 6.698a.39.39 0 0 0 .195.518l.018.008a.39.39 0 0 0 .518-.192.391.391 0 0 0-.192-.52l-.02-.009a.39.39 0 0 0-.518.195ZM32.442 27.032a.392.392 0 0 0 .518-.193l.009-.02a.391.391 0 0 0-.711-.325l-.01.02a.391.391 0 0 0 .194.518ZM32.974 16.329l.005.018a.391.391 0 0 0 .751-.218l-.006-.022a.391.391 0 1 0-.75.222ZM12.641 6.524a.391.391 0 0 0 .325.712l.022-.01a.391.391 0 1 0-.33-.71l-.017.008ZM4.583 16.64a.39.39 0 0 0 .485-.266l.006-.019a.391.391 0 1 0-.75-.22l-.007.02a.391.391 0 0 0 .266.485ZM3.706 20.45v.021a.391.391 0 0 0 .782 0v-.02a.391.391 0 1 0-.782 0ZM4.632 18.401l.003-.02a.39.39 0 0 0-.332-.44.393.393 0 0 0-.443.334l-.003.018a.391.391 0 0 0 .775.109ZM33.864 22.192a.392.392 0 0 0-.443.332l-.002.02a.391.391 0 0 0 .774.112l.003-.022a.391.391 0 0 0-.332-.442ZM34.35 20.455v-.035a.391.391 0 0 0-.391-.39h-.002a.391.391 0 0 0-.39.393V20.475c0 .216.174.391.39.392h.002a.39.39 0 0 0 .39-.39v-.022ZM6.132 28.732l.011.017a.39.39 0 1 0 .658-.423l-.012-.018a.391.391 0 0 0-.657.424ZM19.036 35.776a.39.39 0 1 0-.002-.782h-.019a.391.391 0 1 0 0 .782h.021ZM6.455 12.789a.39.39 0 0 0 .33-.18l.011-.018a.39.39 0 0 0-.118-.539.393.393 0 0 0-.542.12l-.01.014a.391.391 0 0 0 .33.602ZM16.856 35.623a.391.391 0 0 0 .11-.774l-.022-.003a.391.391 0 0 0-.106.775l.018.002ZM5.088 14.087l-.008.018a.391.391 0 0 0 .71.326l.01-.02a.39.39 0 1 0-.712-.324ZM31.92 28.738a.39.39 0 1 0-.658-.424l-.012.019a.391.391 0 0 0 .659.423l.01-.018ZM9.553 32.001a.391.391 0 0 0-.04-.551l-.016-.015a.391.391 0 0 0-.51.592L9 32.04a.389.389 0 0 0 .552-.039ZM13.189 34.205a.39.39 0 0 0-.195-.518l-.018-.008a.391.391 0 0 0-.324.712l.02.009a.39.39 0 0 0 .518-.195h-.001ZM33.727 24.791l.007-.02a.391.391 0 0 0-.751-.22l-.006.02a.391.391 0 1 0 .75.22ZM11.291 33.234a.391.391 0 0 0-.116-.54l-.02-.013a.391.391 0 0 0-.42.66l.015.01a.391.391 0 0 0 .54-.117ZM14.721 35.163a.39.39 0 1 0 .217-.751l-.02-.007a.391.391 0 1 0-.217.752l.02.006ZM4.812 25.052a.391.391 0 0 0 .265-.485l-.005-.02a.391.391 0 0 0-.751.218l.006.021a.391.391 0 0 0 .485.265ZM5.795 26.49a.391.391 0 0 0-.711.325l.009.019a.391.391 0 0 0 .711-.326l-.009-.019ZM8.032 29.968a.39.39 0 1 0-.59.513l.013.016a.39.39 0 0 0 .552.039.391.391 0 0 0 .039-.552l-.014-.016ZM4.636 22.54l-.003-.02a.391.391 0 0 0-.775.109l.004.022a.391.391 0 1 0 .774-.111ZM25.4 34.393a.391.391 0 0 0-.326-.712l-.019.009a.391.391 0 0 0 .324.711l.02-.009ZM21.072 6.059l.023.003a.391.391 0 0 0 .107-.775l-.019-.002a.39.39 0 1 0-.11.774ZM16.492 5.734a.391.391 0 0 0 .442.331l.021-.002a.39.39 0 1 0-.11-.775l-.022.003a.39.39 0 0 0-.331.443ZM30.595 30.503l.014-.016a.391.391 0 1 0-.591-.512l-.014.016a.39.39 0 1 0 .59.512ZM28.55 31.442l-.014.012a.391.391 0 0 0 .51.593l.018-.015a.391.391 0 0 0-.514-.59ZM14.423 6.244a.391.391 0 0 0 .486.263l.018-.005a.391.391 0 1 0-.217-.751l-.023.007a.391.391 0 0 0-.264.486ZM19.003 5.916h.023a.391.391 0 0 0-.002-.782h-.021a.391.391 0 1 0 0 .782ZM27.433 32.804a.39.39 0 0 0-.54-.118l-.02.012a.392.392 0 0 0 .426.656l.016-.01a.391.391 0 0 0 .118-.54ZM10.61 8.117a.39.39 0 0 0 .541.115l.018-.012a.392.392 0 0 0-.426-.656l-.018.012a.392.392 0 0 0-.115.54v.001ZM7.476 10.988a.389.389 0 0 0 .552-.041l.013-.015a.391.391 0 1 0-.59-.513l-.015.017a.391.391 0 0 0 .04.552ZM9.236 9.575a.389.389 0 0 0 .257-.096l.016-.014a.391.391 0 0 0-.514-.59l-.016.013a.391.391 0 0 0 .257.687ZM32.328 22.694l.004-.02a.478.478 0 0 0-.944-.157l-.004.021a.478.478 0 1 0 .944.156ZM31.17 25.15a.48.48 0 0 0 .609-.295l.008-.023a.478.478 0 0 0-.905-.31l-.007.019a.478.478 0 0 0 .294.608ZM14.246 32.564a.48.48 0 0 0-.247-.63l-.019-.009a.478.478 0 0 0-.38.878l.014.006.003.001a.478.478 0 0 0 .629-.246ZM27.515 29.671l-.016.015a.478.478 0 1 0 .65.702l.015-.015a.478.478 0 0 0-.65-.702ZM29.654 12.151a.478.478 0 1 0-.753.59l.011.014a.478.478 0 1 0 .756-.585l-.014-.019ZM17.91 7.016l-.019.002a.478.478 0 0 0 .079.953l.024-.002a.479.479 0 0 0-.084-.953ZM31.776 16.046a.478.478 0 0 0-.904.314l.007.018a.479.479 0 0 0 .905-.31l-.008-.022ZM8.392 28.747a.478.478 0 1 0 .753-.59l-.011-.015a.478.478 0 1 0-.756.586l.014.02v-.001ZM24.697 32.175a.478.478 0 0 0-.63-.246l-.021.01a.478.478 0 1 0 .387.873l.018-.007a.478.478 0 0 0 .246-.63ZM9.06 12.086a.478.478 0 0 0-.671.082l-.015.018a.478.478 0 1 0 .755.587l.012-.015a.478.478 0 0 0-.081-.671ZM30.89 26.873a.478.478 0 1 0-.84-.457l-.01.019a.478.478 0 1 0 .84.456l.01-.018ZM30.227 13.82a.478.478 0 0 0-.19.65l.008.015a.478.478 0 1 0 .843-.453l-.012-.022a.478.478 0 0 0-.649-.19ZM22.691 32.947a.478.478 0 0 0-.58-.346l-.022.005a.478.478 0 1 0 .236.927l.02-.005a.478.478 0 0 0 .346-.58ZM16.306 33.186a.478.478 0 0 0-.346-.58l-.023-.007a.478.478 0 0 0-.23.929l.018.004a.477.477 0 0 0 .581-.346ZM26.546 31.082a.478.478 0 0 0-.662-.14l-.02.014a.478.478 0 1 0 .528.797l.015-.01a.478.478 0 0 0 .14-.662ZM11.636 9.175a.478.478 0 1 0 .522.801l.02-.013a.478.478 0 1 0-.528-.798l-.015.01ZM26.383 9.15a.478.478 0 0 0-.521.803l.016.01a.476.476 0 0 0 .662-.138.478.478 0 0 0-.138-.662l-.02-.012ZM10.205 11.376a.476.476 0 0 0 .325-.127l.014-.013a.478.478 0 1 0-.646-.705l-.017.016a.478.478 0 0 0 .325.829ZM7.35 14.699a.48.48 0 0 0 .648-.192l.01-.02a.478.478 0 0 0-.841-.454l-.01.018a.478.478 0 0 0 .192.648ZM27.467 10.546a.478.478 0 0 0 .03.676l.013.013a.476.476 0 0 0 .676-.027.478.478 0 0 0-.026-.676l-.018-.015a.478.478 0 0 0-.675.029ZM6.27 16.072l-.006.02a.478.478 0 1 0 .905.31l.006-.02a.478.478 0 0 0-.904-.31ZM19.602 7.451a.478.478 0 0 0 .437.516l.024.002a.478.478 0 1 0 .073-.954l-.019-.002a.478.478 0 0 0-.515.438ZM6.67 22.532l-.003-.02a.478.478 0 0 0-.944.154l.004.023a.478.478 0 0 0 .943-.157ZM21.734 7.722a.478.478 0 0 0 .349.58l.02.005a.478.478 0 1 0 .23-.928l-.02-.006a.478.478 0 0 0-.58.35ZM23.794 8.339a.478.478 0 0 0 .245.63l.021.01a.478.478 0 1 0 .382-.878l-.018-.007a.478.478 0 0 0-.63.245ZM15.35 7.966a.478.478 0 0 0 .58.346l.021-.005a.478.478 0 1 0-.235-.927l-.02.005a.478.478 0 0 0-.347.581ZM13.346 8.743a.478.478 0 0 0 .63.243l.02-.008a.478.478 0 1 0-.388-.874l-.02.008a.478.478 0 0 0-.242.631ZM32.513 20.423a.478.478 0 0 0-.478-.477h-.001a.478.478 0 0 0-.477.48v.049c0 .263.212.478.476.479h.002a.478.478 0 0 0 .478-.477v-.055ZM17.904 33.894l.019.001.04.002a.478.478 0 0 0 .038-.955l-.024-.002a.478.478 0 0 0-.073.954ZM10.576 30.355a.478.478 0 0 0-.026-.676l-.017-.015a.478.478 0 1 0-.646.704l.014.014a.476.476 0 0 0 .676-.027ZM7.82 27.076a.478.478 0 0 0 .192-.648l-.01-.018a.479.479 0 0 0-.842.454l.011.02a.477.477 0 0 0 .649.192ZM7.178 24.536l-.006-.018a.478.478 0 0 0-.905.307l.007.023a.479.479 0 1 0 .904-.312ZM12.32 31.612a.478.478 0 0 0-.137-.662l-.02-.013a.478.478 0 0 0-.521.802l.016.01a.478.478 0 0 0 .662-.137ZM32.326 18.204a.479.479 0 0 0-.943.16l.003.02a.478.478 0 1 0 .944-.157l-.004-.023ZM5.542 20.449v.021a.478.478 0 0 0 .957 0v-.021a.478.478 0 0 0-.957 0ZM28.985 28.835a.476.476 0 0 0 .672-.08l.015-.02a.478.478 0 1 0-.755-.586l-.012.015a.478.478 0 0 0 .08.671ZM5.725 18.23l-.003.023a.479.479 0 0 0 .943.154l.004-.02a.478.478 0 0 0-.944-.156ZM20.088 33.897c.013 0 .026 0 .04-.002l.02-.001a.479.479 0 0 0-.078-.953l-.02.001a.478.478 0 0 0 .038.955ZM29.27 16.777a.565.565 0 0 0 .521-.783l-.007-.019a.565.565 0 1 0-1.044.434l.008.02c.09.218.301.348.522.348ZM25.501 10.77l-.02-.013a.565.565 0 0 0-.626.94l.016.012a.563.563 0 0 0 .785-.155.566.566 0 0 0-.154-.784ZM29.342 18.38l.004.02a.566.566 0 0 0 1.11-.22l-.005-.023a.565.565 0 0 0-1.109.224ZM27.249 12.202a.565.565 0 1 0-.798.801l.016.016a.563.563 0 0 0 .8-.003.565.565 0 0 0-.003-.8l-.015-.014ZM28.701 13.964a.565.565 0 1 0-.938.63l.012.018a.565.565 0 1 0 .939-.63l-.012-.018ZM23.796 30.478a.566.566 0 0 0-.74-.305l-.019.009a.565.565 0 0 0 .434 1.043l.02-.008a.565.565 0 0 0 .305-.739ZM21.75 31.215a.565.565 0 0 0-.666-.444l-.021.005a.566.566 0 0 0 .223 1.108l.02-.004a.566.566 0 0 0 .444-.666ZM21.303 9.029l-.024-.005a.565.565 0 0 0-.216 1.11l.018.003a.566.566 0 0 0 .223-1.109ZM23.036 10.728l.02.008a.564.564 0 0 0 .738-.308.565.565 0 0 0-.308-.738l-.02-.008a.565.565 0 0 0-.43 1.045ZM30.111 19.865h-.001a.565.565 0 0 0-.564.567v.043a.565.565 0 0 0 .564.566h.001a.565.565 0 0 0 .566-.563v-.05a.565.565 0 0 0-.566-.563ZM7.602 18.175l-.004.02a.565.565 0 1 0 1.11.22l.003-.021a.565.565 0 0 0-1.109-.218ZM12.545 30.134l.018.013a.563.563 0 0 0 .784-.157.565.565 0 0 0-.156-.784l-.018-.011a.566.566 0 0 0-.628.94v-.001ZM12.857 11.813a.564.564 0 0 0 .315-.096l.017-.011a.565.565 0 1 0-.63-.94l-.018.012a.565.565 0 0 0 .316 1.035ZM14.555 31.213l.022.01a.565.565 0 1 0 .431-1.045l-.018-.008a.565.565 0 1 0-.435 1.043ZM14.573 9.69l-.02.008a.565.565 0 0 0 .434 1.043l.019-.008a.565.565 0 1 0-.434-1.044ZM10.797 28.698a.563.563 0 0 0 .8 0 .565.565 0 0 0 0-.8l-.016-.015a.565.565 0 0 0-.8.8l.016.015ZM16.742 31.88l.022.003a.566.566 0 0 0 .216-1.11l-.02-.004a.566.566 0 0 0-.218 1.11ZM10.13 13.823a.565.565 0 0 0-.784.152l-.014.02a.565.565 0 0 0 .941.628l.01-.015a.565.565 0 0 0-.152-.785ZM9.347 26.936a.565.565 0 1 0 .939-.63l-.012-.017a.565.565 0 1 0-.94.628l.013.019ZM10.793 12.216l-.013.013a.565.565 0 0 0 .8.8l.016-.017a.565.565 0 1 0-.803-.796ZM8.257 16.01a.565.565 0 0 0 1.045.431l.008-.018a.566.566 0 0 0-1.044-.434l-.009.021ZM8.259 24.904l.008.02a.566.566 0 0 0 1.044-.434l-.008-.02a.565.565 0 1 0-1.044.434ZM19.012 32.103h.022a.565.565 0 0 0 .001-1.13h-.023a.565.565 0 0 0 0 1.13ZM27.918 27.097a.565.565 0 0 0 .785-.152l.013-.02a.565.565 0 1 0-.94-.628l-.01.015a.565.565 0 0 0 .152.785ZM29.793 24.912a.566.566 0 0 0-1.044-.434l-.009.02a.566.566 0 0 0 1.045.434l.008-.02ZM19.03 8.807h-.02a.565.565 0 1 0 0 1.13h.02a.565.565 0 0 0 0-1.13ZM8.712 22.519l-.004-.02a.566.566 0 0 0-1.11.218l.005.022a.565.565 0 1 0 1.109-.22ZM26.852 28.87a.563.563 0 0 0 .399-.165l.016-.015a.565.565 0 0 0-.8-.8l-.014.014a.565.565 0 0 0 .4.966h-.001ZM30.45 22.749l.005-.022a.565.565 0 1 0-1.109-.22l-.004.02a.565.565 0 1 0 1.11.221h-.001ZM7.379 20.446v.021a.565.565 0 1 0 1.13 0v-.021a.565.565 0 0 0-1.13 0ZM16.76 9.027l-.024.005a.566.566 0 0 0 .223 1.109l.018-.004a.565.565 0 1 0-.217-1.11ZM25.171 30.247c.108 0 .217-.031.314-.096l.019-.012a.565.565 0 1 0-.63-.94l-.017.012a.565.565 0 0 0 .314 1.036ZM27.309 18.495a.653.653 0 0 0 1.27-.302l-.006-.02a.652.652 0 0 0-1.27.302l.006.02ZM9.808 17.088l-.007.021a.653.653 0 0 0 1.226.445l.007-.019a.652.652 0 1 0-1.226-.447ZM27.787 23.222a.653.653 0 0 0 .786-.484l.005-.021a.652.652 0 0 0-1.27-.3l-.004.02a.653.653 0 0 0 .484.785ZM16.198 11.057a.653.653 0 0 0 .378 1.25l.016-.006a.653.653 0 0 0-.37-1.25l-.024.006ZM26.912 15.746a.652.652 0 0 0-.287.877l.008.015a.652.652 0 1 0 1.167-.583l-.01-.022a.652.652 0 0 0-.878-.287ZM14.108 11.964a.652.652 0 1 0 .657 1.128l.018-.011a.652.652 0 1 0-.657-1.128l-.018.01ZM17.83 11.35a.653.653 0 0 0 .69.613l.017-.001a.653.653 0 0 0-.07-1.303l-.024.001a.653.653 0 0 0-.613.69ZM11.737 14.87a.654.654 0 0 0-.905.188l-.01.015a.653.653 0 0 0 1.091.715l.01-.016a.65.65 0 0 0-.186-.902ZM28.84 20.478v-.045a.653.653 0 0 0-.652-.65h-.003a.652.652 0 0 0-.65.654v.037c0 .36.29.653.65.654h.003c.36 0 .651-.29.652-.65ZM12.259 14.248a.651.651 0 0 0 .922.027l.015-.014a.653.653 0 1 0-.895-.95l-.016.015a.652.652 0 0 0-.027.922ZM24.483 28.466a.649.649 0 0 0 .39-.13l.017-.012a.652.652 0 1 0-.78-1.046l-.017.013a.653.653 0 0 0 .39 1.175ZM22.641 29.527c.084 0 .17-.017.252-.051l.027-.011a.652.652 0 1 0-.52-1.198l-.011.006a.653.653 0 0 0 .252 1.254ZM20.715 30.122l.02-.003a.652.652 0 1 0-.224-1.286l-.02.004a.652.652 0 1 0 .224 1.285ZM10.005 18.733a.652.652 0 0 0-.723.573l-.002.023a.652.652 0 0 0 1.296.147l.003-.02a.652.652 0 0 0-.573-.723ZM18.462 30.25a.653.653 0 0 0 .077-1.302h-.02a.652.652 0 1 0-.078 1.301l.02.002h.001ZM26.532 26.777l.014-.017a.652.652 0 1 0-1-.838l-.014.016a.652.652 0 1 0 1 .839ZM27.79 24.878l.009-.02a.652.652 0 1 0-1.166-.586l-.01.019a.652.652 0 1 0 1.166.587ZM19.96 11.319a.652.652 0 0 0 .532.754l.017.003a.653.653 0 0 0 .23-1.284l-.024-.005a.652.652 0 0 0-.754.531ZM16.2 29.853l.021.006a.652.652 0 0 0 .37-1.251l-.017-.005a.651.651 0 1 0-.374 1.25ZM11.923 25.136l-.012-.018a.653.653 0 0 0-1.089.72l.012.017a.652.652 0 1 0 1.089-.719ZM10.576 21.432a.652.652 0 0 0-1.296.15l.002.021a.653.653 0 0 0 1.296-.15l-.002-.021ZM14.11 28.947l.016.01a.65.65 0 0 0 .892-.239.652.652 0 0 0-.238-.89l-.02-.013a.653.653 0 0 0-.65 1.132ZM12.283 27.581l.016.016a.651.651 0 0 0 .922-.027.652.652 0 0 0-.027-.922l-.014-.014a.652.652 0 1 0-.897.947ZM10.645 24.21a.652.652 0 0 0 .389-.837l-.007-.018A.652.652 0 1 0 9.8 23.8l.008.022a.653.653 0 0 0 .837.389ZM25.613 14.056a.652.652 0 0 0-.077.92l.013.015a.651.651 0 0 0 .919.079.652.652 0 0 0 .08-.92l-.015-.016a.653.653 0 0 0-.92-.078ZM22.043 11.779a.652.652 0 0 0 .342.857l.015.006a.653.653 0 1 0 .524-1.195l-.024-.01a.653.653 0 0 0-.857.342ZM23.961 12.71a.652.652 0 0 0 .135.912l.015.011a.65.65 0 0 0 .913-.131.652.652 0 0 0-.131-.914l-.02-.014a.652.652 0 0 0-.912.135ZM27.004 20.479v-.044a.74.74 0 0 0-.74-.736h-.003a.74.74 0 0 0-.737.742v.033a.74.74 0 0 0 .738.742h.002a.74.74 0 0 0 .74-.738ZM19.608 12.5a.74.74 0 1 0-.103 1.476l.017.001.056.003a.74.74 0 0 0 .055-1.478l-.025-.002ZM12.601 21.412a.74.74 0 0 0-1.463.215l.003.024a.74.74 0 0 0 1.463-.22l-.003-.019ZM14.23 25.923a.739.739 0 0 0 .04-1.045l-.014-.015a.74.74 0 0 0-1.087 1.004l.016.017a.737.737 0 0 0 1.045.039ZM11.983 18.632a.74.74 0 0 0-.841.622l-.004.023a.74.74 0 0 0 1.463.215l.003-.019a.74.74 0 0 0-.621-.84ZM12.831 24.267a.74.74 0 0 0 .344-.988l-.008-.018a.74.74 0 1 0-1.334.641l.01.021a.74.74 0 0 0 .988.344ZM25.608 15.948a.74.74 0 0 0-1.218.838l.01.014a.738.738 0 1 0 1.223-.831l-.015-.021ZM24.577 25.157a.74.74 0 0 0 1.028-.191l.014-.019a.74.74 0 1 0-1.222-.834l-.011.016a.74.74 0 0 0 .19 1.028h.001ZM16.054 27.095a.74.74 0 0 0-.27-1.01l-.015-.009a.74.74 0 0 0-.747 1.276l.022.014a.737.737 0 0 0 1.01-.271ZM26.645 22.826l.006-.02a.74.74 0 1 0-1.413-.437l-.007.02a.74.74 0 1 0 1.414.438ZM23.525 26.864c.16 0 .322-.052.457-.159l.02-.016a.74.74 0 0 0-.922-1.156l-.013.01a.739.739 0 0 0 .458 1.32ZM11.845 16.984l-.009.02a.74.74 0 0 0 1.333.64l.01-.02a.74.74 0 1 0-1.334-.64ZM19.628 28.408a.74.74 0 0 0-.111-1.475l-.018.001a.74.74 0 1 0 .105 1.476l.025-.002ZM25.234 18.527l.006.02a.74.74 0 0 0 1.413-.439l-.007-.02a.74.74 0 0 0-1.412.439ZM17.263 12.676l-.02.005a.74.74 0 0 0 .327 1.442l.02-.005a.74.74 0 0 0-.327-1.442ZM21.946 27.88a.74.74 0 0 0-.542-1.377l-.017.007a.74.74 0 1 0 .535 1.378l.024-.009ZM21.93 13.024a.74.74 0 0 0-.54 1.377l.02.008a.738.738 0 0 0 .958-.418.74.74 0 0 0-.418-.96l-.02-.007ZM13.19 15.02l-.017.019a.74.74 0 1 0 1.086 1.004l.012-.013a.74.74 0 0 0-1.08-1.01ZM18.143 27.676a.74.74 0 0 0-.558-.885l-.016-.004a.74.74 0 1 0-.337 1.44l.026.006a.74.74 0 0 0 .885-.558ZM24.01 14.226l-.021-.016a.74.74 0 1 0-.92 1.158l.012.01a.736.736 0 0 0 1.04-.111.74.74 0 0 0-.111-1.04ZM15.052 13.54l-.024.013a.74.74 0 0 0 .743 1.28l.014-.009a.74.74 0 1 0-.733-1.284ZM22.77 25.052c.21 0 .42-.08.582-.239l.018-.018a.827.827 0 1 0-1.17-1.169l-.01.01a.827.827 0 0 0 .581 1.416ZM14.69 24.799a.825.825 0 0 0 1.169 0 .827.827 0 0 0 0-1.17l-.012-.011a.827.827 0 1 0-1.174 1.164l.017.017ZM16.66 26.12l.02.009a.827.827 0 0 0 .637-1.526l-.019-.008a.827.827 0 0 0-.638 1.526ZM19.004 26.594h.027a.825.825 0 1 0-.003-1.653H19.01a.827.827 0 0 0-.006 1.653ZM13.356 22.81a.827.827 0 0 0 1.528-.634l-.007-.017a.827.827 0 0 0-1.529.629l.009.021ZM21.391 14.787l-.024-.01a.827.827 0 0 0-.628 1.53l.014.006a.825.825 0 0 0 1.082-.443.827.827 0 0 0-.444-1.082ZM21.044 26.198a.83.83 0 0 0 .311-.06l.025-.01a.826.826 0 1 0-.633-1.528l-.014.006a.827.827 0 0 0 .311 1.592ZM25.167 20.478v-.034a.827.827 0 0 0-1.653 0v.03a.827.827 0 0 0 .824.829h.002a.827.827 0 0 0 .827-.825ZM22.193 16.107a.827.827 0 0 0 0 1.17l.014.014a.824.824 0 0 0 1.17 0 .827.827 0 0 0 0-1.17l-.015-.014a.827.827 0 0 0-1.169 0ZM12.889 20.437v.024a.827.827 0 0 0 1.653 0v-.017a.827.827 0 0 0-.823-.83h-.004a.827.827 0 0 0-.826.822ZM23.61 23.27a.827.827 0 0 0 1.082-.443l.009-.023a.827.827 0 1 0-1.527-.633l-.007.016a.826.826 0 0 0 .443 1.082ZM23.941 19.258a.828.828 0 0 0 .765-1.141l-.01-.024a.826.826 0 1 0-1.526.638l.007.014c.131.32.44.513.764.513ZM13.361 18.089l-.01.023a.827.827 0 0 0 1.529.63l.006-.014a.826.826 0 1 0-1.525-.639ZM16.69 14.777l-.02.008a.826.826 0 1 0 .634 1.527l.018-.008a.827.827 0 1 0-.631-1.528ZM14.699 16.102l-.017.017a.827.827 0 1 0 1.17 1.169l.011-.012a.827.827 0 0 0-1.164-1.174ZM19.04 14.316h-.02a.827.827 0 0 0 0 1.653h.02a.827.827 0 0 0 0-1.653ZM22.494 23.005l.015-.022a.914.914 0 1 0-1.478-1.074l-.01.013a.914.914 0 0 0 1.473 1.083ZM15.558 17.91l-.014.02a.914.914 0 1 0 1.479 1.074l.01-.015a.914.914 0 0 0-1.475-1.08ZM22.411 21.39h.006c.502 0 .91-.406.913-.909v-.033a.914.914 0 0 0-1.827 0v.022a.914.914 0 0 0 .909.92ZM19.2 16.95c-.155.48.11.995.59 1.15l.02.005a.912.912 0 0 0 1.15-.588.914.914 0 0 0-.589-1.15l-.02-.008a.914.914 0 0 0-1.15.59H19.2ZM20.337 24.555l.021-.007a.913.913 0 1 0-.563-1.739l-.02.006a.914.914 0 0 0 .562 1.74ZM21.227 17.72a.914.914 0 0 0-.198 1.277l.009.013a.913.913 0 1 0 1.48-1.07l-.015-.022a.914.914 0 0 0-1.277-.198ZM17.714 16.357l-.02.007a.913.913 0 1 0 .563 1.738l.02-.006a.913.913 0 1 0-.563-1.739ZM18.852 23.96a.914.914 0 0 0-.59-1.15l-.014-.005a.914.914 0 0 0-.572 1.736l.026.008a.914.914 0 0 0 1.15-.59ZM16.827 23.187a.914.914 0 0 0 .198-1.277l-.008-.011a.914.914 0 0 0-1.484 1.066l.017.023a.913.913 0 0 0 1.277.198ZM15.639 19.524a.914.914 0 0 0-.914.91v.025c0 .504.41.912.914.912s.913-.411.913-.916v-.014a.914.914 0 0 0-.91-.917h-.003ZM16.562 20.423v.035a1 1 0 0 0 1 1c.553 0 1.001-.45 1.001-1.003v-.007a1.001 1.001 0 1 0-2.002-.026ZM20.493 21.479a1 1 0 0 0 1-.988V20.45a1 1 0 1 0-2.001 0v.015a1 1 0 0 0 .987 1.014h.014Z"/>
            <path d="M18.989 22.92h.04a1 1 0 1 0 0-2h-.023a1 1 0 0 0-.017 2ZM19.023 19.99h.023a1.001 1.001 0 0 0 .014-2.001h-.037a1 1 0 1 0 0 2.002Z"/>
        </g>
        <g opacity=".2" fill="#fff">
            <path opacity=".6" d="M10.681 31.023c.04.12-1.584-.459-1.71-.529a7.027 7.027 0 0 1-1.677-1.306 6.916 6.916 0 0 1-1.9-4.316 6.873 6.873 0 0 1 .019-.643c.024-.217.058-.434.119-.654.178.15.328.303.469.455 1.863 1.858 3.848 4.47 4.68 6.993Z"/>
            <path d="M28.766 6.697a12.92 12.92 0 0 0-9.165-1.963c.002 0 .003.002.005.003.867.393 1.82.57 2.717.891.055.02.11.036.165.056l.162.065.323.129a18.349 18.349 0 0 1 7.284 5.332 18.779 18.779 0 0 1 2.49 3.912c.332.7.62 1.42.858 2.156.139.428.716 1.71.546 2.132 1.803-4.475-1.75-10.298-5.385-12.713Z"/>
        </g>
    </g>
    <mask id="f" style="mask-type:alpha" maskUnits="userSpaceOnUse" x="4" y="7" width="31" height="30">
        <path d="M19.235 23.17a8.044 8.044 0 1 1 0-16.088 8.044 8.044 0 0 1 0 16.089ZM4.803 36.988H34.14v-1.36c0-6.566-5.464-11.89-12.205-11.89h-4.929c-6.74 0-12.204 5.324-12.204 11.89v1.36Z" fill="#fff"/>
    </mask>
    <g mask="url(#f)">
        <circle cx="19.447" cy="19.449" r="17.574" fill="#fff"/>
    </g>
    <defs>
        <linearGradient id="b" x1="25.054" y1=".343" x2="13.768" y2="39.285" gradientUnits="userSpaceOnUse">
            <stop offset=".02" stop-color="#ED8500"/>
            <stop offset=".96" stop-color="#9C2200"/>
        </linearGradient>
        <linearGradient id="d" x1="25.028" y1="2.217" x2="13.689" y2="37.683" gradientUnits="userSpaceOnUse">
            <stop stop-color="#FFEF00"/>
            <stop offset="1" stop-color="#FF8F00"/>
        </linearGradient>
        <linearGradient id="e" x1="25.588" y1="7.192" x2="13.821" y2="46.135" gradientUnits="userSpaceOnUse">
            <stop stop-color="#FFEF00"/>
            <stop offset=".15" stop-color="#FFD200"/>
            <stop offset=".66" stop-color="#FF7800"/>
            <stop offset=".89" stop-color="#F50"/>
        </linearGradient>
    </defs>
</svg>
