<svg xmlns="http://www.w3.org/2000/svg" width="40" height="39" fill="none" xmlns:v="https://vecta.io/nano"><style><![CDATA[.B{fill:#fff}.C{fill:#fcee21}]]></style><mask id="A" maskUnits="userSpaceOnUse" x="0" y="0" width="40" height="40"><path d="M19.501 39.001c10.77 0 19.501-8.731 19.501-19.5S30.272 0 19.501 0 0 8.731 0 19.5s8.731 19.5 19.501 19.5z" class="B"/></mask><g mask="url(#A)"><path d="M19.501 39.001c10.77 0 19.501-8.731 19.501-19.5S30.272 0 19.501 0 0 8.731 0 19.5s8.731 19.5 19.501 19.5z" fill="url(#D)"/><g opacity=".2" class="B"><path d="M10.715-2.177l-2.88 16.33 1.131.199 2.88-16.33-1.131-.199z"/><path d="M14.613-3.374L8.941 12.208l1.079.393 5.672-15.582-1.079-.393z"/><path d="M18.66-3.875l-8.292 14.361.995.574 8.292-14.361-.995-.574z"/><path d="M22.732-3.666L12.072 9.036l.88.738 10.66-12.703-.88-.738z"/><path d="M26.706-2.754L14.003 7.905l.738.88L27.444-1.874l-.738-.88z"/><path d="M30.461-1.165L16.1 7.127l.574.995L31.035-.17l-.574-.995z"/><path d="M33.883 1.052L18.3 6.724l.393 1.079 15.583-5.671-.393-1.079z"/><path d="M36.869 3.83L20.537 6.709l.199 1.131 16.331-2.879-.199-1.131z"/><path d="M39.326 7.084H22.743v1.149h16.583V7.084z"/><path d="M24.85 7.835l-.199 1.131 16.331 2.879.2-1.131L24.85 7.835z"/><path d="M26.794 8.941l-.393 1.079 15.583 5.672.393-1.079-15.583-5.671z"/><path d="M28.517 10.368l-.574.995 14.361 8.291.574-.995-14.361-8.291z"/><path d="M29.966 12.072l-.738.88 12.703 10.659.738-.88-12.703-10.659z"/><path d="M31.097 14.002l-.88.738 10.66 12.703.88-.738-10.659-12.703z"/><path d="M31.876 16.099l-.995.574 8.292 14.361.995-.574-8.292-14.361z"/><path d="M32.279 18.299l-1.079.393 5.672 15.582 1.079-.393-5.672-15.582z"/><path d="M32.293 20.536l-1.131.199 2.88 16.33 1.131-.2-2.88-16.33z"/><path d="M31.919 22.741h-1.149v16.582h1.149V22.741z"/><path d="M30.037 24.649l-2.88 16.33 1.131.2 2.88-16.33-1.131-.199z"/><path d="M28.982 26.4l-5.672 15.582 1.079.393 5.672-15.582-1.079-.393z"/><path d="M27.64 27.941l-8.292 14.361.995.574 8.292-14.361-.995-.574z"/><path d="M26.051 29.226L15.391 41.929l.88.738 10.66-12.703-.88-.738z"/><path d="M24.262 30.216L11.559 40.875l.738.88 12.703-10.659-.738-.88z"/><path d="M22.329 30.88L7.968 39.171l.574.995 14.361-8.291-.574-.995z"/><path d="M20.31 31.198L4.727 36.869l.393 1.079 15.583-5.672-.393-1.079z"/><path d="M18.266 31.161L1.935 34.04l.199 1.131 16.331-2.879-.2-1.131z"/><path d="M16.26 30.769H-.323v1.149H16.26v-1.149z"/><path d="M-1.979 27.155l-.199 1.131 16.331 2.879.199-1.131-16.331-2.879z"/><path d="M-2.981 23.31l-.393 1.079 15.583 5.672.393-1.079-15.583-5.671z"/><path d="M-3.302 19.348l-.574.995 14.362 8.291.574-.995-14.362-8.291z"/><path d="M-2.928 15.39l-.738.88L9.037 26.929l.738-.88L-2.928 15.39z"/><path d="M-1.874 11.558l-.88.738 10.66 12.703.88-.738-10.659-12.703z"/><path d="M-.17 7.967l-.995.574 8.292 14.361.995-.574L-.17 7.967z"/><path d="M2.132 4.727l-1.079.393 5.672 15.582 1.079-.393L2.132 4.727z"/><path d="M4.961 1.935l-1.131.199 2.88 16.33 1.131-.2-2.88-16.33z"/><path d="M8.233-.323H7.084V16.26h1.149V-.323z"/></g></g><mask id="B" maskUnits="userSpaceOnUse" x="1" y="1" width="37" height="37"><path d="M37.077 19.5a17.58 17.58 0 0 1-17.576 17.575c-7.023 0-13.084-4.118-15.898-10.073-1.076-2.275-1.677-4.819-1.677-7.502A17.58 17.58 0 0 1 19.502 1.926a17.58 17.58 0 0 1 17.51 16.053c.044.501.066 1.009.066 1.521h0z" class="B"/></mask><g mask="url(#B)"><path d="M37.077 19.5a17.58 17.58 0 0 1-17.576 17.575c-7.023 0-13.084-4.118-15.898-10.073-1.076-2.275-1.677-4.819-1.677-7.502A17.58 17.58 0 0 1 19.502 1.926a17.58 17.58 0 0 1 17.51 16.053c.044.501.066 1.009.066 1.521h0z" fill="url(#E)"/><path d="M37.077 19.5a17.58 17.58 0 0 1-17.576 17.575c-7.023 0-13.084-4.118-15.898-10.073a31.31 31.31 0 0 0 6.204 1.394c10.624 1.281 20.643-2.938 27.205-10.417.044.501.066 1.009.066 1.521h0z" fill="url(#F)"/><g opacity=".2" class="C"><path d="M2.68 36.034c-.016-.017-.043-.018-.06-.001s-.018.043-.001.06l.015.015a.04.04 0 0 0 .031.013c.012 0 .021-.004.03-.012.017-.016.018-.043.002-.06l-.015-.016zM33.805 3.378c.008.007.018.01.028.01s.024-.005.032-.015c.015-.018.013-.045-.005-.06l-.016-.014c-.018-.015-.045-.013-.06.004s-.013.045.004.06l.016.014h0zm-1.707-1.34l.017.012c.008.006.016.008.025.008a.05.05 0 0 0 .035-.018c.014-.019.009-.046-.01-.059l-.018-.012c-.019-.014-.046-.009-.059.01s-.009.046.01.059h0zm3.263 2.822a.04.04 0 0 0 .031.013c.012 0 .021-.004.03-.012.017-.016.017-.043.001-.06l-.015-.016c-.016-.017-.043-.018-.06-.001s-.017.043-.001.06l.015.015h0zm1.409 1.622c.008.011.021.016.033.016s.019-.003.026-.009c.018-.015.022-.041.007-.06l-.013-.017c-.015-.018-.041-.022-.06-.007s-.022.042-.007.06l.013.017h0zM2.634 4.904c.011 0 .022-.005.031-.013l.015-.015c.016-.017.016-.044-.001-.06s-.044-.016-.06.001l-.015.016c-.016.017-.016.044.002.06.008.008.019.012.03.012zm1.557-1.487c.01 0 .02-.004.028-.01l.016-.014c.018-.016.019-.043.004-.06s-.043-.019-.06-.004l-.016.014c-.018.016-.02.042-.004.06.008.01.02.015.032.015h0zm1.69-1.334c.008 0 .017-.003.025-.008l.018-.012c.019-.014.023-.04.01-.059s-.04-.023-.059-.01l-.017.012c-.019.014-.024.04-.01.059.008.012.021.018.035.018h0zm30.962 32.321c-.019-.015-.045-.011-.06.007l-.013.017c-.014.019-.011.045.007.06.008.006.017.009.026.009s.025-.005.034-.017l.013-.017c.015-.018.011-.045-.007-.06h0zm-1.406 1.689c.016-.017.016-.044-.002-.06s-.044-.015-.06.002l-.015.015c-.016.017-.015.044.001.06.008.008.019.012.029.012a.05.05 0 0 0 .031-.013l.015-.015h0zM3.54 6.719c.025.022.056.033.087.033s.071-.015.096-.043l.014-.016a.13.13 0 0 0-.01-.183.13.13 0 0 0-.183.01l-.014.016a.13.13 0 0 0 .01.183h0zM32.796 35.74l-.016.014a.13.13 0 0 0-.01.183c.026.029.061.043.097.043a.13.13 0 0 0 .087-.033l.016-.015a.13.13 0 0 0 .009-.183.13.13 0 0 0-.183-.009h0zM8.652 2.668a.13.13 0 0 0 .065-.018l.019-.011a.13.13 0 0 0 .047-.177.13.13 0 0 0-.177-.047l-.018.011a.13.13 0 0 0-.047.177c.024.042.067.065.112.065h0zM3.735 34.214a.13.13 0 0 0-.183-.009.13.13 0 0 0-.009.183l.014.015c.026.029.061.043.097.043a.13.13 0 0 0 .096-.216l-.015-.017zm-1.356-1.673a.13.13 0 0 0-.181-.028.13.13 0 0 0-.028.181l.012.017c.025.035.065.053.105.053.026 0 .053-.008.076-.025a.13.13 0 0 0 .029-.181l-.013-.018h0zm2.894 3.211l-.016-.014a.13.13 0 0 0-.183.009.13.13 0 0 0 .009.183l.016.015c.025.022.056.033.087.033a.13.13 0 0 0 .087-.227h0zm1.673 1.355l-.017-.012a.13.13 0 0 0-.181.028.13.13 0 0 0 .028.181l.018.013a.13.13 0 0 0 .076.025c.04 0 .08-.019.105-.053a.13.13 0 0 0-.029-.181h0zM34.307 6.68c.026.028.061.043.096.043s.062-.011.087-.034a.13.13 0 0 0 .009-.183l-.014-.016a.13.13 0 0 0-.183-.009.13.13 0 0 0-.009.183l.014.016zm1.357 1.671c.025.035.065.053.105.053.027 0 .053-.008.077-.025a.13.13 0 0 0 .028-.181l-.012-.017a.13.13 0 0 0-.181-.028.13.13 0 0 0-.028.181l.013.018zm-33.476.061c.023.017.05.025.076.025a.13.13 0 0 0 .105-.054l.013-.018a.13.13 0 0 0-.029-.181.13.13 0 0 0-.181.029l-.013.017a.13.13 0 0 0 .029.181h0zm4.65-4.561c.027 0 .053-.008.076-.025l.018-.013a.13.13 0 0 0 .028-.181.13.13 0 0 0-.181-.028l-.017.013a.13.13 0 0 0 .077.235zM29.285 2.62l.018.011a.13.13 0 0 0 .177-.047.13.13 0 0 0-.047-.177l-.019-.011a.13.13 0 0 0-.177.048.13.13 0 0 0 .048.177h0zm7.741 28.072a.13.13 0 0 0-.177.047l-.011.018a.13.13 0 0 0 .047.178c.02.012.043.017.065.017.045 0 .088-.023.112-.064l.011-.019a.13.13 0 0 0-.047-.177h0zm-.198-20.556l.01.018a.13.13 0 0 0 .113.065c.022 0 .044-.006.064-.018a.13.13 0 0 0 .047-.177l-.011-.019a.13.13 0 0 0-.178-.047.13.13 0 0 0-.047.177h.001zM5.157 5.218a.13.13 0 0 0 .087-.033l.016-.015a.13.13 0 0 0 .009-.183.13.13 0 0 0-.183-.009l-.016.014a.13.13 0 0 0 .087.226h0zm29.354 29.173a.13.13 0 0 0-.01-.183.13.13 0 0 0-.183.01l-.014.015a.13.13 0 0 0 .009.183c.025.023.056.034.087.034s.07-.014.096-.043l.015-.016h0zm1.361-1.677l.012-.017a.13.13 0 0 0-.028-.181.13.13 0 0 0-.181.028l-.013.018a.13.13 0 0 0 .105.206.13.13 0 0 0 .105-.054h0zm-3.105-27.57l.016.014c.025.022.056.033.087.033a.13.13 0 0 0 .087-.226l-.016-.014a.13.13 0 0 0-.183.01.13.13 0 0 0 .01.183h0zm-1.675-1.353l.017.012c.023.017.05.025.076.025a.13.13 0 0 0 .076-.235l-.018-.013a.13.13 0 0 0-.181.029.13.13 0 0 0 .029.181h0zm.032 33.305l-.018.013a.13.13 0 0 0 .077.235c.027 0 .053-.008.076-.025l.017-.012a.13.13 0 0 0 .028-.181.13.13 0 0 0-.181-.029h0zm-.787-31.36l.017.013a.22.22 0 0 0 .132.045c.065 0 .129-.029.172-.084.073-.095.055-.231-.04-.304l-.017-.013c-.095-.073-.231-.055-.304.04s-.055.231.04.304h0zm5.643 22.809c-.107-.053-.237-.009-.29.099l-.009.019c-.053.107-.009.238.099.29.031.015.063.022.096.022.08 0 .157-.044.195-.121l.009-.019c.053-.107.009-.238-.099-.29zm.937-1.688l.007-.02c.04-.113-.019-.237-.132-.277s-.237.019-.277.132l-.007.02c-.04.113.019.237.132.277.024.009.048.012.072.012.089 0 .173-.055.204-.144zm-.408-12.655c.032.088.115.143.204.143.024 0 .049-.004.074-.013.113-.04.171-.165.13-.277l-.007-.02c-.041-.113-.165-.171-.278-.13s-.171.165-.13.278l.007.019zm.598 2.032c.023.1.112.168.211.168.016 0 .033-.002.049-.005.117-.027.19-.143.163-.26l-.005-.022c-.027-.116-.144-.189-.261-.162s-.189.144-.162.261l.005.02h0zM10.375 36.879l-.019-.01c-.106-.056-.237-.015-.293.091s-.015.237.091.293l.018.01c.032.017.067.025.101.025.078 0 .153-.042.192-.115.056-.106.016-.237-.09-.293h0zm10.211-34.92l.02.002c.13.001.225-.084.235-.197.01-.119-.078-.225-.197-.235l-.022-.002c-.119-.009-.224.079-.234.198s.079.224.198.234zm2.098.296l.021.004c.014.003.029.004.043.004.101 0 .192-.071.213-.174.024-.117-.053-.232-.17-.255l-.021-.004c-.117-.023-.232.053-.255.17s.053.232.17.255zM5.177 7.992c.059 0 .117-.024.16-.071l.014-.016c.081-.089.075-.225-.014-.306s-.225-.075-.306.014l-.014.016c-.081.089-.075.225.014.306.042.038.094.057.146.057zm30.594 3.95c-.107.053-.151.183-.099.29l.01.019c.038.076.114.12.194.12.032 0 .065-.007.096-.023.107-.053.151-.183.098-.291l-.009-.018c-.053-.107-.183-.152-.29-.099h0zm-7.184-7.4l.018.011c.035.021.073.031.112.031.074 0 .145-.038.186-.105.062-.103.029-.236-.074-.298l-.018-.011c-.102-.062-.236-.029-.297.074s-.029.236.074.298h0zm.031 31.807l-.017.01c-.103.062-.136.195-.074.298.041.068.113.105.186.105.038 0 .077-.01.111-.031l.019-.011c.103-.062.135-.196.073-.298s-.196-.135-.298-.073h0zM6.713 6.496c.051 0 .101-.018.142-.053l.016-.014c.09-.079.099-.216.02-.306s-.216-.099-.306-.02l-.016.014c-.09.079-.1.216-.021.306.043.049.103.074.164.074zm23.652 28.656l-.017.013c-.095.073-.112.209-.039.304.043.055.107.084.172.084.046 0 .093-.015.132-.045l.017-.013c.095-.073.112-.209.039-.304s-.21-.112-.304-.039h0zM2.556 11.429c.034.019.07.028.106.028.076 0 .149-.04.189-.11l.011-.019c.058-.104.021-.236-.083-.295s-.237-.021-.295.083l-.01.018c-.059.104-.022.237.082.295h0zm1.103-2.138l-.013.018c-.07.097-.049.233.048.303.039.028.083.041.127.041.067 0 .133-.031.176-.09l.012-.017c.07-.097.049-.232-.048-.303s-.232-.049-.303.048h0zm3.245 25.505c.078-.09.068-.227-.022-.306l-.017-.014c-.091-.078-.228-.068-.306.023s-.068.228.023.306l.016.014c.041.035.091.053.142.053.061 0 .121-.025.164-.075h0zm27.734-24.387c.041.064.111.099.182.099.041 0 .082-.011.118-.035.1-.065.129-.2.063-.3l-.011-.017c-.065-.101-.199-.13-.3-.065s-.13.199-.065.3l.012.019h0zm-2.672 23.355l-.015.014c-.086.083-.088.221-.005.307.043.044.099.066.156.066a.21.21 0 0 0 .151-.061l.016-.016c.086-.084.087-.221.004-.307s-.221-.088-.307-.004z"/><path d="M5.347 32.999c-.081-.088-.218-.094-.306-.013s-.094.218-.013.306l.015.016c.043.046.101.07.16.07.053 0 .105-.019.147-.057.088-.081.094-.218.013-.306L5.349 33h0zM10.24 4.073c.034 0 .069-.008.101-.025l.019-.01c.106-.056.146-.188.09-.293s-.187-.146-.293-.09l-.018.01c-.106.056-.146.187-.09.293.039.073.114.115.192.115h.001zM4.006 31.359c-.07-.097-.206-.119-.303-.048s-.119.206-.048.303l.013.018c.042.058.108.089.175.089a.22.22 0 0 0 .128-.042c.097-.071.118-.206.047-.303l-.012-.017zM26.711 3.555l.019.009c.029.013.06.02.09.02.082 0 .161-.047.197-.127.05-.109.002-.237-.107-.287l-.02-.009c-.109-.05-.238-.002-.287.107s-.002.237.107.287zm-14.523-.376c.026 0 .053-.005.079-.015l.019-.007c.112-.043.167-.169.124-.281s-.169-.167-.281-.124l-.021.008c-.112.043-.166.169-.123.281.033.086.115.138.202.138h0zm2.038-.665c.018 0 .037-.002.055-.007l.019-.005c.116-.03.186-.148.156-.264s-.148-.186-.264-.156l-.022.006c-.116.03-.185.149-.154.265.026.097.114.162.21.162h0zM8.617 36.086c.067-.099.042-.234-.057-.301l-.017-.012c-.099-.068-.234-.043-.301.056s-.043.234.056.301l.018.012c.037.026.08.038.122.038.069 0 .137-.033.179-.094zm24.772-27.39c.043.053.105.08.168.08.048 0 .097-.016.137-.049.093-.076.107-.212.031-.305l-.014-.018c-.076-.092-.213-.105-.305-.03s-.105.213-.029.305l.013.015h0zm.315 23.476c-.093-.076-.229-.062-.305.03l-.013.016c-.076.092-.063.229.03.305.04.033.089.049.138.049.063 0 .125-.027.168-.079l.014-.016c.076-.093.062-.229-.031-.305h0zm1.242-1.748c-.101-.065-.235-.036-.3.064l-.012.019c-.065.101-.035.235.066.299.036.023.077.034.117.034.071 0 .141-.035.183-.1l.011-.017c.065-.101.036-.235-.064-.3h0zM24.735 2.789l.02.006a.22.22 0 0 0 .067.011c.091 0 .177-.058.206-.15.037-.114-.025-.236-.139-.273l-.021-.007c-.114-.037-.236.026-.273.14s.026.236.14.273h0zM1.924 27.678c-.047-.11-.174-.162-.284-.115s-.162.174-.115.284l.008.019c.035.083.115.132.2.132.028 0 .057-.005.084-.017.11-.047.162-.174.115-.284l-.008-.019z"/><path d="M1.633 13.364a.21.21 0 0 0 .084.017c.084 0 .165-.05.2-.132l.008-.02c.046-.11-.006-.237-.116-.284s-.238.006-.284.116l-.008.019c-.047.11.005.237.115.284zm6.775-8.18c.042 0 .085-.012.122-.038l.018-.013c.098-.068.123-.203.055-.302s-.203-.123-.302-.055l-.017.011c-.099.068-.124.203-.056.301.042.061.11.094.179.094h0zm7.918-3.097c.01 0 .021-.001.032-.002l.02-.003c.119-.017.201-.127.184-.245s-.127-.201-.245-.184l-.022.003c-.119.017-.201.127-.183.246.016.108.108.186.215.186h0zM2.859 29.577c-.059-.104-.192-.14-.296-.081s-.14.192-.081.296l.01.017c.04.071.113.11.189.11.036 0 .073-.009.106-.028.104-.059.141-.191.082-.295l-.011-.019h0zm29.097-22.44c.042.041.097.061.151.061a.22.22 0 0 0 .155-.066c.083-.086.081-.223-.005-.307l-.015-.015c-.086-.083-.223-.081-.307.005s-.081.223.005.307l.015.014h0zm-8.244-2.559l.02.006a.3.3 0 0 0 .085.012c.132 0 .253-.086.292-.219.047-.161-.045-.33-.207-.377l-.02-.006c-.161-.047-.33.045-.377.207s.045.33.207.377zm-10.529.368a.29.29 0 0 0 .104-.019l.022-.008c.157-.059.237-.234.178-.391s-.234-.237-.391-.178l-.018.007c-.158.058-.239.232-.181.39.045.123.162.2.286.2zm12.521.361l.02.008c.04.018.081.026.122.026.117 0 .228-.068.278-.182.068-.154-.002-.333-.156-.401l-.02-.009c-.154-.067-.333.003-.4.156s.003.333.156.4h0zm-8.321-1.323l.03-.001.02-.002c.167-.016.29-.164.274-.331s-.163-.29-.331-.274l-.022.002c-.167.016-.289.165-.273.332.015.157.148.275.302.275v-.001zm11.942 3.514l.017.013c.056.044.123.066.189.066.089 0 .178-.039.238-.115.104-.131.083-.322-.049-.427l-.017-.013c-.131-.104-.323-.083-.427.049s-.083.322.049.427h0zm-7.681-3.387l.021.003a.26.26 0 0 0 .048.004c.147 0 .276-.107.3-.256.026-.166-.087-.322-.252-.348l-.021-.003c-.166-.026-.322.087-.348.252s.087.322.252.348zM9.367 6.947c.06 0 .121-.018.174-.055l.018-.013c.137-.097.17-.286.073-.423s-.286-.17-.423-.073l-.017.012c-.138.096-.171.286-.075.423.059.084.153.13.249.13v-.001zm10.166-3.034h.02c.173 0 .308-.129.314-.293s-.125-.309-.293-.314l-.023-.001c-.167-.004-.308.127-.313.295s.127.308.295.313h0zM11.21 5.824c.047 0 .095-.011.14-.034l.021-.011c.148-.079.205-.262.126-.411s-.263-.205-.411-.126l-.017.009c-.149.078-.207.261-.129.41.054.104.16.164.27.164v-.001zm16.273.045c-.087.144-.041.331.102.418l.018.011a.3.3 0 0 0 .157.044c.103 0 .203-.052.26-.147.087-.144.041-.331-.103-.418l-.018-.011c-.144-.087-.331-.041-.418.103zM15.252 4.33c.022 0 .045-.003.068-.008l.022-.005c.164-.038.265-.201.227-.365s-.201-.265-.365-.227l-.019.005c-.164.037-.266.2-.229.364.032.141.157.237.296.237h0zm-7.57 3.966a.3.3 0 0 0 .204-.079l.016-.015c.124-.113.133-.305.019-.43s-.305-.133-.43-.019l-.015.014c-.124.113-.133.305-.02.429.06.066.142.1.225.1h0zm3.698 26.84l-.02-.01c-.149-.078-.333-.02-.41.129s-.019.333.13.41l.018.009a.3.3 0 0 0 .141.035c.109 0 .215-.059.269-.163.078-.149.021-.332-.128-.41h0zm-1.814-1.101l-.017-.011c-.137-.096-.327-.063-.423.074s-.063.327.074.423l.019.013a.3.3 0 0 0 .173.055c.096 0 .191-.045.25-.13.096-.138.062-.327-.076-.423h0zM30.912 8.937c.06.061.139.092.218.092a.3.3 0 0 0 .212-.086c.12-.117.123-.31.006-.43l-.015-.015c-.117-.12-.309-.123-.43-.006s-.123.31-.006.43l.015.015zm1.856 21.797l.013-.017c.101-.134.073-.325-.061-.425s-.325-.073-.425.061l-.013.018c-.1.135-.073.325.062.425a.3.3 0 0 0 .182.06c.093 0 .184-.042.244-.122h0zm.783-18.842c-.146.083-.197.268-.114.414l.01.018c.056.099.159.154.265.154.051 0 .102-.013.15-.039.146-.083.197-.268.114-.414l-.01-.018c-.083-.146-.268-.197-.414-.115zm.981 15.189a.3.3 0 0 0 .115.023c.12 0 .233-.071.281-.189l.009-.021c.063-.156-.013-.333-.168-.395s-.333.013-.396.168l-.007.018c-.064.155.011.333.166.396h0zm.118-12.659c.038 0 .077-.007.115-.023.155-.064.23-.241.166-.396l-.008-.019c-.063-.155-.24-.23-.396-.167s-.23.24-.168.396l.008.02c.048.118.162.189.282.189h0zM13.319 35.994l-.019-.007c-.157-.058-.332.022-.391.179s.022.332.18.391l.021.008a.3.3 0 0 0 .104.019c.124 0 .24-.077.286-.2.058-.158-.024-.332-.181-.39h0zM7.893 32.7c-.124-.113-.316-.104-.43.02s-.104.316.019.43l.017.015a.3.3 0 0 0 .204.079c.083 0 .165-.034.226-.1.113-.125.103-.317-.021-.429l-.015-.014h0zm15.852 3.623l-.019.005c-.161.047-.253.216-.206.377.039.133.16.219.292.219a.3.3 0 0 0 .086-.012l.022-.006c.161-.048.252-.217.204-.378s-.217-.253-.378-.204zM5.985 9.776c.057.048.127.072.196.072.086 0 .172-.037.232-.107l.013-.015c.109-.128.095-.319-.033-.429s-.319-.095-.429.033l-.015.018c-.108.128-.093.32.035.428h0zm24.933 22.191l-.015.016c-.117.121-.114.313.007.43.059.057.135.086.211.086s.159-.031.218-.093l.015-.015c.117-.12.114-.313-.006-.43s-.313-.114-.43.006zm-24.5-.792c-.109-.128-.301-.143-.429-.034s-.143.301-.034.429l.014.017c.06.07.145.107.231.107a.3.3 0 0 0 .197-.073c.128-.109.143-.301.034-.429l-.014-.016h0zm13.15 5.821l-.023.001c-.168.006-.299.147-.293.314s.141.293.304.293h.03c.168-.005.3-.145.295-.313s-.145-.3-.313-.295h0zm2.111-.203l-.023.004c-.166.027-.278.184-.25.349.025.149.154.254.299.254a.28.28 0 0 0 .05-.004l.019-.003c.166-.026.279-.182.252-.348s-.182-.279-.348-.252h0zm10.596-26.26l.013.017c.06.08.151.122.244.122.063 0 .127-.02.182-.061.134-.101.162-.291.061-.425l-.013-.017c-.101-.134-.291-.162-.425-.061s-.162.291-.061.425zM15.354 36.596l-.021-.005c-.164-.037-.326.066-.364.229s.066.326.229.364l.021.005a.3.3 0 0 0 .068.007c.139 0 .264-.096.296-.237.037-.164-.066-.326-.229-.364h0zm10.38-1.007l-.021.009c-.153.069-.222.249-.153.402.051.113.161.179.277.179a.29.29 0 0 0 .124-.027l.018-.008c.154-.068.223-.248.155-.401s-.248-.223-.401-.155h0zm-8.287 1.341l-.019-.002c-.167-.016-.316.105-.333.272s.105.316.272.333l.023.002a.28.28 0 0 0 .029.001c.155 0 .287-.118.302-.276.016-.167-.107-.315-.274-.331h0zm10.164-2.322l-.017.01c-.144.086-.191.273-.104.417.057.095.158.148.261.148.053 0 .107-.014.156-.043l.02-.012c.143-.087.189-.275.101-.418s-.274-.189-.418-.101h0zM3.972 12.865c-.151-.073-.333-.01-.406.141l-.01.02c-.073.151-.009.333.142.406.042.021.087.03.131.03.113 0 .222-.064.274-.172l.009-.018c.073-.151.01-.333-.141-.406h0zm32.214 7.553c0-.168-.137-.303-.304-.303h-.001c-.168.001-.304.137-.303.305v.02.036c-.001.168.135.304.303.305h.001c.167 0 .303-.136.304-.303v-.022-.037-.001zm-.562 4.409l.005-.021c.042-.162-.054-.329-.217-.371s-.328.055-.371.217l-.005.021c-.043.162.054.329.217.371a.3.3 0 0 0 .077.01c.135 0 .258-.09.294-.227zM5.161 29.494l-.011-.017c-.091-.141-.279-.181-.42-.091s-.181.279-.091.42l.013.019c.058.089.155.138.255.138a.3.3 0 0 0 .166-.05c.141-.092.18-.28.088-.421v.001zm30.621-10.907c.166-.021.285-.173.263-.34l-.003-.022c-.021-.166-.174-.284-.34-.262s-.284.174-.262.34l.003.02c.02.153.15.266.301.266.013 0 .026-.001.039-.002zM2.423 23.374c-.165.032-.273.191-.241.356l.004.022c.029.145.156.245.298.245.019 0 .039-.002.059-.006.165-.032.272-.192.24-.357l-.004-.02c-.032-.165-.191-.273-.356-.241h0zm-.52-4c-.01.167.117.312.285.322.178.001.312-.124.322-.285l.001-.02c.011-.167-.116-.312-.284-.323s-.312.116-.323.284l-.001.022h0z"/><path d="M2.78 17.287c.032-.165-.076-.324-.241-.356s-.324.076-.356.241l-.004.021c-.032.165.076.324.241.356.019.004.039.006.058.006.143 0 .27-.101.298-.246l.004-.021h0zm1.944-5.756c.051.033.108.049.165.049.1 0 .197-.049.255-.139l.011-.017c.092-.141.053-.329-.087-.421s-.329-.053-.421.087l-.013.019c-.091.141-.051.329.09.421h0zM4.109 27.63c-.073-.151-.255-.214-.406-.141s-.214.255-.141.406l.009.019c.053.108.161.172.274.172a.3.3 0 0 0 .132-.03c.151-.073.214-.255.141-.406l-.009-.019zM2.74 15.045l-.007.022c-.053.159.034.331.194.384.031.01.064.015.095.015.128 0 .247-.081.289-.209l.006-.019c.053-.159-.033-.331-.192-.384s-.331.033-.385.192zm33.044 7.263c-.167-.021-.319.097-.34.264l-.003.02c-.021.167.096.319.263.34.013.002.026.003.039.003.151 0 .281-.112.301-.265l.003-.022c.021-.166-.097-.319-.264-.34zm-.752-6.085l.005.021c.036.136.159.226.294.226.026 0 .052-.003.078-.01.162-.043.259-.209.216-.372l-.005-.02c-.042-.163-.209-.26-.371-.217s-.259.209-.217.371h0zM3.314 25.665c-.053-.159-.225-.245-.384-.192s-.245.225-.192.384l.006.02c.042.128.161.209.288.209a.31.31 0 0 0 .096-.015c.159-.053.246-.225.193-.384l-.007-.021h0zm-1.086-3.81c.167-.011.295-.155.284-.323l-.001-.02c-.01-.168-.155-.295-.322-.285s-.295.154-.285.322l.001.022c.01.161.144.285.303.285l.02-.001zm27.121 11.538l-.017.014c-.131.105-.152.296-.047.427.06.075.148.114.237.114.067 0 .134-.022.19-.067l.016-.013c.131-.105.152-.296.048-.427s-.296-.153-.427-.048h0zm4.517-4.932c-.146-.082-.332-.03-.414.116l-.01.017c-.083.146-.032.332.114.415a.3.3 0 0 0 .15.04c.105 0 .208-.055.264-.153l.011-.02c.082-.146.031-.332-.115-.414h0zM30.013 10.93a.39.39 0 1 0 .59-.514l-.014-.017a.391.391 0 1 0-.589.515l.013.015h0zm-8.908 23.917l-.021.003a.39.39 0 0 0-.332.443.39.39 0 0 0 .387.335.35.35 0 0 0 .056-.004l.021-.003a.391.391 0 1 0-.111-.774zm1.996-28.353l.018.005a.39.39 0 0 0 .222-.75l-.023-.006a.391.391 0 1 0-.217.751h0zm.03 27.913l-.018.005a.39.39 0 0 0-.267.485.39.39 0 0 0 .375.282c.036 0 .073-.005.109-.016l.022-.006a.391.391 0 1 0-.221-.75v-.001zm9.824-20.347a.391.391 0 0 0-.71.327l.008.017a.39.39 0 0 0 .518.194.39.39 0 0 0 .194-.518l-.01-.021zm-6.206-6.391a.39.39 0 0 0 .119.54l.018.012a.39.39 0 0 0 .42-.66l-.017-.011a.39.39 0 0 0-.54.119h0zm1.741 1.229a.39.39 0 0 0 .039.552l.017.015a.39.39 0 1 0 .51-.594l-.015-.013a.39.39 0 0 0-.552.039h0zm5.258 9.013a.39.39 0 0 0-.332.443l.003.02a.39.39 0 0 0 .387.336.41.41 0 0 0 .056-.004.39.39 0 0 0 .332-.443l-.003-.021a.39.39 0 0 0-.443-.331zm-2.502-5.34l.012.019a.39.39 0 1 0 .656-.426l-.011-.017a.391.391 0 1 0-.657.424h0zm-6.395-5.873a.39.39 0 0 0 .195.517l.018.008a.39.39 0 1 0 .327-.711l-.021-.01a.39.39 0 0 0-.517.195h0zm7.591 20.334c.053.024.108.036.163.036a.39.39 0 0 0 .356-.228l.009-.02a.391.391 0 0 0-.711-.326l-.009.019a.39.39 0 0 0 .193.518h0zm.532-10.703l.005.018a.39.39 0 0 0 .375.282.4.4 0 0 0 .11-.016.39.39 0 0 0 .266-.485l-.007-.022a.391.391 0 1 0-.75.222h0zM12.641 6.524a.39.39 0 0 0 .325.712l.021-.01a.391.391 0 1 0-.329-.71l-.017.008zM4.583 16.641a.39.39 0 0 0 .485-.266l.006-.019a.391.391 0 0 0-.75-.221l-.006.021a.39.39 0 0 0 .266.485h0zm-.877 3.809v.021a.391.391 0 1 0 .782 0v-.021a.391.391 0 1 0-.782 0zm.926-2.049l.003-.02a.39.39 0 0 0-.332-.441c-.214-.03-.412.12-.443.334l-.003.018a.39.39 0 0 0 .333.442.34.34 0 0 0 .055.004.39.39 0 0 0 .387-.337h0zm29.232 3.791a.39.39 0 0 0-.443.332l-.003.021a.39.39 0 0 0 .332.443.41.41 0 0 0 .056.004.39.39 0 0 0 .387-.335l.003-.021a.39.39 0 0 0-.332-.442zm.486-1.737v-.034a.39.39 0 0 0-.391-.39h-.001a.39.39 0 0 0-.39.392v.019.033a.39.39 0 0 0 .39.392h.001a.39.39 0 0 0 .391-.39v-.022zM6.132 28.732l.011.017a.39.39 0 1 0 .658-.423l-.012-.018a.391.391 0 1 0-.657.424h0zm12.904 7.044a.39.39 0 0 0 .39-.391c0-.216-.176-.391-.392-.391h-.018a.391.391 0 1 0 0 .782h.021 0zM6.455 12.789a.39.39 0 0 0 .33-.18l.011-.017a.39.39 0 0 0-.118-.539c-.182-.117-.425-.063-.542.119l-.01.015a.39.39 0 0 0 .329.602h0zm10.401 22.834a.41.41 0 0 0 .056.004.39.39 0 0 0 .387-.335.39.39 0 0 0-.332-.443l-.023-.003a.391.391 0 0 0-.106.775l.019.003z"/><path d="M5.088 14.087l-.008.018a.39.39 0 0 0 .193.518c.053.024.108.036.163.036a.39.39 0 0 0 .356-.228l.009-.02a.391.391 0 1 0-.712-.324h0zM31.92 28.738a.391.391 0 1 0-.657-.424l-.012.018a.39.39 0 1 0 .658.424l.011-.018h0zM9.553 32.001a.39.39 0 0 0-.039-.552l-.017-.015a.391.391 0 1 0-.511.592l.015.013A.39.39 0 0 0 9.553 32zm3.636 2.204a.39.39 0 0 0-.195-.518l-.019-.008a.391.391 0 1 0-.324.712l.02.009a.39.39 0 0 0 .518-.195h-.001zm20.538-9.414l.006-.021a.391.391 0 0 0-.751-.22l-.006.02a.39.39 0 0 0 .265.486c.037.011.074.016.111.016a.39.39 0 0 0 .375-.281zm-22.436 8.443a.39.39 0 0 0-.117-.541l-.019-.012a.391.391 0 0 0-.421.659l.016.01c.065.043.139.063.212.063a.39.39 0 0 0 .329-.179h0zm3.43 1.929a.4.4 0 0 0 .109.015.39.39 0 0 0 .375-.283.39.39 0 0 0-.267-.484l-.02-.006a.391.391 0 1 0-.218.751l.02.006h0zM4.812 25.052a.39.39 0 0 0 .265-.485l-.006-.02a.391.391 0 1 0-.751.219l.006.021a.39.39 0 0 0 .375.281c.036 0 .073-.005.11-.016h0zm.983 1.437a.391.391 0 0 0-.712.325l.009.019a.39.39 0 0 0 .356.228c.055 0 .11-.011.163-.035a.39.39 0 0 0 .193-.518l-.009-.019zm2.237 3.479a.391.391 0 1 0-.59.514l.013.015a.39.39 0 1 0 .591-.513l-.014-.017h0zM4.636 22.54l-.003-.019a.391.391 0 1 0-.775.108l.003.022a.39.39 0 0 0 .387.335.41.41 0 0 0 .056-.004.39.39 0 0 0 .332-.443zM25.4 34.393a.391.391 0 0 0-.325-.712l-.019.008a.39.39 0 1 0 .324.712l.02-.009h.001zM21.072 6.059l.023.003a.38.38 0 0 0 .054.004.39.39 0 0 0 .387-.338.39.39 0 0 0-.334-.441l-.018-.003a.391.391 0 1 0-.111.774h0zm-4.58-.325a.39.39 0 0 0 .387.335.41.41 0 0 0 .056-.004l.021-.003a.391.391 0 1 0-.111-.774l-.021.003a.39.39 0 0 0-.332.443zm14.103 24.769l.014-.016a.391.391 0 1 0-.591-.512l-.014.016a.39.39 0 1 0 .591.512zm-2.045.939l-.014.012a.39.39 0 1 0 .51.594l.018-.016a.391.391 0 1 0-.514-.59h0zM14.423 6.244a.39.39 0 0 0 .486.264l.018-.005a.391.391 0 1 0-.217-.751l-.023.007a.39.39 0 0 0-.264.486zm4.58-.328h.023a.391.391 0 1 0-.002-.782h-.021a.391.391 0 1 0 0 .782h0zm8.43 26.888a.39.39 0 0 0-.54-.118l-.02.013a.39.39 0 1 0 .426.656l.016-.01a.39.39 0 0 0 .118-.54z"/><path d="M10.61 8.117a.39.39 0 0 0 .541.115l.018-.011a.391.391 0 1 0-.426-.656l-.018.011a.39.39 0 0 0-.115.541h0zm-3.134 2.871a.39.39 0 0 0 .552-.041l.013-.015a.391.391 0 1 0-.591-.512l-.014.017a.39.39 0 0 0 .041.552h0zm1.76-1.413a.39.39 0 0 0 .257-.096l.016-.014a.391.391 0 1 0-.514-.59l-.016.014a.39.39 0 0 0 .257.686zm23.092 13.119l.004-.02a.48.48 0 0 0-.393-.55.48.48 0 0 0-.55.393l-.004.021a.48.48 0 0 0 .393.55c.027.005.053.006.079.006a.48.48 0 0 0 .471-.4zm-1.158 2.455a.48.48 0 0 0 .609-.294l.008-.023a.48.48 0 0 0-.298-.607.48.48 0 0 0-.607.297l-.006.018a.48.48 0 0 0 .294.609h0zm-16.924 7.415a.48.48 0 0 0-.247-.631l-.019-.008a.48.48 0 0 0-.629.249.48.48 0 0 0 .249.629l.014.006.003.001a.47.47 0 0 0 .191.041.48.48 0 0 0 .437-.286zm13.269-2.893l-.016.014a.48.48 0 0 0-.027.676c.094.102.223.154.351.154a.48.48 0 0 0 .325-.127l.016-.014a.48.48 0 0 0 .027-.676.48.48 0 0 0-.676-.027h0zm2.139-17.52a.48.48 0 0 0-.671-.081.48.48 0 0 0-.081.671l.011.015c.094.122.236.186.379.186a.48.48 0 0 0 .377-.771l-.015-.019zM17.91 7.016l-.018.002a.48.48 0 0 0-.437.516.48.48 0 0 0 .476.439l.04-.002.024-.002a.48.48 0 0 0 .434-.518.48.48 0 0 0-.518-.434zm13.866 9.03a.48.48 0 0 0-.609-.295.48.48 0 0 0-.295.609l.006.018a.48.48 0 0 0 .607.297.48.48 0 0 0 .298-.607l-.008-.022zM8.392 28.747a.48.48 0 0 0 .377.183c.103 0 .207-.033.295-.102a.48.48 0 0 0 .081-.671l-.011-.015a.48.48 0 0 0-.671-.085.48.48 0 0 0-.085.671l.015.019h0zm16.305 3.428a.48.48 0 0 0-.63-.247l-.022.009a.48.48 0 0 0-.243.631.48.48 0 0 0 .437.284c.065 0 .131-.013.194-.041l.017-.008a.48.48 0 0 0 .247-.63h0zM9.06 12.087a.48.48 0 0 0-.671.081l-.014.018a.48.48 0 0 0 .084.671c.087.068.191.101.293.101a.48.48 0 0 0 .378-.185l.012-.016a.48.48 0 0 0-.081-.671zm21.831 14.786a.48.48 0 0 0-.192-.649.48.48 0 0 0-.649.192l-.01.019a.48.48 0 0 0 .42.706.48.48 0 0 0 .42-.25l.01-.019h0zm-.664-13.052a.48.48 0 0 0-.19.649l.008.015a.48.48 0 0 0 .422.252c.076 0 .154-.019.226-.057a.48.48 0 0 0 .195-.648l-.012-.022a.48.48 0 0 0-.649-.19v.001zm-7.536 19.126a.48.48 0 0 0-.581-.346l-.021.005a.48.48 0 0 0-.346.581.48.48 0 0 0 .581.346l.02-.005a.48.48 0 0 0 .346-.581zm-6.385.239a.48.48 0 0 0-.346-.581l-.023-.006a.48.48 0 0 0-.579.349.48.48 0 0 0 .349.579l.018.005c.04.01.079.015.118.015a.48.48 0 0 0 .463-.361zm10.24-2.104a.48.48 0 0 0-.662-.139l-.02.013a.48.48 0 0 0 .264.877c.09 0 .182-.026.264-.079l.015-.01a.48.48 0 0 0 .139-.662h0zM11.636 9.175a.48.48 0 0 0 .262.879c.09 0 .18-.025.261-.078l.02-.013a.48.48 0 0 0 .135-.663.48.48 0 0 0-.663-.135l-.015.01h0zm14.747-.024a.48.48 0 0 0-.662.14.48.48 0 0 0 .14.662l.017.011c.081.053.172.078.262.078a.48.48 0 0 0 .262-.878l-.019-.013h0zm-16.178 2.225c.116 0 .233-.042.324-.127l.014-.013a.48.48 0 0 0 .029-.675.48.48 0 0 0-.675-.03l-.017.016a.48.48 0 0 0-.027.676c.094.102.223.153.351.153h0zm-2.856 3.323a.48.48 0 0 0 .648-.192l.011-.02a.48.48 0 0 0-.194-.648.48.48 0 0 0-.648.194l-.009.018a.48.48 0 0 0 .192.649h0zm20.118-4.153a.48.48 0 0 0 .029.676l.014.013c.092.085.208.127.325.127.129 0 .257-.052.351-.154a.48.48 0 0 0-.027-.676l-.017-.016a.48.48 0 0 0-.675.029h0zM6.271 16.072l-.007.021a.48.48 0 0 0 .453.633.48.48 0 0 0 .452-.323l.007-.02a.48.48 0 0 0-.297-.608.48.48 0 0 0-.608.297zm13.331-8.621a.48.48 0 0 0 .437.516l.024.002.037.001a.48.48 0 0 0 .476-.442.48.48 0 0 0-.441-.513l-.018-.002a.48.48 0 0 0-.516.437h0zM6.67 22.532l-.003-.019a.48.48 0 0 0-.549-.395.48.48 0 0 0-.395.549l.004.023a.48.48 0 0 0 .471.4c.026 0 .053-.002.079-.006a.48.48 0 0 0 .393-.55h0zm15.064-14.81a.48.48 0 0 0 .349.579l.021.005a.51.51 0 0 0 .116.014.48.48 0 0 0 .464-.363.48.48 0 0 0-.349-.579l-.021-.005a.48.48 0 0 0-.579.349zm2.06.617a.48.48 0 0 0 .245.63l.021.009a.48.48 0 0 0 .63-.248.48.48 0 0 0-.248-.629l-.018-.008a.48.48 0 0 0-.63.245h0zm-8.445-.373a.48.48 0 0 0 .581.346l.021-.005a.48.48 0 0 0 .346-.581.48.48 0 0 0-.581-.346l-.021.005a.48.48 0 0 0-.346.581zm-2.003.777a.48.48 0 0 0 .437.285c.065 0 .131-.013.194-.041l.02-.009a.48.48 0 0 0 .242-.631.48.48 0 0 0-.631-.242l-.019.008a.48.48 0 0 0-.243.631h0zm19.167 11.68a.48.48 0 0 0-.478-.477h-.001a.48.48 0 0 0-.477.48v.018.03a.48.48 0 0 0 .477.48h.001a.48.48 0 0 0 .478-.477v-.023-.032.001zM17.904 33.894l.018.002.04.002a.48.48 0 0 0 .476-.439.48.48 0 0 0-.437-.516l-.024-.002a.48.48 0 0 0-.513.441.48.48 0 0 0 .441.513h0zm-7.328-3.539a.48.48 0 0 0-.027-.676l-.017-.016a.48.48 0 0 0-.675.03.48.48 0 0 0 .03.675l.014.013c.092.085.208.127.325.127.129 0 .257-.052.351-.154h0zM7.82 27.076a.48.48 0 0 0 .192-.649l-.009-.018a.48.48 0 0 0-.648-.194.48.48 0 0 0-.194.648l.011.02c.087.16.251.25.42.25a.48.48 0 0 0 .228-.058h0zm-.642-2.54l-.006-.018a.48.48 0 0 0-.606-.299.48.48 0 0 0-.299.606l.008.022a.48.48 0 0 0 .452.323.5.5 0 0 0 .156-.026.48.48 0 0 0 .296-.608h0zm5.142 7.076a.48.48 0 0 0-.137-.662l-.02-.013a.48.48 0 0 0-.662.14.48.48 0 0 0 .14.662l.016.01c.081.053.172.078.262.078a.48.48 0 0 0 .4-.215z"/><path d="M32.326 18.204a.48.48 0 0 0-.552-.392.48.48 0 0 0-.392.552l.003.019a.48.48 0 0 0 .471.4c.026 0 .052-.002.079-.006a.48.48 0 0 0 .393-.55l-.004-.023h0zM5.542 20.449v.021a.48.48 0 0 0 .478.478.48.48 0 0 0 .478-.478v-.021a.48.48 0 0 0-.478-.478.48.48 0 0 0-.478.478zm23.443 8.386c.088.069.192.102.296.102a.48.48 0 0 0 .376-.182l.015-.019a.48.48 0 0 0-.084-.671.48.48 0 0 0-.671.084l-.011.015a.48.48 0 0 0 .08.672h0zM5.725 18.231l-.004.022a.48.48 0 0 0 .395.549.51.51 0 0 0 .078.006.48.48 0 0 0 .471-.401l.003-.02a.48.48 0 0 0-.394-.55.48.48 0 0 0-.55.394zm14.363 15.666l.04-.002.021-.002a.48.48 0 0 0 .437-.516.48.48 0 0 0-.516-.437l-.021.002a.48.48 0 0 0-.437.516.48.48 0 0 0 .476.439zm9.182-17.12a.56.56 0 0 0 .218-.044c.288-.12.424-.451.304-.739l-.008-.019c-.12-.288-.45-.425-.739-.305s-.425.451-.305.739l.009.021c.091.217.301.348.522.348h0zm-3.769-6.007l-.019-.013c-.26-.173-.611-.103-.784.157s-.103.611.157.784l.017.011c.097.065.206.096.315.096.182 0 .361-.088.47-.25.174-.259.105-.61-.154-.785h0zm3.841 7.61l.004.019c.053.269.289.456.554.456a.52.52 0 0 0 .11-.011c.306-.06.506-.357.446-.664l-.005-.023c-.062-.306-.36-.504-.666-.442s-.504.36-.443.666h0zm-2.093-6.178c-.221-.22-.579-.22-.799.002s-.22.579.002.799l.016.016c.11.109.254.164.398.164s.291-.056.401-.167c.22-.222.218-.579-.003-.799l-.014-.014h0zm1.453 1.762c-.174-.259-.525-.328-.784-.154s-.328.525-.154.784l.012.018c.109.163.288.25.47.25.108 0 .218-.031.315-.096.259-.174.328-.525.154-.785l-.012-.018h0zm-4.906 16.514c-.12-.288-.451-.425-.739-.305l-.02.008c-.288.12-.425.451-.305.739.091.217.301.348.522.348.072 0 .146-.014.217-.043l.02-.008c.288-.12.425-.451.305-.739zm-2.046.737c-.061-.306-.359-.505-.666-.443l-.021.004c-.306.062-.504.359-.443.666.054.268.29.454.554.454.037 0 .075-.004.112-.011l.021-.004c.306-.061.505-.359.443-.665h0zm-.446-22.186l-.024-.005c-.307-.06-.603.14-.663.447s.14.603.447.663l.018.004a.57.57 0 0 0 .112.011c.264 0 .5-.186.554-.454.061-.306-.137-.604-.443-.665h0zm1.732 1.699l.021.008a.56.56 0 0 0 .215.043c.222 0 .433-.132.523-.35.119-.289-.019-.619-.308-.738l-.02-.008c-.289-.119-.619.018-.738.307s.018.619.307.738h0zm7.075 9.137h-.002c-.312.001-.565.255-.564.567v.043c-.001.312.251.566.564.567h.002c.311 0 .564-.252.565-.563v-.023-.026c-.001-.312-.254-.564-.565-.564zm-22.509-1.69l-.004.02c-.061.306.138.604.445.665.037.007.074.011.111.011.264 0 .501-.186.554-.456l.004-.022c.06-.306-.139-.603-.445-.664s-.604.139-.664.445h0zm4.943 11.959l.019.013c.096.064.205.095.313.095.183 0 .362-.088.471-.252.173-.26.103-.611-.157-.784l-.017-.011c-.26-.174-.611-.104-.784.155s-.104.611.155.784h0zm.312-18.321c.108 0 .218-.031.315-.096l.017-.011c.259-.174.329-.525.155-.784s-.525-.329-.784-.155l-.019.012c-.259.174-.328.525-.154.784.109.163.288.25.47.25h0zm1.698 19.4l.022.009a.56.56 0 0 0 .216.043c.222 0 .433-.132.523-.35.119-.289-.019-.619-.307-.738l-.018-.008c-.288-.12-.619.016-.739.304s.016.619.304.739zm.018-21.524l-.02.008c-.288.12-.425.451-.305.739.091.217.301.348.522.348.072 0 .146-.014.217-.043l.019-.008c.288-.12.425-.451.305-.739s-.45-.425-.739-.305h0zm-3.776 19.009c.11.11.255.165.4.165s.289-.055.4-.165c.221-.221.221-.579 0-.799l-.015-.015c-.221-.221-.579-.221-.8 0s-.221.579 0 .799l.015.015zm5.946 3.181l.021.004a.56.56 0 0 0 .109.01c.265 0 .502-.187.554-.457.06-.307-.14-.603-.447-.663l-.021-.004c-.306-.06-.604.14-.663.446s.14.604.447.663h0zm-6.612-18.056c-.259-.175-.61-.106-.785.152l-.014.02c-.173.26-.103.611.157.784.096.064.205.095.313.095.183 0 .362-.089.471-.252l.01-.015c.175-.259.107-.61-.152-.785zm-.784 13.113c.109.163.288.25.47.25.108 0 .218-.031.315-.096.259-.174.328-.525.154-.784l-.011-.017c-.173-.26-.524-.33-.784-.156s-.33.524-.156.784l.013.019h0zm1.447-14.72l-.014.014c-.221.221-.221.579 0 .799.11.11.255.165.4.165s.289-.055.4-.165l.017-.017c.22-.222.218-.579-.003-.799s-.579-.218-.8.003zM8.257 16.01c-.119.289.018.619.307.738a.56.56 0 0 0 .215.043c.222 0 .433-.132.523-.35l.008-.019c.12-.288-.017-.619-.305-.739s-.619.017-.739.305l-.009.021zm.002 8.894l.008.02c.09.217.301.349.522.349a.56.56 0 0 0 .216-.044c.288-.12.425-.451.305-.739l-.008-.019c-.12-.288-.45-.425-.739-.306s-.425.45-.306.739h0zm10.753 7.199h.021c.312 0 .564-.253.565-.565s-.252-.564-.563-.566h-.023c-.312 0-.565.253-.565.565s.253.565.565.565h0zm8.906-5.006a.56.56 0 0 0 .316.097c.182 0 .36-.087.469-.249l.014-.02c.173-.26.103-.611-.157-.784s-.611-.103-.784.157l-.01.015c-.175.259-.106.61.152.785zm1.875-2.185c.12-.288-.017-.619-.305-.739s-.619.017-.739.305l-.008.02c-.12.288.017.619.305.739a.57.57 0 0 0 .217.043c.222 0 .432-.131.522-.348l.008-.02zM19.031 8.807h-.021c-.312 0-.565.253-.565.565s.253.565.565.565h.021c.312 0 .565-.253.565-.565s-.253-.565-.565-.565zM8.712 22.519l-.004-.02c-.06-.306-.358-.506-.664-.445s-.506.358-.445.664l.004.022c.053.269.29.455.554.455a.57.57 0 0 0 .111-.011c.306-.061.505-.358.445-.665h0zm18.14 6.351c.144 0 .289-.055.399-.165l.016-.016c.221-.221.221-.579 0-.799s-.579-.221-.799 0l-.014.014c-.221.22-.222.578-.002.8a.56.56 0 0 0 .401.166h0zm3.599-6.121l.005-.022c.061-.306-.138-.604-.445-.665s-.604.139-.665.444l-.004.02c-.061.306.137.604.443.665a.53.53 0 0 0 .112.011c.264 0 .5-.186.554-.455h-.001zM7.379 20.446v.021c0 .312.253.565.565.565s.565-.253.565-.565v-.021c0-.312-.253-.565-.565-.565s-.565.253-.565.565zM16.76 9.027l-.024.005c-.306.061-.505.359-.443.665.054.269.29.454.554.454a.57.57 0 0 0 .112-.011l.018-.004c.306-.06.506-.357.447-.663s-.357-.506-.663-.446h0zm8.411 21.22c.108 0 .217-.031.313-.095l.019-.013c.259-.174.328-.525.154-.785s-.525-.328-.785-.154l-.016.011c-.26.173-.33.524-.157.784.109.164.288.252.471.252zm2.138-11.751c.071.3.339.502.634.502a.65.65 0 0 0 .151-.018c.351-.083.567-.435.484-.786l-.005-.02c-.083-.35-.435-.567-.786-.484s-.567.435-.484.786l.005.02zM9.808 17.088l-.008.021c-.123.339.052.713.391.836a.65.65 0 0 0 .222.039c.267 0 .517-.165.614-.43l.007-.019c.124-.338-.051-.713-.389-.837a.65.65 0 0 0-.836.389zm17.979 6.134c.051.012.102.018.152.018.295 0 .563-.202.634-.502l.005-.021a.65.65 0 1 0-1.27-.3l-.005.02c-.083.35.133.702.484.786h0zM16.198 11.057c-.345.104-.54.469-.436.813.085.282.344.464.624.464a.65.65 0 0 0 .189-.028l.017-.005c.345-.102.542-.466.44-.811s-.466-.543-.811-.44l-.024.007zm10.714 4.689a.65.65 0 0 0-.287.877l.008.016a.65.65 0 0 0 .875.292c.322-.161.453-.553.292-.875l-.011-.022a.65.65 0 0 0-.877-.287h0zm-12.804-3.782a.65.65 0 1 0 .656 1.128l.018-.011c.311-.181.417-.581.236-.892s-.581-.417-.892-.236l-.018.011zm3.721-.614c.021.346.308.614.651.614l.039-.001.017-.001a.65.65 0 1 0-.069-1.303l-.025.001c-.36.021-.634.33-.613.69h0zm-6.092 3.52c-.301-.198-.707-.113-.905.188l-.01.016c-.197.301-.113.706.188.903a.65.65 0 0 0 .903-.188l.011-.016a.65.65 0 0 0-.187-.902h0zm17.103 5.608v-.023-.021a.65.65 0 0 0-.652-.65h-.002a.65.65 0 0 0-.65.654v.037a.65.65 0 0 0 .651.654h.002a.65.65 0 0 0 .652-.65zm-16.581-6.23a.65.65 0 0 0 .922.027l.015-.015c.262-.247.274-.66.027-.922s-.66-.274-.923-.027l-.015.015c-.262.247-.274.66-.027.922h0zm12.225 14.218a.65.65 0 0 0 .389-.129l.017-.013a.652.652 0 0 0-.78-1.046l-.017.013c-.289.215-.348.624-.133.913a.65.65 0 0 0 .524.262zm-1.843 1.061a.66.66 0 0 0 .252-.051l.027-.011a.65.65 0 0 0 .339-.858c-.144-.331-.528-.482-.858-.339l-.012.005a.65.65 0 0 0-.349.854c.105.25.347.4.602.4zm-1.926.595l.021-.004c.355-.062.593-.4.531-.755s-.4-.593-.755-.531l-.021.004c-.355.062-.593.4-.531.755.055.317.331.541.642.541.037 0 .075-.003.113-.01zm-10.71-11.389a.65.65 0 0 0-.723.573l-.003.023c-.041.358.217.681.575.722a.64.64 0 0 0 .074.004c.327 0 .61-.246.648-.579l.002-.019a.65.65 0 0 0-.573-.723h0zm8.457 11.518l.039.001c.343 0 .63-.267.651-.614a.65.65 0 0 0-.613-.69l-.021-.001a.652.652 0 1 0-.078 1.302l.021.001h0zm8.07-3.474l.014-.016a.65.65 0 1 0-1-.838l-.014.016a.65.65 0 1 0 1 .838zm1.257-1.899l.009-.019c.162-.322.032-.714-.289-.876a.65.65 0 0 0-.876.289l-.009.019c-.162.322-.032.714.289.876a.65.65 0 0 0 .876-.289zm-7.828-13.559c-.062.355.176.693.531.755l.017.003c.039.007.078.01.116.01.31 0 .585-.222.642-.537.064-.355-.172-.694-.527-.758l-.024-.004a.65.65 0 0 0-.755.531h0zM16.2 29.853l.021.006a.66.66 0 0 0 .186.027c.282 0 .541-.184.625-.467a.65.65 0 0 0-.44-.811l-.017-.005a.65.65 0 0 0-.812.437c-.104.345.092.709.438.813zm-4.277-4.717l-.012-.018c-.199-.3-.604-.383-.904-.185s-.383.603-.185.904l.011.017a.65.65 0 0 0 1.089-.719h0zm-1.347-3.704a.65.65 0 0 0-.723-.573c-.357.042-.615.365-.573.723l.002.021c.039.332.321.577.647.577a.61.61 0 0 0 .076-.005c.358-.041.614-.365.573-.723l-.002-.021h0zm3.534 7.515l.016.009a.65.65 0 0 0 .326.088c.225 0 .444-.117.566-.326a.65.65 0 0 0-.238-.891l-.02-.012c-.312-.179-.711-.071-.891.241s-.071.711.241.891zm-1.827-1.365l.016.015a.65.65 0 0 0 .922-.027c.247-.262.235-.675-.027-.922l-.014-.014c-.261-.248-.675-.236-.922.025s-.236.675.025.922h0zm-1.638-3.372a.65.65 0 0 0 .389-.836l-.006-.018c-.123-.339-.496-.514-.835-.392s-.514.497-.392.835l.008.021a.65.65 0 0 0 .837.389zm14.968-10.153c-.275.233-.31.644-.077.92l.013.015a.65.65 0 0 0 .998-.84l-.015-.017c-.233-.275-.644-.31-.92-.077zm-3.57-2.278c-.142.331.011.715.342.857l.015.007c.085.037.174.055.262.055.251 0 .491-.146.598-.391a.65.65 0 0 0-.335-.859l-.024-.01c-.331-.142-.715.011-.857.342h0z"/><path d="M23.961 12.709c-.215.289-.154.698.135.913l.015.011a.65.65 0 0 0 .913-.131.65.65 0 0 0-.132-.913l-.019-.014c-.289-.215-.698-.154-.913.135h0zm3.043 7.77v-.024-.019a.74.74 0 0 0-.739-.737h-.003a.74.74 0 0 0-.737.742v.033a.74.74 0 0 0 .738.742h.002a.74.74 0 0 0 .739-.737h0zM19.608 12.5a.74.74 0 0 0-.789.686.74.74 0 0 0 .686.789l.017.001.057.002a.74.74 0 0 0 .055-1.477l-.026-.002h0zm-7.007 8.912a.74.74 0 0 0-.839-.624.74.74 0 0 0-.624.839l.003.023a.74.74 0 0 0 .73.63.72.72 0 0 0 .111-.008.74.74 0 0 0 .622-.841l-.003-.019zm1.63 4.511a.74.74 0 0 0 .039-1.045l-.014-.015a.74.74 0 0 0-1.045-.041.74.74 0 0 0-.041 1.045l.016.017a.74.74 0 0 0 1.045.038h0z"/><path d="M11.983 18.632a.74.74 0 0 0-.841.622l-.004.023a.74.74 0 0 0 .624.839c.036.006.073.008.108.008a.74.74 0 0 0 .731-.632l.003-.019a.74.74 0 0 0-.622-.841h0zm.848 5.635a.74.74 0 0 0 .344-.988l-.008-.018a.74.74 0 0 0-.987-.346.74.74 0 0 0-.346.987l.01.021a.74.74 0 0 0 .988.344zm12.777-8.319a.74.74 0 0 0-1.219.839l.01.014a.74.74 0 0 0 .612.324.73.73 0 0 0 .415-.128.74.74 0 0 0 .196-1.028l-.015-.021h0zm-1.031 9.209c.128.088.273.13.418.13a.74.74 0 0 0 .61-.321l.013-.019a.74.74 0 0 0-.194-1.028.74.74 0 0 0-1.028.194l-.011.016a.74.74 0 0 0 .191 1.028h0zm-8.523 1.938a.74.74 0 0 0-.271-1.01l-.014-.008a.74.74 0 0 0-1.012.264.74.74 0 0 0 .264 1.012l.023.013a.74.74 0 0 0 1.01-.271zm10.591-4.268l.006-.02a.74.74 0 0 0-.488-.925.74.74 0 0 0-.925.488l-.006.02a.74.74 0 0 0 .707.958.74.74 0 0 0 .706-.521zm-3.12 4.037c.16 0 .322-.052.457-.159l.021-.016a.74.74 0 0 0-.924-1.156l-.013.01a.74.74 0 0 0 .458 1.321zm-11.68-9.88l-.009.02a.74.74 0 0 0 .346.987c.103.05.213.073.32.073a.74.74 0 0 0 .667-.419l.009-.02a.74.74 0 0 0-.346-.987.74.74 0 0 0-.987.346h0zm7.783 11.424a.74.74 0 0 0 .682-.793.74.74 0 0 0-.793-.682l-.017.001a.74.74 0 0 0-.686.789.74.74 0 0 0 .738.688l.052-.002.025-.002h0zm5.606-9.881l.006.021a.74.74 0 0 0 .926.487.74.74 0 0 0 .487-.926l-.006-.02a.74.74 0 0 0-.926-.487.74.74 0 0 0-.487.926zm-7.971-5.851l-.021.005a.74.74 0 0 0 .163 1.461.71.71 0 0 0 .164-.019l.021-.005a.74.74 0 0 0 .558-.885.74.74 0 0 0-.885-.558zm4.683 15.203a.74.74 0 0 0 .417-.959.74.74 0 0 0-.959-.417l-.016.006a.74.74 0 0 0 .267 1.429.74.74 0 0 0 .267-.05l.024-.009h0zm-.016-14.855a.74.74 0 0 0-.959.418.74.74 0 0 0 .418.959l.02.008a.74.74 0 0 0 .958-.418.74.74 0 0 0-.418-.959l-.02-.008h0zm-8.739 1.996l-.017.019a.74.74 0 0 0 .543 1.242c.199 0 .397-.08.543-.238l.011-.012a.74.74 0 0 0-.034-1.045.74.74 0 0 0-1.046.035zm4.952 12.656a.74.74 0 0 0-.558-.885l-.016-.004a.74.74 0 0 0-.888.552.74.74 0 0 0 .552.888l.025.006a.77.77 0 0 0 .164.018.74.74 0 0 0 .721-.576h0zm5.867-13.449l-.02-.016a.74.74 0 0 0-1.039.118.74.74 0 0 0 .118 1.039l.013.01a.74.74 0 0 0 .464.164.74.74 0 0 0 .465-1.315h0zm-8.958-.687l-.024.014a.74.74 0 0 0 .372 1.379c.126 0 .254-.032.371-.1l.013-.008a.74.74 0 0 0 .276-1.009.74.74 0 0 0-1.009-.276h0zm7.719 11.512c.21 0 .419-.079.581-.238l.018-.018c.323-.323.323-.846 0-1.169s-.846-.323-1.169 0l-.011.011c-.325.321-.328.844-.007 1.169.162.164.375.246.588.246h0zm-8.081-.253c.161.161.373.242.585.242s.423-.081.585-.242c.323-.323.323-.846 0-1.169l-.012-.012c-.322-.324-.845-.326-1.169-.005s-.327.845-.005 1.169l.017.017h-.001zm1.969 1.321l.02.008a.83.83 0 0 0 .318.064c.324 0 .631-.191.764-.509.176-.422-.023-.906-.445-1.081l-.018-.007c-.421-.176-.906.022-1.082.444s.022.906.444 1.082h0zm2.345.474h.027c.457 0 .825-.37.825-.827a.83.83 0 0 0-.828-.827h-.012a.83.83 0 0 0-.833.821c-.003.457.364.829.821.833h0zm-5.648-3.785c.132.318.44.51.764.51.106 0 .213-.02.316-.063.422-.175.622-.658.447-1.08l-.007-.017a.83.83 0 0 0-1.079-.45c-.422.173-.624.657-.45 1.079l.009.021h0z"/><path d="M21.391 14.788l-.024-.01a.83.83 0 0 0-1.079.451c-.174.422.029.905.451 1.079l.014.006c.104.044.212.064.319.064a.83.83 0 0 0 .763-.508.83.83 0 0 0-.443-1.082h0zm-.347 11.41a.83.83 0 0 0 .311-.061l.024-.01c.422-.175.622-.658.447-1.08s-.659-.622-1.08-.447l-.014.006a.83.83 0 0 0-.455 1.077c.13.321.44.515.766.515h0zm4.123-5.72v-.034a.83.83 0 0 0-.827-.827c-.457 0-.827.37-.827.827v.029c-.001.457.368.828.824.829h.003c.456 0 .825-.369.827-.824h0zm-2.974-4.371c-.323.323-.323.846 0 1.169l.015.015a.82.82 0 0 0 .585.242c.212 0 .423-.081.585-.242.323-.323.323-.846 0-1.169l-.015-.015c-.323-.323-.846-.323-1.169 0h0zm-9.304 4.33v.024c0 .457.37.827.827.827s.827-.37.827-.827v-.017c.002-.457-.367-.828-.823-.83h-.004c-.455 0-.825.368-.827.823h0z"/><path d="M23.61 23.269a.82.82 0 0 0 .319.064.83.83 0 0 0 .763-.507l.009-.022c.175-.422-.025-.905-.447-1.08s-.906.025-1.08.447l-.007.017c-.176.421.022.906.443 1.082h0zm.331-4.011a.83.83 0 0 0 .314-.062c.422-.174.624-.657.45-1.079l-.01-.023c-.176-.421-.66-.62-1.081-.444s-.62.66-.444 1.081l.006.015a.83.83 0 0 0 .765.513zm-10.58-1.169l-.01.023c-.174.422.027.905.449 1.079.103.043.21.063.315.063a.83.83 0 0 0 .765-.512l.006-.015c.177-.421-.022-.905-.443-1.082s-.906.022-1.082.443h0zm3.33-3.312l-.02.008c-.422.175-.622.658-.447 1.08.132.318.44.51.764.51a.82.82 0 0 0 .316-.063l.018-.008c.422-.174.623-.658.448-1.08s-.658-.623-1.08-.448h0zm-1.992 1.325l-.017.017c-.323.323-.323.846 0 1.169.161.161.373.242.585.242s.423-.081.585-.242l.012-.012c.324-.322.326-.845.005-1.169s-.845-.326-1.169-.005h0zm4.341-1.786h-.021c-.457 0-.827.37-.827.827s.37.827.827.827h.021c.457 0 .827-.37.827-.827s-.37-.827-.827-.827zm3.454 8.689l.016-.021c.297-.409.206-.98-.203-1.276s-.98-.206-1.276.203l-.009.013c-.299.407-.212.979.195 1.278a.91.91 0 0 0 1.277-.195h0z"/><path d="M15.558 17.91l-.014.02c-.296.408-.206.98.202 1.276a.91.91 0 0 0 1.276-.202l.011-.015c.298-.407.209-.979-.198-1.277s-.979-.209-1.277.198h0zm6.853 3.48h.005c.502 0 .911-.406.914-.909v-.018-.009-.005-.002c0-.505-.409-.914-.914-.914s-.914.409-.914.914v.007.008.008c-.003.505.404.916.909.919h0zM19.2 16.95c-.155.48.109.995.59 1.15l.02.006a.91.91 0 0 0 .281.044c.386 0 .744-.246.869-.633.155-.48-.108-.995-.588-1.151l-.021-.007c-.48-.155-.995.109-1.15.59h0zm1.137 7.605l.021-.007c.48-.155.743-.671.588-1.151s-.671-.743-1.151-.587l-.019.006c-.48.155-.744.67-.589 1.151.125.387.483.633.869.633a.91.91 0 0 0 .281-.044h0zm.89-6.835c-.407.298-.496.87-.198 1.277l.009.013c.179.247.458.379.741.379.186 0 .373-.056.534-.173.409-.296.501-.867.205-1.276l-.016-.021c-.298-.407-.87-.496-1.277-.198h0z"/><path d="M17.714 16.357l-.02.007c-.48.155-.743.671-.588 1.151.125.386.484.632.869.632a.91.91 0 0 0 .282-.045l.02-.006c.48-.155.743-.671.588-1.151s-.671-.743-1.151-.588h0zm1.138 7.602c.155-.48-.109-.995-.59-1.15l-.015-.005c-.479-.158-.996.103-1.154.582s.103.996.582 1.154l.026.008a.92.92 0 0 0 .28.044c.386 0 .745-.247.87-.634h0zm-2.025-.772c.407-.298.496-.87.198-1.277l-.008-.011c-.295-.41-.866-.503-1.275-.209s-.503.866-.209 1.275l.017.023a.91.91 0 0 0 1.277.197h0zm-1.188-3.663c-.503 0-.912.407-.914.911v.024a.91.91 0 0 0 .914.912c.505 0 .914-.411.914-.915v-.014c.002-.505-.406-.915-.91-.917h-.003 0z"/><path d="M16.562 20.423v.035a1 1 0 0 0 1.001.999c.553 0 1.001-.45 1.001-1.003v-.007a1.001 1.001 0 1 0-2.002-.025h0zm3.931 1.056a1 1 0 0 0 1.001-.987v-.037-.006a1.001 1.001 0 1 0-2.002 0v.015a1 1 0 0 0 .987 1.015l.014.001zm-1.504 1.442h.039.002a1.001 1.001 0 1 0 0-2.002h-.005c-.563 0-1.009.437-1.018.983a1 1 0 0 0 .983 1.018h0zm.034-2.93h.009c.56 0 1.007-.439 1.015-.987a1 1 0 0 0-.987-1.015h-.032-.005a1.001 1.001 0 1 0 0 2.002h0z"/></g><g opacity=".2" class="B"><path opacity=".6" d="M10.681 31.023c.039.119-1.584-.459-1.71-.529-.622-.345-1.188-.79-1.678-1.306-1.116-1.176-1.797-2.698-1.9-4.316l.019-.643a4.11 4.11 0 0 1 .119-.654 5.11 5.11 0 0 1 .469.455c1.863 1.858 3.848 4.47 4.68 6.993h0z"/><path d="M28.766 6.697a12.92 12.92 0 0 0-9.166-1.963c.873.396 1.825.574 2.722.894l.165.055.162.065.323.129c2.844 1.158 5.324 2.958 7.284 5.333a18.78 18.78 0 0 1 2.49 3.912 18.06 18.06 0 0 1 .858 2.156c.139.427.715 1.71.546 2.131 1.803-4.474-1.749-10.297-5.385-12.713h0z"/></g></g><mask id="C" maskUnits="userSpaceOnUse" x="4" y="7" width="31" height="30" mask-type="alpha"><path d="M19.235 23.171c-4.443 0-8.044-3.602-8.044-8.044s3.602-8.044 8.044-8.044 8.044 3.602 8.044 8.044-3.602 8.044-8.044 8.044zM4.803 36.988h29.338v-1.359c0-6.567-5.464-11.891-12.205-11.891h-4.929c-6.74 0-12.205 5.324-12.205 11.891v1.359z" class="B"/></mask><g mask="url(#C)" class="B"><circle cx="19.447" cy="19.449" r="17.574"/></g><defs><linearGradient id="D" x1="25.054" y1=".343" x2="13.768" y2="39.286" gradientUnits="userSpaceOnUse"><stop offset=".02" stop-color="#ed8500"/><stop offset=".96" stop-color="#9c2200"/></linearGradient><linearGradient id="E" x1="25.028" y1="2.217" x2="13.689" y2="37.683" gradientUnits="userSpaceOnUse"><stop stop-color="#ffef00"/><stop offset="1" stop-color="#ff8f00"/></linearGradient><linearGradient id="F" x1="25.588" y1="7.192" x2="13.821" y2="46.135" gradientUnits="userSpaceOnUse"><stop stop-color="#ffef00"/><stop offset=".15" stop-color="#ffd200"/><stop offset=".66" stop-color="#ff7800"/><stop offset=".89" stop-color="#f50"/></linearGradient></defs></svg>